<svg width="320" height="85" viewBox="0 0 320 85" fill="none" xmlns="http://www.w3.org/2000/svg">
<rect x="7" y="8" width="307" height="77" rx="5" fill="#DAE5FD"/>
<path d="M161 0L167.062 10.5H154.938L161 0Z" fill="#DAE5FD"/>
<path d="M35.3797 33.904C36.005 34.072 36.481 34.3613 36.8077 34.772C37.1344 35.1733 37.2977 35.6773 37.2977 36.284C37.2977 37.1427 36.9804 37.81 36.3457 38.286C35.711 38.762 34.7917 39 33.5877 39H28.9397V29.2H33.3217C34.423 29.2 35.2817 29.4193 35.8977 29.858C36.5137 30.2967 36.8217 30.9173 36.8217 31.72C36.8217 32.2333 36.6957 32.6767 36.4437 33.05C36.201 33.4233 35.8464 33.708 35.3797 33.904ZM30.7317 33.386H33.1677C33.7557 33.386 34.2037 33.2693 34.5117 33.036C34.8197 32.8027 34.9737 32.4573 34.9737 32C34.9737 31.5427 34.8197 31.1973 34.5117 30.964C34.2037 30.7213 33.7557 30.6 33.1677 30.6H30.7317V33.386ZM33.5317 37.6C34.8197 37.6 35.4637 37.1147 35.4637 36.144C35.4637 35.192 34.8197 34.716 33.5317 34.716H30.7317V37.6H33.5317ZM42.815 33.988C43.767 33.988 44.495 34.2027 44.999 34.632C45.503 35.0613 45.755 35.668 45.755 36.452C45.755 37.2733 45.475 37.908 44.915 38.356C44.3644 38.804 43.5804 39.0233 42.563 39.014L39.175 39V31.524H40.925V33.974L42.815 33.988ZM46.721 31.524H48.471V39H46.721V31.524ZM42.409 37.726C42.9224 37.7353 43.3144 37.628 43.585 37.404C43.8557 37.18 43.991 36.8533 43.991 36.424C43.991 36.004 43.8604 35.696 43.599 35.5C43.3377 35.304 42.941 35.2013 42.409 35.192L40.925 35.178V37.712L42.409 37.726ZM54.8695 31.888C55.5788 31.888 56.2041 32.042 56.7455 32.35C57.2868 32.6487 57.7068 33.0687 58.0055 33.61C58.3135 34.1513 58.4675 34.772 58.4675 35.472C58.4675 36.1907 58.2995 36.83 57.9635 37.39C57.6275 37.9407 57.1561 38.37 56.5495 38.678C55.9428 38.986 55.2521 39.14 54.4775 39.14C53.1801 39.14 52.1768 38.7107 51.4675 37.852C50.7581 36.9933 50.4035 35.7567 50.4035 34.142C50.4035 32.6393 50.7255 31.4493 51.3695 30.572C52.0135 29.6947 52.9981 29.116 54.3235 28.836L57.7955 28.094L58.0475 29.662L54.8975 30.306C53.9921 30.4927 53.3155 30.81 52.8675 31.258C52.4195 31.706 52.1581 32.336 52.0835 33.148C52.4195 32.7467 52.8255 32.4387 53.3015 32.224C53.7775 32 54.3001 31.888 54.8695 31.888ZM54.5195 37.726C55.1635 37.726 55.6815 37.5207 56.0735 37.11C56.4748 36.69 56.6755 36.158 56.6755 35.514C56.6755 34.87 56.4748 34.352 56.0735 33.96C55.6815 33.568 55.1635 33.372 54.5195 33.372C53.8661 33.372 53.3388 33.568 52.9375 33.96C52.5361 34.352 52.3355 34.87 52.3355 35.514C52.3355 36.1673 52.5361 36.6993 52.9375 37.11C53.3481 37.5207 53.8755 37.726 54.5195 37.726ZM67.1614 35.304C67.1614 35.4253 67.152 35.598 67.1334 35.822H61.2674C61.37 36.3727 61.636 36.8113 62.0654 37.138C62.504 37.4553 63.0454 37.614 63.6894 37.614C64.5107 37.614 65.1874 37.3433 65.7194 36.802L66.6574 37.88C66.3214 38.2813 65.8967 38.5847 65.3834 38.79C64.87 38.9953 64.2914 39.098 63.6474 39.098C62.826 39.098 62.1027 38.9347 61.4774 38.608C60.852 38.2813 60.3667 37.8287 60.0214 37.25C59.6854 36.662 59.5174 35.9993 59.5174 35.262C59.5174 34.534 59.6807 33.8807 60.0074 33.302C60.3434 32.714 60.8054 32.2567 61.3934 31.93C61.9814 31.6033 62.644 31.44 63.3814 31.44C64.1094 31.44 64.758 31.6033 65.3274 31.93C65.906 32.2473 66.354 32.7 66.6714 33.288C66.998 33.8667 67.1614 34.5387 67.1614 35.304ZM63.3814 32.84C62.8214 32.84 62.3454 33.008 61.9534 33.344C61.5707 33.6707 61.3374 34.1093 61.2534 34.66H65.4954C65.4207 34.1187 65.192 33.68 64.8094 33.344C64.4267 33.008 63.9507 32.84 63.3814 32.84ZM73.2194 31.44C73.9474 31.44 74.5961 31.5987 75.1654 31.916C75.7441 32.2333 76.1967 32.6813 76.5234 33.26C76.8501 33.8387 77.0134 34.506 77.0134 35.262C77.0134 36.018 76.8501 36.69 76.5234 37.278C76.1967 37.8567 75.7441 38.3047 75.1654 38.622C74.5961 38.9393 73.9474 39.098 73.2194 39.098C72.2114 39.098 71.4134 38.762 70.8254 38.09V41.716H69.0754V31.524H70.7414V32.504C71.0307 32.1493 71.3854 31.8833 71.8054 31.706C72.2347 31.5287 72.7061 31.44 73.2194 31.44ZM73.0234 37.6C73.6674 37.6 74.1947 37.3853 74.6054 36.956C75.0254 36.5267 75.2354 35.962 75.2354 35.262C75.2354 34.562 75.0254 33.9973 74.6054 33.568C74.1947 33.1387 73.6674 32.924 73.0234 32.924C72.6034 32.924 72.2254 33.022 71.8894 33.218C71.5534 33.4047 71.2874 33.6753 71.0914 34.03C70.8954 34.3847 70.7974 34.7953 70.7974 35.262C70.7974 35.7287 70.8954 36.1393 71.0914 36.494C71.2874 36.8487 71.5534 37.124 71.8894 37.32C72.2254 37.5067 72.6034 37.6 73.0234 37.6ZM78.7551 31.524H80.5051V36.452L84.6351 31.524H86.2311V39H84.4811V34.072L80.3651 39H78.7551V31.524ZM94.5072 33.008H91.8892V39H90.1392V33.008H87.5072V31.524H94.5072V33.008ZM102.448 35.304C102.448 35.4253 102.439 35.598 102.42 35.822H96.5545C96.6571 36.3727 96.9231 36.8113 97.3525 37.138C97.7911 37.4553 98.3325 37.614 98.9765 37.614C99.7978 37.614 100.474 37.3433 101.006 36.802L101.944 37.88C101.608 38.2813 101.184 38.5847 100.67 38.79C100.157 38.9953 99.5785 39.098 98.9345 39.098C98.1131 39.098 97.3898 38.9347 96.7645 38.608C96.1391 38.2813 95.6538 37.8287 95.3085 37.25C94.9725 36.662 94.8045 35.9993 94.8045 35.262C94.8045 34.534 94.9678 33.8807 95.2945 33.302C95.6305 32.714 96.0925 32.2567 96.6805 31.93C97.2685 31.6033 97.9311 31.44 98.6685 31.44C99.3965 31.44 100.045 31.6033 100.614 31.93C101.193 32.2473 101.641 32.7 101.958 33.288C102.285 33.8667 102.448 34.5387 102.448 35.304ZM98.6685 32.84C98.1085 32.84 97.6325 33.008 97.2405 33.344C96.8578 33.6707 96.6245 34.1093 96.5405 34.66H100.782C100.708 34.1187 100.479 33.68 100.096 33.344C99.7138 33.008 99.2378 32.84 98.6685 32.84ZM115.582 39V34.044L113.062 38.216H112.306L109.828 34.03V39H108.232V31.524H110.066L112.726 36.2L115.512 31.524H117.15L117.164 39H115.582ZM126.511 35.304C126.511 35.4253 126.502 35.598 126.483 35.822H120.617C120.72 36.3727 120.986 36.8113 121.415 37.138C121.854 37.4553 122.395 37.614 123.039 37.614C123.86 37.614 124.537 37.3433 125.069 36.802L126.007 37.88C125.671 38.2813 125.246 38.5847 124.733 38.79C124.22 38.9953 123.641 39.098 122.997 39.098C122.176 39.098 121.452 38.9347 120.827 38.608C120.202 38.2813 119.716 37.8287 119.371 37.25C119.035 36.662 118.867 35.9993 118.867 35.262C118.867 34.534 119.03 33.8807 119.357 33.302C119.693 32.714 120.155 32.2567 120.743 31.93C121.331 31.6033 121.994 31.44 122.731 31.44C123.459 31.44 124.108 31.6033 124.677 31.93C125.256 32.2473 125.704 32.7 126.021 33.288C126.348 33.8667 126.511 34.5387 126.511 35.304ZM122.731 32.84C122.171 32.84 121.695 33.008 121.303 33.344C120.92 33.6707 120.687 34.1093 120.603 34.66H124.845C124.77 34.1187 124.542 33.68 124.159 33.344C123.776 33.008 123.3 32.84 122.731 32.84ZM136.309 37.516V40.666H134.671V39H128.903V40.666H127.279V37.516H127.629C128.105 37.4973 128.427 37.194 128.595 36.606C128.773 36.0087 128.889 35.1687 128.945 34.086L129.043 31.524H135.203V37.516H136.309ZM130.541 34.212C130.504 35.0707 130.434 35.7707 130.331 36.312C130.229 36.8533 130.042 37.2547 129.771 37.516H133.453V33.008H130.583L130.541 34.212ZM141.204 39.098C140.448 39.098 139.767 38.9347 139.16 38.608C138.554 38.2813 138.078 37.8287 137.732 37.25C137.396 36.662 137.228 35.9993 137.228 35.262C137.228 34.5247 137.396 33.8667 137.732 33.288C138.078 32.7093 138.554 32.2567 139.16 31.93C139.767 31.6033 140.448 31.44 141.204 31.44C141.97 31.44 142.656 31.6033 143.262 31.93C143.869 32.2567 144.34 32.7093 144.676 33.288C145.022 33.8667 145.194 34.5247 145.194 35.262C145.194 35.9993 145.022 36.662 144.676 37.25C144.34 37.8287 143.869 38.2813 143.262 38.608C142.656 38.9347 141.97 39.098 141.204 39.098ZM141.204 37.6C141.848 37.6 142.38 37.3853 142.8 36.956C143.22 36.5267 143.43 35.962 143.43 35.262C143.43 34.562 143.22 33.9973 142.8 33.568C142.38 33.1387 141.848 32.924 141.204 32.924C140.56 32.924 140.028 33.1387 139.608 33.568C139.198 33.9973 138.992 34.562 138.992 35.262C138.992 35.962 139.198 36.5267 139.608 36.956C140.028 37.3853 140.56 37.6 141.204 37.6ZM156.807 35.248C156.807 36.4053 156.42 37.3153 155.645 37.978C154.88 38.6407 153.783 39.0187 152.355 39.112V41.716H150.703V39.126C149.275 39.0327 148.178 38.6547 147.413 37.992C146.648 37.3293 146.265 36.4147 146.265 35.248C146.265 34.0907 146.648 33.19 147.413 32.546C148.178 31.8927 149.275 31.5193 150.703 31.426V28.612H152.355V31.426C153.783 31.5193 154.88 31.8927 155.645 32.546C156.42 33.1993 156.807 34.1 156.807 35.248ZM147.987 35.248C147.987 35.9667 148.206 36.5267 148.645 36.928C149.093 37.3293 149.779 37.572 150.703 37.656V32.91C149.779 32.9847 149.093 33.218 148.645 33.61C148.206 34.002 147.987 34.548 147.987 35.248ZM152.355 37.656C154.184 37.488 155.099 36.6853 155.099 35.248C155.099 34.5387 154.87 33.9927 154.413 33.61C153.965 33.218 153.279 32.9847 152.355 32.91V37.656ZM158.503 31.524H160.253V36.452L164.383 31.524H165.979V39H164.229V34.072L160.113 39H158.503V31.524ZM171.735 39.098C170.961 39.098 170.265 38.9347 169.649 38.608C169.033 38.2813 168.553 37.8287 168.207 37.25C167.862 36.662 167.689 35.9993 167.689 35.262C167.689 34.5247 167.862 33.8667 168.207 33.288C168.553 32.7093 169.029 32.2567 169.635 31.93C170.251 31.6033 170.951 31.44 171.735 31.44C172.473 31.44 173.117 31.5893 173.667 31.888C174.227 32.1867 174.647 32.616 174.927 33.176L173.583 33.96C173.369 33.6147 173.098 33.358 172.771 33.19C172.454 33.0127 172.104 32.924 171.721 32.924C171.068 32.924 170.527 33.1387 170.097 33.568C169.668 33.988 169.453 34.5527 169.453 35.262C169.453 35.9713 169.663 36.5407 170.083 36.97C170.513 37.39 171.059 37.6 171.721 37.6C172.104 37.6 172.454 37.516 172.771 37.348C173.098 37.1707 173.369 36.9093 173.583 36.564L174.927 37.348C174.638 37.908 174.213 38.342 173.653 38.65C173.103 38.9487 172.463 39.098 171.735 39.098ZM177.287 36.774C177.614 36.774 177.885 36.8813 178.099 37.096C178.314 37.3107 178.421 37.5907 178.421 37.936C178.421 38.0853 178.398 38.244 178.351 38.412C178.314 38.5707 178.23 38.8133 178.099 39.14L177.385 41.114H176.251L176.811 38.972C176.606 38.888 176.443 38.7573 176.321 38.58C176.209 38.3933 176.153 38.1787 176.153 37.936C176.153 37.5907 176.261 37.3107 176.475 37.096C176.69 36.8813 176.961 36.774 177.287 36.774ZM189.447 35.108C190.371 35.388 190.833 35.9853 190.833 36.9C190.833 37.572 190.581 38.09 190.077 38.454C189.573 38.818 188.826 39 187.837 39H184.029V31.524H187.683C188.597 31.524 189.311 31.692 189.825 32.028C190.338 32.364 190.595 32.84 190.595 33.456C190.595 33.8387 190.492 34.17 190.287 34.45C190.091 34.73 189.811 34.9493 189.447 35.108ZM185.695 34.646H187.529C188.434 34.646 188.887 34.3333 188.887 33.708C188.887 33.1013 188.434 32.798 187.529 32.798H185.695V34.646ZM187.697 37.726C188.658 37.726 189.139 37.4133 189.139 36.788C189.139 36.4613 189.027 36.2187 188.803 36.06C188.579 35.892 188.229 35.808 187.753 35.808H185.695V37.726H187.697ZM199.674 36.004H198.316V39H196.566V31.524H198.316V34.548H199.716L201.928 31.524H203.804L201.088 35.122L203.986 39H201.928L199.674 36.004ZM208.306 39.098C207.55 39.098 206.869 38.9347 206.262 38.608C205.655 38.2813 205.179 37.8287 204.834 37.25C204.498 36.662 204.33 35.9993 204.33 35.262C204.33 34.5247 204.498 33.8667 204.834 33.288C205.179 32.7093 205.655 32.2567 206.262 31.93C206.869 31.6033 207.55 31.44 208.306 31.44C209.071 31.44 209.757 31.6033 210.364 31.93C210.971 32.2567 211.442 32.7093 211.778 33.288C212.123 33.8667 212.296 34.5247 212.296 35.262C212.296 35.9993 212.123 36.662 211.778 37.25C211.442 37.8287 210.971 38.2813 210.364 38.608C209.757 38.9347 209.071 39.098 208.306 39.098ZM208.306 37.6C208.95 37.6 209.482 37.3853 209.902 36.956C210.322 36.5267 210.532 35.962 210.532 35.262C210.532 34.562 210.322 33.9973 209.902 33.568C209.482 33.1387 208.95 32.924 208.306 32.924C207.662 32.924 207.13 33.1387 206.71 33.568C206.299 33.9973 206.094 34.562 206.094 35.262C206.094 35.962 206.299 36.5267 206.71 36.956C207.13 37.3853 207.662 37.6 208.306 37.6ZM219.673 33.008H217.055V39H215.305V33.008H212.673V31.524H219.673V33.008ZM223.946 39.098C223.19 39.098 222.509 38.9347 221.902 38.608C221.296 38.2813 220.82 37.8287 220.474 37.25C220.138 36.662 219.97 35.9993 219.97 35.262C219.97 34.5247 220.138 33.8667 220.474 33.288C220.82 32.7093 221.296 32.2567 221.902 31.93C222.509 31.6033 223.19 31.44 223.946 31.44C224.712 31.44 225.398 31.6033 226.004 31.93C226.611 32.2567 227.082 32.7093 227.418 33.288C227.764 33.8667 227.936 34.5247 227.936 35.262C227.936 35.9993 227.764 36.662 227.418 37.25C227.082 37.8287 226.611 38.2813 226.004 38.608C225.398 38.9347 224.712 39.098 223.946 39.098ZM223.946 37.6C224.59 37.6 225.122 37.3853 225.542 36.956C225.962 36.5267 226.172 35.962 226.172 35.262C226.172 34.562 225.962 33.9973 225.542 33.568C225.122 33.1387 224.59 32.924 223.946 32.924C223.302 32.924 222.77 33.1387 222.35 33.568C221.94 33.9973 221.734 34.562 221.734 35.262C221.734 35.962 221.94 36.5267 222.35 36.956C222.77 37.3853 223.302 37.6 223.946 37.6ZM233.809 31.44C234.537 31.44 235.186 31.5987 235.755 31.916C236.334 32.2333 236.787 32.6813 237.113 33.26C237.44 33.8387 237.603 34.506 237.603 35.262C237.603 36.018 237.44 36.69 237.113 37.278C236.787 37.8567 236.334 38.3047 235.755 38.622C235.186 38.9393 234.537 39.098 233.809 39.098C232.801 39.098 232.003 38.762 231.415 38.09V41.716H229.665V31.524H231.331V32.504C231.621 32.1493 231.975 31.8833 232.395 31.706C232.825 31.5287 233.296 31.44 233.809 31.44ZM233.613 37.6C234.257 37.6 234.785 37.3853 235.195 36.956C235.615 36.5267 235.825 35.962 235.825 35.262C235.825 34.562 235.615 33.9973 235.195 33.568C234.785 33.1387 234.257 32.924 233.613 32.924C233.193 32.924 232.815 33.022 232.479 33.218C232.143 33.4047 231.877 33.6753 231.681 34.03C231.485 34.3847 231.387 34.7953 231.387 35.262C231.387 35.7287 231.485 36.1393 231.681 36.494C231.877 36.8487 232.143 37.124 232.479 37.32C232.815 37.5067 233.193 37.6 233.613 37.6ZM242.677 39.098C241.921 39.098 241.24 38.9347 240.633 38.608C240.026 38.2813 239.55 37.8287 239.205 37.25C238.869 36.662 238.701 35.9993 238.701 35.262C238.701 34.5247 238.869 33.8667 239.205 33.288C239.55 32.7093 240.026 32.2567 240.633 31.93C241.24 31.6033 241.921 31.44 242.677 31.44C243.442 31.44 244.128 31.6033 244.735 31.93C245.342 32.2567 245.813 32.7093 246.149 33.288C246.494 33.8667 246.667 34.5247 246.667 35.262C246.667 35.9993 246.494 36.662 246.149 37.25C245.813 37.8287 245.342 38.2813 244.735 38.608C244.128 38.9347 243.442 39.098 242.677 39.098ZM242.677 37.6C243.321 37.6 243.853 37.3853 244.273 36.956C244.693 36.5267 244.903 35.962 244.903 35.262C244.903 34.562 244.693 33.9973 244.273 33.568C243.853 33.1387 243.321 32.924 242.677 32.924C242.033 32.924 241.501 33.1387 241.081 33.568C240.67 33.9973 240.465 34.562 240.465 35.262C240.465 35.962 240.67 36.5267 241.081 36.956C241.501 37.3853 242.033 37.6 242.677 37.6ZM255.746 39V34.044L253.226 38.216H252.47L249.992 34.03V39H248.396V31.524H250.23L252.89 36.2L255.676 31.524H257.314L257.328 39H255.746ZM270.194 33.904C270.819 34.072 271.295 34.3613 271.622 34.772C271.949 35.1733 272.112 35.6773 272.112 36.284C272.112 37.1427 271.795 37.81 271.16 38.286C270.525 38.762 269.606 39 268.402 39H263.754V29.2H268.136C269.237 29.2 270.096 29.4193 270.712 29.858C271.328 30.2967 271.636 30.9173 271.636 31.72C271.636 32.2333 271.51 32.6767 271.258 33.05C271.015 33.4233 270.661 33.708 270.194 33.904ZM265.546 33.386H267.982C268.57 33.386 269.018 33.2693 269.326 33.036C269.634 32.8027 269.788 32.4573 269.788 32C269.788 31.5427 269.634 31.1973 269.326 30.964C269.018 30.7213 268.57 30.6 267.982 30.6H265.546V33.386ZM268.346 37.6C269.634 37.6 270.278 37.1147 270.278 36.144C270.278 35.192 269.634 34.716 268.346 34.716H265.546V37.6H268.346ZM276.775 31.44C277.877 31.44 278.717 31.706 279.295 32.238C279.883 32.7607 280.177 33.554 280.177 34.618V39H278.525V38.09C278.311 38.4167 278.003 38.6687 277.601 38.846C277.209 39.014 276.733 39.098 276.173 39.098C275.613 39.098 275.123 39.0047 274.703 38.818C274.283 38.622 273.957 38.356 273.723 38.02C273.499 37.6747 273.387 37.2873 273.387 36.858C273.387 36.186 273.635 35.6493 274.129 35.248C274.633 34.8373 275.422 34.632 276.495 34.632H278.427V34.52C278.427 33.9973 278.269 33.596 277.951 33.316C277.643 33.036 277.181 32.896 276.565 32.896C276.145 32.896 275.73 32.9613 275.319 33.092C274.918 33.2227 274.577 33.4047 274.297 33.638L273.611 32.364C274.003 32.0653 274.475 31.8367 275.025 31.678C275.576 31.5193 276.159 31.44 276.775 31.44ZM276.537 37.824C276.976 37.824 277.363 37.726 277.699 37.53C278.045 37.3247 278.287 37.0353 278.427 36.662V35.794H276.621C275.613 35.794 275.109 36.1253 275.109 36.788C275.109 37.1053 275.235 37.3573 275.487 37.544C275.739 37.7307 276.089 37.824 276.537 37.824ZM289.693 39V34.044L287.173 38.216H286.417L283.939 34.03V39H282.343V31.524H284.177L286.837 36.2L289.623 31.524H291.261L291.275 39H289.693ZM79.8297 55.524L76.3297 63.602C76.003 64.414 75.6063 64.9833 75.1397 65.31C74.673 65.646 74.1083 65.814 73.4457 65.814C73.0723 65.814 72.7037 65.7533 72.3397 65.632C71.9757 65.5107 71.677 65.3427 71.4437 65.128L72.1437 63.84C72.3117 63.9987 72.5077 64.1247 72.7317 64.218C72.965 64.3113 73.1983 64.358 73.4317 64.358C73.7397 64.358 73.9917 64.2787 74.1877 64.12C74.393 63.9613 74.5797 63.6953 74.7477 63.322L74.8737 63.028L71.6117 55.524H73.4317L75.7837 61.054L78.1497 55.524H79.8297ZM88.5603 61.516V64.666H86.9223V63H81.1543V64.666H79.5303V61.516H79.8803C80.3563 61.4973 80.6783 61.194 80.8463 60.606C81.0236 60.0087 81.1403 59.1687 81.1963 58.086L81.2943 55.524H87.4543V61.516H88.5603ZM82.7923 58.212C82.755 59.0707 82.685 59.7707 82.5823 60.312C82.4796 60.8533 82.293 61.2547 82.0223 61.516H85.7043V57.008H82.8343L82.7923 58.212ZM93.4553 63.098C92.6993 63.098 92.0179 62.9347 91.4113 62.608C90.8046 62.2813 90.3286 61.8287 89.9833 61.25C89.6473 60.662 89.4793 59.9993 89.4793 59.262C89.4793 58.5247 89.6473 57.8667 89.9833 57.288C90.3286 56.7093 90.8046 56.2567 91.4113 55.93C92.0179 55.6033 92.6993 55.44 93.4553 55.44C94.2206 55.44 94.9066 55.6033 95.5133 55.93C96.1199 56.2567 96.5913 56.7093 96.9273 57.288C97.2726 57.8667 97.4453 58.5247 97.4453 59.262C97.4453 59.9993 97.2726 60.662 96.9273 61.25C96.5913 61.8287 96.1199 62.2813 95.5133 62.608C94.9066 62.9347 94.2206 63.098 93.4553 63.098ZM93.4553 61.6C94.0993 61.6 94.6313 61.3853 95.0513 60.956C95.4713 60.5267 95.6813 59.962 95.6813 59.262C95.6813 58.562 95.4713 57.9973 95.0513 57.568C94.6313 57.1387 94.0993 56.924 93.4553 56.924C92.8113 56.924 92.2793 57.1387 91.8593 57.568C91.4486 57.9973 91.2433 58.562 91.2433 59.262C91.2433 59.962 91.4486 60.5267 91.8593 60.956C92.2793 61.3853 92.8113 61.6 93.4553 61.6ZM103.22 55.888C103.929 55.888 104.555 56.042 105.096 56.35C105.637 56.6487 106.057 57.0687 106.356 57.61C106.664 58.1513 106.818 58.772 106.818 59.472C106.818 60.1907 106.65 60.83 106.314 61.39C105.978 61.9407 105.507 62.37 104.9 62.678C104.293 62.986 103.603 63.14 102.828 63.14C101.531 63.14 100.527 62.7107 99.818 61.852C99.1087 60.9933 98.754 59.7567 98.754 58.142C98.754 56.6393 99.076 55.4493 99.72 54.572C100.364 53.6947 101.349 53.116 102.674 52.836L106.146 52.094L106.398 53.662L103.248 54.306C102.343 54.4927 101.666 54.81 101.218 55.258C100.77 55.706 100.509 56.336 100.434 57.148C100.77 56.7467 101.176 56.4387 101.652 56.224C102.128 56 102.651 55.888 103.22 55.888ZM102.87 61.726C103.514 61.726 104.032 61.5207 104.424 61.11C104.825 60.69 105.026 60.158 105.026 59.514C105.026 58.87 104.825 58.352 104.424 57.96C104.032 57.568 103.514 57.372 102.87 57.372C102.217 57.372 101.689 57.568 101.288 57.96C100.887 58.352 100.686 58.87 100.686 59.514C100.686 60.1673 100.887 60.6993 101.288 61.11C101.699 61.5207 102.226 61.726 102.87 61.726ZM108.512 55.524H110.262V58.562H114.028V55.524H115.778V63H114.028V60.046H110.262V63H108.512V55.524ZM125.123 59.304C125.123 59.4253 125.114 59.598 125.095 59.822H119.229C119.332 60.3727 119.598 60.8113 120.027 61.138C120.466 61.4553 121.007 61.614 121.651 61.614C122.473 61.614 123.149 61.3433 123.681 60.802L124.619 61.88C124.283 62.2813 123.859 62.5847 123.345 62.79C122.832 62.9953 122.253 63.098 121.609 63.098C120.788 63.098 120.065 62.9347 119.439 62.608C118.814 62.2813 118.329 61.8287 117.983 61.25C117.647 60.662 117.479 59.9993 117.479 59.262C117.479 58.534 117.643 57.8807 117.969 57.302C118.305 56.714 118.767 56.2567 119.355 55.93C119.943 55.6033 120.606 55.44 121.343 55.44C122.071 55.44 122.72 55.6033 123.289 55.93C123.868 56.2473 124.316 56.7 124.633 57.288C124.96 57.8667 125.123 58.5387 125.123 59.304ZM121.343 56.84C120.783 56.84 120.307 57.008 119.915 57.344C119.533 57.6707 119.299 58.1093 119.215 58.66H123.457C123.383 58.1187 123.154 57.68 122.771 57.344C122.389 57.008 121.913 56.84 121.343 56.84ZM134.037 59.304C134.037 59.4253 134.028 59.598 134.009 59.822H128.143C128.246 60.3727 128.512 60.8113 128.941 61.138C129.38 61.4553 129.921 61.614 130.565 61.614C131.387 61.614 132.063 61.3433 132.595 60.802L133.533 61.88C133.197 62.2813 132.773 62.5847 132.259 62.79C131.746 62.9953 131.167 63.098 130.523 63.098C129.702 63.098 128.979 62.9347 128.353 62.608C127.728 62.2813 127.243 61.8287 126.897 61.25C126.561 60.662 126.393 59.9993 126.393 59.262C126.393 58.534 126.557 57.8807 126.883 57.302C127.219 56.714 127.681 56.2567 128.269 55.93C128.857 55.6033 129.52 55.44 130.257 55.44C130.985 55.44 131.634 55.6033 132.203 55.93C132.782 56.2473 133.23 56.7 133.547 57.288C133.874 57.8667 134.037 58.5387 134.037 59.304ZM130.257 56.84C129.697 56.84 129.221 57.008 128.829 57.344C128.447 57.6707 128.213 58.1093 128.129 58.66H132.371C132.297 58.1187 132.068 57.68 131.685 57.344C131.303 57.008 130.827 56.84 130.257 56.84ZM143.223 63.098C142.448 63.098 141.753 62.9347 141.137 62.608C140.521 62.2813 140.04 61.8287 139.695 61.25C139.349 60.662 139.177 59.9993 139.177 59.262C139.177 58.5247 139.349 57.8667 139.695 57.288C140.04 56.7093 140.516 56.2567 141.123 55.93C141.739 55.6033 142.439 55.44 143.223 55.44C143.96 55.44 144.604 55.5893 145.155 55.888C145.715 56.1867 146.135 56.616 146.415 57.176L145.071 57.96C144.856 57.6147 144.585 57.358 144.259 57.19C143.941 57.0127 143.591 56.924 143.209 56.924C142.555 56.924 142.014 57.1387 141.585 57.568C141.155 57.988 140.941 58.5527 140.941 59.262C140.941 59.9713 141.151 60.5407 141.571 60.97C142 61.39 142.546 61.6 143.209 61.6C143.591 61.6 143.941 61.516 144.259 61.348C144.585 61.1707 144.856 60.9093 145.071 60.564L146.415 61.348C146.125 61.908 145.701 62.342 145.141 62.65C144.59 62.9487 143.951 63.098 143.223 63.098ZM155.771 61.516V64.666H154.133V63H148.365V64.666H146.741V61.516H147.091C147.567 61.4973 147.889 61.194 148.057 60.606C148.235 60.0087 148.351 59.1687 148.407 58.086L148.505 55.524H154.665V61.516H155.771ZM150.003 58.212C149.966 59.0707 149.896 59.7707 149.793 60.312C149.691 60.8533 149.504 61.2547 149.233 61.516H152.915V57.008H150.045L150.003 58.212ZM160.12 55.44C161.222 55.44 162.062 55.706 162.64 56.238C163.228 56.7607 163.522 57.554 163.522 58.618V63H161.87V62.09C161.656 62.4167 161.348 62.6687 160.946 62.846C160.554 63.014 160.078 63.098 159.518 63.098C158.958 63.098 158.468 63.0047 158.048 62.818C157.628 62.622 157.302 62.356 157.068 62.02C156.844 61.6747 156.732 61.2873 156.732 60.858C156.732 60.186 156.98 59.6493 157.474 59.248C157.978 58.8373 158.767 58.632 159.84 58.632H161.772V58.52C161.772 57.9973 161.614 57.596 161.296 57.316C160.988 57.036 160.526 56.896 159.91 56.896C159.49 56.896 159.075 56.9613 158.664 57.092C158.263 57.2227 157.922 57.4047 157.642 57.638L156.956 56.364C157.348 56.0653 157.82 55.8367 158.37 55.678C158.921 55.5193 159.504 55.44 160.12 55.44ZM159.882 61.824C160.321 61.824 160.708 61.726 161.044 61.53C161.39 61.3247 161.632 61.0353 161.772 60.662V59.794H159.966C158.958 59.794 158.454 60.1253 158.454 60.788C158.454 61.1053 158.58 61.3573 158.832 61.544C159.084 61.7307 159.434 61.824 159.882 61.824ZM171.61 57.008H168.992V63H167.242V57.008H164.61V55.524H171.61V57.008ZM176.631 57.988C177.583 57.988 178.311 58.2027 178.815 58.632C179.328 59.0613 179.585 59.668 179.585 60.452C179.585 61.2733 179.305 61.908 178.745 62.356C178.185 62.804 177.396 63.0233 176.379 63.014L172.879 63V55.524H174.629V57.974L176.631 57.988ZM176.225 61.726C176.738 61.7353 177.13 61.628 177.401 61.404C177.672 61.18 177.807 60.8533 177.807 60.424C177.807 60.004 177.676 59.696 177.415 59.5C177.154 59.304 176.757 59.2013 176.225 59.192L174.629 59.178V61.712L176.225 61.726ZM187.778 55.44C188.88 55.44 189.72 55.706 190.298 56.238C190.886 56.7607 191.18 57.554 191.18 58.618V63H189.528V62.09C189.314 62.4167 189.006 62.6687 188.604 62.846C188.212 63.014 187.736 63.098 187.176 63.098C186.616 63.098 186.126 63.0047 185.706 62.818C185.286 62.622 184.96 62.356 184.726 62.02C184.502 61.6747 184.39 61.2873 184.39 60.858C184.39 60.186 184.638 59.6493 185.132 59.248C185.636 58.8373 186.425 58.632 187.498 58.632H189.43V58.52C189.43 57.9973 189.272 57.596 188.954 57.316C188.646 57.036 188.184 56.896 187.568 56.896C187.148 56.896 186.733 56.9613 186.322 57.092C185.921 57.2227 185.58 57.4047 185.3 57.638L184.614 56.364C185.006 56.0653 185.478 55.8367 186.028 55.678C186.579 55.5193 187.162 55.44 187.778 55.44ZM187.54 61.824C187.979 61.824 188.366 61.726 188.702 61.53C189.048 61.3247 189.29 61.0353 189.43 60.662V59.794H187.624C186.616 59.794 186.112 60.1253 186.112 60.788C186.112 61.1053 186.238 61.3573 186.49 61.544C186.742 61.7307 187.092 61.824 187.54 61.824ZM193.346 55.524H195.096V58.562H198.862V55.524H200.612V63H198.862V60.046H195.096V63H193.346V55.524ZM205.743 55.44C206.845 55.44 207.685 55.706 208.263 56.238C208.851 56.7607 209.145 57.554 209.145 58.618V63H207.493V62.09C207.279 62.4167 206.971 62.6687 206.569 62.846C206.177 63.014 205.701 63.098 205.141 63.098C204.581 63.098 204.091 63.0047 203.671 62.818C203.251 62.622 202.925 62.356 202.691 62.02C202.467 61.6747 202.355 61.2873 202.355 60.858C202.355 60.186 202.603 59.6493 203.097 59.248C203.601 58.8373 204.39 58.632 205.463 58.632H207.395V58.52C207.395 57.9973 207.237 57.596 206.919 57.316C206.611 57.036 206.149 56.896 205.533 56.896C205.113 56.896 204.698 56.9613 204.287 57.092C203.886 57.2227 203.545 57.4047 203.265 57.638L202.579 56.364C202.971 56.0653 203.443 55.8367 203.993 55.678C204.544 55.5193 205.127 55.44 205.743 55.44ZM205.505 61.824C205.944 61.824 206.331 61.726 206.667 61.53C207.013 61.3247 207.255 61.0353 207.395 60.662V59.794H205.589C204.581 59.794 204.077 60.1253 204.077 60.788C204.077 61.1053 204.203 61.3573 204.455 61.544C204.707 61.7307 205.057 61.824 205.505 61.824ZM218.087 55.524V63H216.337V57.008H213.537L213.467 58.492C213.42 59.4813 213.327 60.312 213.187 60.984C213.056 61.6467 212.827 62.174 212.501 62.566C212.183 62.9487 211.745 63.14 211.185 63.14C210.923 63.14 210.601 63.0887 210.219 62.986L210.303 61.516C210.433 61.544 210.545 61.558 210.639 61.558C210.993 61.558 211.259 61.418 211.437 61.138C211.614 60.8487 211.726 60.508 211.773 60.116C211.829 59.7147 211.875 59.1453 211.913 58.408L212.039 55.524H218.087ZM220.444 55.524H222.194V60.452L226.324 55.524H227.92V63H226.17V58.072L222.054 63H220.444V55.524ZM234.644 59.108C235.111 59.2387 235.47 59.4533 235.722 59.752C235.983 60.0413 236.114 60.3913 236.114 60.802C236.114 61.2593 235.96 61.6653 235.652 62.02C235.344 62.3653 234.919 62.636 234.378 62.832C233.837 63.028 233.221 63.126 232.53 63.126C231.951 63.126 231.387 63.0607 230.836 62.93C230.285 62.79 229.786 62.594 229.338 62.342L229.842 61.04C230.206 61.2453 230.617 61.404 231.074 61.516C231.531 61.628 231.989 61.684 232.446 61.684C233.034 61.684 233.491 61.5953 233.818 61.418C234.154 61.2313 234.322 60.9793 234.322 60.662C234.322 60.3727 234.191 60.1487 233.93 59.99C233.678 59.8313 233.319 59.752 232.852 59.752H231.396V58.576H232.712C233.151 58.576 233.491 58.5013 233.734 58.352C233.986 58.2027 234.112 57.9927 234.112 57.722C234.112 57.4513 233.963 57.2367 233.664 57.078C233.365 56.9193 232.955 56.84 232.432 56.84C231.685 56.84 230.897 57.022 230.066 57.386L229.618 56.098C230.598 55.6407 231.587 55.412 232.586 55.412C233.221 55.412 233.79 55.5007 234.294 55.678C234.798 55.846 235.19 56.0887 235.47 56.406C235.759 56.714 235.904 57.0687 235.904 57.47C235.904 57.834 235.792 58.1607 235.568 58.45C235.344 58.73 235.036 58.9493 234.644 59.108ZM241.57 57.988C242.522 57.988 243.25 58.2027 243.754 58.632C244.258 59.0613 244.51 59.668 244.51 60.452C244.51 61.2733 244.23 61.908 243.67 62.356C243.119 62.804 242.335 63.0233 241.318 63.014L237.93 63V55.524H239.68V57.974L241.57 57.988ZM245.476 55.524H247.226V63H245.476V55.524ZM241.164 61.726C241.677 61.7353 242.069 61.628 242.34 61.404C242.611 61.18 242.746 60.8533 242.746 60.424C242.746 60.004 242.615 59.696 242.354 59.5C242.093 59.304 241.696 59.2013 241.164 59.192L239.68 59.178V61.712L241.164 61.726Z" fill="black"/>
</svg>
