<svg width="40" height="40" viewBox="0 0 40 40" fill="none" xmlns="http://www.w3.org/2000/svg">
<circle cx="20" cy="20" r="20" fill="#FF3122"/>
<path d="M20.8742 20.5001L26.7149 14.6591C27.095 14.2792 27.095 13.6649 26.7149 13.2849C26.335 12.905 25.7207 12.905 25.3408 13.2849L19.4999 19.1259L13.6592 13.2849C13.2791 12.905 12.665 12.905 12.2851 13.2849C11.905 13.6649 11.905 14.2792 12.2851 14.6591L18.1258 20.5001L12.2851 26.3411C11.905 26.721 11.905 27.3353 12.2851 27.7153C12.4744 27.9048 12.7234 28 12.9721 28C13.2209 28 13.4697 27.9048 13.6592 27.7153L19.4999 21.8743L25.3408 27.7153C25.5303 27.9048 25.7791 28 26.0279 28C26.2766 28 26.5254 27.9048 26.7149 27.7153C27.095 27.3353 27.095 26.721 26.7149 26.3411L20.8742 20.5001Z" fill="white"/>
</svg>
