<svg width="874" height="413" viewBox="0 0 874 413" fill="none" xmlns="http://www.w3.org/2000/svg">
<path opacity="0.25" d="M254.323 360.4C272.423 347.9 294.023 341.1 314.223 332C337.123 321.6 360.223 305.7 367.223 281.5C372.023 265 368.823 246.5 376.023 230.9C385.723 210 411.323 201.1 434.323 201.3C457.423 201.5 479.923 208.4 503.023 209.2C526.023 210 551.823 202.6 563.023 182.5C572.623 165.4 569.123 144.4 566.823 125C564.523 105.6 564.523 83.3 578.523 69.7C588.423 60 603.023 57.2 616.823 55.5C654.223 51 692.323 52 729.123 44.2C742.723 41.3 866.023 12.5 878.723 6.5V31L878.123 412.8H254.323H198.5L254.323 360.4Z" fill="#7FCCFF"/>
<path d="M457.723 294.4C490.423 265.8 523.623 266.6 563.123 256.6C573.323 254 583.623 249.9 591.023 242.5C612.423 221 605.223 184.4 603.723 157.5C602.623 137.1 605.023 115.4 618.423 99.1C637.523 75.8 669.223 67.1 699.223 65.2C731.723 63.1 764.823 67.5 796.923 60.5C817.523 56 898.6 15.1 913 0L878.723 31.1L878.223 346.8C876.823 347 875.423 347.1 874.023 347.3C847.123 350.6 820.123 359.3 799.723 377.1C788.323 387.1 779.723 399.4 773.823 412.9H418.223C415.923 368.8 424.723 323.4 457.723 294.4Z" fill="#7FCCFF"/>
<path d="M682.123 412.8C685.223 401.9 692.723 385 698.023 377.8C722.423 372.1 763.723 363.9 784.923 377.3C795.623 384.1 804.923 396.6 811.523 412.8" fill="white"/>
<path opacity="0.5" d="M780.623 412.5C780.623 397.5 776.723 383.5 769.823 371.6C775.523 372.7 780.623 374.6 784.923 377.3C795.623 384.1 804.923 396.6 811.523 412.8H780.523C780.623 412.7 780.623 412.6 780.623 412.5Z" fill="#7FCCFF"/>
<path d="M682.123 412.8C683.123 409.7 684.223 406.7 685.423 403.8C686.623 400.8 687.923 397.9 689.323 395C690.723 392.1 692.123 389.2 693.623 386.4C695.123 383.6 696.823 380.8 698.623 378.3L698.123 378.6C703.523 377.4 709.023 376.3 714.523 375.3C720.023 374.3 725.523 373.4 731.023 372.7C736.523 372 742.023 371.5 747.623 371.3C750.423 371.2 753.123 371.2 755.923 371.2C758.723 371.3 761.423 371.5 764.123 371.8C766.823 372.1 769.523 372.6 772.223 373.2C774.923 373.8 777.523 374.6 780.023 375.7C785.023 377.9 789.423 381.2 793.323 385C801.123 392.8 806.923 402.5 811.623 412.6C809.723 407.4 807.323 402.3 804.523 397.4C801.723 392.5 798.423 388 794.523 383.9C792.623 381.8 790.523 379.9 788.223 378.2C785.923 376.5 783.523 374.9 780.923 373.7C778.323 372.5 775.623 371.6 772.823 370.9C770.023 370.2 767.323 369.7 764.423 369.3C753.123 367.9 741.823 368.7 730.723 370.1C725.123 370.8 719.623 371.8 714.123 372.9C708.623 374 703.223 375.3 697.823 376.7L697.523 376.8L697.323 377C695.423 379.7 693.923 382.5 692.423 385.4C690.923 388.3 689.623 391.2 688.423 394.2C686.023 400.5 683.723 406.6 682.123 412.8Z" fill="#3DB9FF"/>
<path d="M758.123 361.6C765.923 368.8 775.323 384.4 772.423 407.2L758.123 361.6Z" fill="white"/>
<path d="M758.123 361.6C760.723 364.8 763.023 368.2 764.923 371.8C766.823 375.4 768.323 379.2 769.423 383C770.023 384.9 770.523 386.9 770.923 388.9C771.123 389.9 771.323 390.9 771.423 391.9C771.523 392.9 771.723 393.9 771.823 394.9C772.223 399 772.323 403 772.423 407.2C773.423 403.2 773.823 399 773.723 394.8C773.623 390.6 772.923 386.4 771.823 382.3C770.623 378.3 768.923 374.3 766.623 370.8C764.323 367.2 761.423 364 758.123 361.6Z" fill="#3DB9FF"/>
<path d="M722.823 214.4L718.323 244C681.323 236.6 630.423 239.4 624.023 227.9C616.123 214.1 669.323 204.2 722.823 214.4Z" fill="#0066CF"/>
<path d="M712.023 241.9L708.723 264.3C680.723 258.9 642.323 261.3 637.323 252.6C631.423 242.2 671.523 234.4 712.023 241.9Z" fill="#0066CF"/>
<path d="M722.823 214.4L717.723 243.9L718.423 243.4C710.023 241.6 701.623 240.5 693.123 239.5C684.623 238.5 676.123 237.8 667.723 237.1C659.223 236.3 650.823 235.6 642.423 234.3C638.323 233.6 634.123 232.7 630.323 231.2C628.423 230.4 626.623 229.5 625.523 228.1C625.023 227.4 624.523 226.6 624.423 225.8C624.323 225 624.423 224.2 624.823 223.5C625.623 222 627.323 220.7 629.023 219.7C630.723 218.7 632.623 217.9 634.623 217.2C638.523 215.8 642.623 214.8 646.723 214C655.023 212.4 663.423 211.6 671.923 211.3C680.423 211 688.923 211.1 697.323 211.7C705.923 212.1 714.423 213.1 722.823 214.4ZM722.823 214.4C706.223 210.8 689.123 209.1 672.023 209.4C663.523 209.5 654.923 210.2 646.423 211.7C642.223 212.5 638.023 213.4 633.923 214.9C631.823 215.6 629.823 216.5 627.923 217.6C626.023 218.7 624.023 220.1 622.823 222.3C622.223 223.4 621.923 224.8 622.123 226.1C622.323 227.4 622.923 228.5 623.723 229.6C624.123 230.1 624.623 230.5 625.023 230.9C625.523 231.2 625.923 231.6 626.423 231.9L627.923 232.7L629.423 233.4C633.523 235 637.823 235.9 642.023 236.6C650.523 238 659.023 238.6 667.523 239.3C684.523 240.7 701.523 241.5 718.223 244.6L718.923 244.7L719.023 244.1L722.823 214.4Z" fill="#004C9C"/>
<path d="M712.023 241.9L708.123 264.2L708.823 263.7C702.523 262.4 696.123 261.5 689.723 260.8C683.323 260.1 676.923 259.6 670.523 259C664.123 258.4 657.723 258 651.423 257C648.323 256.5 645.223 255.9 642.323 254.8C640.923 254.2 639.623 253.5 638.823 252.6C638.423 252.1 638.123 251.6 638.023 251C637.923 250.5 638.023 250 638.323 249.4C638.923 248.3 640.123 247.4 641.323 246.6C642.623 245.8 644.023 245.2 645.523 244.7C648.423 243.6 651.523 242.8 654.623 242.2C660.823 241 667.223 240.3 673.623 240C680.023 239.7 686.423 239.8 692.823 240.1C699.223 240.3 705.623 241 712.023 241.9ZM712.023 241.9C699.423 239.2 686.523 237.9 673.623 238.2C667.123 238.3 660.723 238.8 654.323 240C651.123 240.6 647.923 241.3 644.823 242.5C643.223 243.1 641.723 243.7 640.223 244.6C638.723 245.5 637.223 246.5 636.223 248.3C635.723 249.2 635.523 250.3 635.723 251.4C635.923 252.5 636.423 253.3 637.023 254.1C637.323 254.5 637.723 254.8 638.023 255.1C638.423 255.4 638.723 255.6 639.123 255.9L640.323 256.5L641.523 257C644.723 258.2 647.923 258.8 651.123 259.4C657.523 260.4 664.023 260.8 670.423 261.3C683.223 262.2 696.123 262.7 708.723 264.9L709.423 265L709.523 264.4L712.023 241.9Z" fill="#004C9C"/>
<path d="M740.523 193.6C735.023 204.4 729.823 213.3 724.923 224.2C707.223 213.9 666.123 202.9 666.123 202.9C666.123 202.9 620.023 196.7 616.223 190.3C609.223 178.8 644.423 170.4 691.623 178.7C706.923 181.3 724.023 187.6 740.523 193.6Z" fill="#0066CF"/>
<path d="M725.223 224.3C718.423 219.6 710.823 216 703.123 212.9C695.423 209.9 687.423 207.5 679.423 205.4C675.423 204.4 671.323 203.4 667.323 202.5C663.323 201.6 659.223 200.7 655.123 199.9C647.023 198.2 638.923 196.7 630.923 194.7C628.923 194.2 627.023 193.6 625.123 193C623.223 192.4 621.323 191.6 619.723 190.7C618.923 190.2 618.223 189.7 617.823 189.1C617.623 188.8 617.523 188.6 617.523 188.3C617.523 188.2 617.523 188.1 617.523 187.9C617.523 187.7 617.523 187.5 617.623 187.3C617.923 185.6 618.823 184.2 620.223 183C621.623 181.8 623.323 181 625.123 180.3C626.923 179.6 628.923 179.1 630.823 178.7C634.723 177.9 638.823 177.5 642.923 177.2C651.123 176.7 659.323 177 667.523 177.6C675.723 178.1 683.923 179 692.123 180.2H692.023C700.123 182.3 708.223 184.4 716.323 186.6C720.323 187.7 724.423 188.8 728.423 190C732.423 191.2 736.423 192.4 740.423 193.7C736.523 192.2 732.523 190.7 728.623 189.4C724.623 188 720.623 186.8 716.623 185.5C708.623 182.9 700.623 180.5 692.523 178.2H692.423C684.223 176.8 676.023 175.8 667.723 175.1C659.423 174.4 651.123 174 642.723 174.4C638.523 174.6 634.323 175 630.223 175.8C628.123 176.2 626.023 176.8 624.023 177.5C622.023 178.3 619.923 179.2 618.123 180.7C616.323 182.2 614.823 184.4 614.423 186.8C614.423 187.1 614.323 187.4 614.323 187.7C614.323 188 614.323 188.5 614.323 188.8C614.423 189.6 614.823 190.3 615.223 190.9C616.023 192 617.023 192.7 618.023 193.4C620.023 194.6 622.023 195.3 624.023 196C626.023 196.7 628.023 197.2 630.123 197.7C638.223 199.7 646.423 201.2 654.523 202.7C658.623 203.5 662.623 204.3 666.723 205.1C670.723 205.9 674.823 206.8 678.823 207.7C686.823 209.6 694.823 211.7 702.623 214.3C710.423 216.9 718.123 220.1 725.223 224.3Z" fill="#004C9C"/>
<path d="M647.023 181.1C662.223 175.9 714.423 227.1 714.423 227.1L724.623 201C723.723 193.5 721.323 186.1 717.523 179.6C699.523 176.4 658.823 168 660.523 158.7C662.823 146.3 710.723 146.7 731.523 150.9C731.523 150.9 773.923 182.4 778.723 192.1C781.523 197.8 774.623 276.8 771.523 318.1C771.523 318.1 779.223 358.2 784.923 377.2C784.923 377.2 745.223 391.1 694.823 379.1C694.823 379.1 702.523 334.4 698.523 298.5C698.523 298.5 652.623 235.3 643.523 197.8C642.123 192 641.223 183.1 647.023 181.1Z" fill="#00ADFF"/>
<g opacity="0.5">
<g opacity="0.5">
<path opacity="0.5" d="M774.623 380C764.023 353.7 747.123 318.7 747.123 318.7C747.123 318.7 769.023 275.6 765.523 178.2C771.923 183.9 777.123 189.1 778.623 192.1C781.423 197.8 774.523 276.8 771.423 318.1C771.423 318.1 779.123 358.2 784.823 377.2C785.023 377.3 781.523 379.4 774.623 380Z" fill="#0066CF"/>
</g>
</g>
<path d="M734.523 183.1C728.223 182.1 721.923 180.8 715.623 179.4C709.323 178 703.123 176.5 696.923 174.9C690.723 173.2 684.623 171.4 678.523 169.3C675.523 168.2 672.523 167.1 669.623 165.8C668.223 165.1 666.723 164.4 665.423 163.6C664.123 162.8 662.823 161.9 661.923 160.8C661.523 160.2 661.223 159.6 661.323 159.1C661.423 158.5 661.723 157.8 662.023 157.2C662.823 156 664.023 155.1 665.423 154.4C668.123 152.9 671.223 152.1 674.323 151.4C680.523 150.1 686.923 149.6 693.323 149.4C699.723 149.2 706.123 149.4 712.423 149.8C718.823 150.2 725.123 150.9 731.323 152.1L730.923 151.9C737.223 156.6 743.423 161.5 749.623 166.4C755.723 171.3 761.823 176.3 767.623 181.6C770.523 184.3 773.323 187 775.823 189.9C776.423 190.6 777.023 191.4 777.423 192.1C777.523 192.3 777.623 192.5 777.723 192.7C777.723 192.8 777.723 192.8 777.823 192.9L777.923 193.2C778.023 193.6 778.023 194 778.123 194.5C778.323 196.4 778.323 198.3 778.323 200.3C778.223 208.1 777.823 216 777.423 223.9C776.523 239.6 775.423 255.4 774.223 271.1C773.023 286.8 771.823 302.5 770.923 318.3V318.4V318.5L784.623 377.5L785.023 376.7C781.623 378 778.123 378.9 774.623 379.8C771.123 380.7 767.523 381.4 763.923 382C756.723 383.2 749.423 383.8 742.123 384C734.823 384.2 727.523 383.9 720.223 383.2C712.923 382.5 705.723 381.4 698.523 379.9C705.623 381.6 712.923 382.8 720.223 383.7C727.523 384.5 734.823 384.9 742.223 384.8C749.523 384.7 756.923 384.1 764.223 383.1C767.823 382.6 771.523 381.9 775.123 381.1C778.723 380.3 782.223 379.3 785.823 378.1L786.323 377.9L786.223 377.3L773.023 318.1V318.4C773.523 310.5 774.223 302.7 774.823 294.8L776.723 271.2C777.923 255.5 779.123 239.7 780.123 224C780.623 216.1 781.023 208.2 781.123 200.3C781.123 198.3 781.123 196.3 780.923 194.3C780.823 193.8 780.823 193.3 780.723 192.7C780.723 192.5 780.623 192.4 780.623 192.2C780.523 192 780.523 191.8 780.423 191.7C780.323 191.5 780.123 191.2 780.023 191C779.423 190.1 778.823 189.3 778.223 188.5C775.623 185.4 772.723 182.7 769.823 180C763.923 174.7 757.823 169.7 751.623 164.7C745.423 159.8 739.223 155 732.823 150.3L732.623 150.2H732.423C726.023 148.9 719.623 148.3 713.123 147.9C706.723 147.5 700.223 147.4 693.823 147.7C687.423 148 680.923 148.6 674.523 150C671.323 150.7 668.223 151.6 665.223 153.3C663.723 154.1 662.323 155.2 661.323 156.7C660.823 157.5 660.523 158.3 660.323 159.3C660.223 160.4 660.723 161.3 661.323 162C662.423 163.4 663.923 164.3 665.323 165.1C666.723 165.9 668.223 166.6 669.723 167.3C672.723 168.6 675.723 169.7 678.823 170.8C684.923 172.8 691.123 174.5 697.423 176.1C703.623 177.6 709.923 179 716.223 180.3C721.823 181.2 728.123 182.3 734.523 183.1Z" fill="#0066CF"/>
<path d="M714.423 227.2C715.823 225.2 716.923 223 717.923 220.8C718.923 218.6 719.923 216.4 720.823 214.2C721.723 212 722.523 209.7 723.223 207.4C723.923 205.1 724.523 202.8 724.923 200.3C723.523 202.3 722.423 204.5 721.423 206.6C720.423 208.8 719.423 211 718.523 213.2C717.623 215.4 716.823 217.7 716.123 220C715.423 222.4 714.823 224.7 714.423 227.2Z" fill="#0066CF"/>
<path d="M718.223 180.2C718.823 184.3 720.023 188.4 721.223 192.3C722.523 196.3 724.023 200.1 725.623 204C727.323 207.8 729.123 211.6 731.123 215.2C733.223 218.8 735.423 222.4 738.323 225.4C736.223 221.8 734.523 218.1 732.823 214.3C732.023 212.4 731.123 210.6 730.323 208.7C729.523 206.8 728.623 204.9 727.823 203C726.123 199.2 724.623 195.4 722.923 191.6L718.223 180.2Z" fill="#0066CF"/>
<path d="M739.923 325.6C736.623 323.3 733.323 321.1 730.023 318.8C726.723 316.6 723.523 314.3 720.223 312C717.023 309.7 713.823 307.4 710.623 305.1C707.423 302.8 704.223 300.4 700.923 298.1C703.523 301.2 706.323 304 709.323 306.7C712.323 309.4 715.523 311.8 718.723 314.2C722.023 316.5 725.423 318.7 728.923 320.6C732.523 322.5 736.123 324.2 739.923 325.6Z" fill="#0066CF"/>
<path d="M727.823 334.8C725.823 332.5 723.823 330.2 721.823 328C719.823 325.7 717.823 323.5 715.823 321.2C713.823 318.9 711.923 316.6 709.923 314.3C708.023 312 706.023 309.7 704.023 307.4C705.223 310.2 706.723 312.9 708.323 315.5C710.023 318.1 711.823 320.5 713.823 322.8C715.823 325.1 718.023 327.3 720.323 329.3C722.723 331.4 725.223 333.2 727.823 334.8Z" fill="#0066CF"/>
<path d="M616.723 236.4C622.823 242.5 632.623 242.4 638.623 236.4L733.423 141.5C733.923 141 733.923 140.3 733.423 139.8L713.223 119.6C712.723 119.1 712.023 119.1 711.523 119.6L616.723 214.5C610.623 220.6 610.623 230.4 616.723 236.4Z" fill="#0066CF"/>
<path d="M618.723 234.4C623.223 238.9 630.623 238.9 635.123 234.4L730.823 138.5C731.123 138.2 731.123 137.6 730.823 137.3L715.623 122.1C715.323 121.8 714.723 121.8 714.423 122.1L618.723 218C614.223 222.5 614.223 229.9 618.723 234.4Z" fill="#00ADFF"/>
<path d="M620.723 232.4C624.423 236.1 630.423 236.1 634.023 232.4L729.423 136.9C729.723 136.6 729.723 136.1 729.423 135.9L717.123 123.6C716.823 123.3 716.323 123.3 716.123 123.6L620.823 219.1C617.023 222.7 617.023 228.7 620.723 232.4Z" fill="#FF2136"/>
<g opacity="0.3">
<path opacity="0.3" d="M704.823 142.8L721.923 125.6L727.123 130.8L710.023 148C708.823 149.2 706.623 149 705.223 147.6C703.823 146.2 703.623 144 704.823 142.8Z" fill="white"/>
<path opacity="0.3" d="M649.923 209.1L630.323 228.7C628.923 230.1 626.523 230.1 624.823 228.6C622.823 226.9 622.523 224.1 624.023 222.6L643.723 202.8C645.123 201.4 647.723 201.6 649.423 203.3C651.123 205.1 651.423 207.7 649.923 209.1Z" fill="white"/>
</g>
<path d="M656.623 205.5L701.123 160.9C703.623 158.4 703.623 154.3 701.123 151.8C698.623 149.3 694.523 149.3 692.023 151.8L647.523 196.4C645.023 198.9 645.023 203 647.523 205.5C650.123 208 654.123 208 656.623 205.5Z" fill="white"/>
<path d="M692.275 161.02C693.006 161.597 693.754 161.86 694.518 161.808C695.277 161.756 695.993 161.393 696.667 160.719C697.397 159.987 697.72 159.139 697.637 158.173C697.552 157.211 697.069 156.291 696.191 155.414L695.596 154.819C695.02 154.245 694.412 153.842 693.772 153.61C693.129 153.381 692.503 153.339 691.895 153.484C691.283 153.627 690.73 153.946 690.234 154.442C689.578 155.099 689.236 155.81 689.208 156.575C689.178 157.337 689.454 158.074 690.038 158.787L690.858 157.967C690.435 157.404 690.232 156.893 690.249 156.434C690.263 155.978 690.482 155.537 690.906 155.112C691.427 154.591 692.028 154.374 692.711 154.461C693.391 154.551 694.086 154.951 694.798 155.661L695.397 156.26C696.069 156.93 696.463 157.604 696.58 158.28C696.696 158.957 696.503 159.548 695.999 160.052C695.547 160.506 695.098 160.751 694.653 160.788C694.203 160.826 693.683 160.629 693.094 160.199L692.275 161.02ZM685.474 165.97C686.08 166.576 686.712 167.003 687.369 167.251C688.024 167.497 688.657 167.552 689.268 167.415C689.88 167.279 690.435 166.961 690.933 166.462C691.419 165.975 691.732 165.424 691.87 164.809C692.006 164.192 691.957 163.557 691.724 162.906C691.486 162.255 691.077 161.635 690.499 161.047L690.053 160.601C689.458 160.007 688.828 159.585 688.166 159.337C687.503 159.088 686.863 159.032 686.245 159.169C685.623 159.305 685.068 159.617 684.581 160.105C684.086 160.601 683.771 161.157 683.635 161.775C683.494 162.392 683.55 163.031 683.803 163.69C684.052 164.347 684.479 164.977 685.083 165.58L685.474 165.97ZM685.885 164.759C685.151 164.026 684.735 163.317 684.638 162.632C684.539 161.944 684.753 161.335 685.283 160.805C685.798 160.289 686.401 160.079 687.092 160.175C687.777 160.27 688.473 160.662 689.178 161.349L689.633 161.804C690.345 162.514 690.756 163.221 690.867 163.926C690.972 164.632 690.763 165.246 690.24 165.771C689.713 166.298 689.115 166.515 688.443 166.422C687.769 166.326 687.07 165.925 686.344 165.217L685.885 164.759ZM684.11 170.958L677.239 167.629L676.347 168.522L684.829 172.406L685.551 171.683L681.648 163.212L680.761 164.101L684.11 170.958ZM680.831 176.411L681.646 175.595L675.456 169.415L674.641 170.231L680.831 176.411ZM679.337 177.907L673.147 171.728L671.403 173.475C670.865 174.014 670.509 174.609 670.334 175.26C670.159 175.912 670.179 176.569 670.395 177.231C670.608 177.896 670.998 178.515 671.565 179.086L671.96 179.481C672.544 180.064 673.169 180.461 673.834 180.673C674.497 180.888 675.156 180.903 675.81 180.718C676.461 180.536 677.067 180.171 677.627 179.621L679.337 177.907ZM673.004 173.215L677.855 178.057L676.998 178.916C676.369 179.545 675.686 179.839 674.947 179.797C674.205 179.758 673.472 179.378 672.75 178.656L672.388 178.296C671.685 177.594 671.305 176.883 671.248 176.164C671.185 175.445 671.454 174.779 672.053 174.167L673.004 173.215Z" fill="#003E82"/>
<path d="M735.723 146.5L749.023 133.3C750.223 132.1 750.223 130.1 749.023 128.9L724.223 104.1C723.023 102.9 721.023 102.9 719.823 104.1L706.523 117.3C705.323 118.5 705.323 120.5 706.523 121.7L731.323 146.5C732.623 147.7 734.523 147.7 735.723 146.5Z" fill="#004C9C"/>
<path d="M709.223 120.5C709.523 120.5 709.823 120.4 710.123 120.1L722.723 107.5C723.223 107 723.223 106.2 722.723 105.7C722.223 105.2 721.423 105.2 720.923 105.7L708.323 118.3C707.823 118.8 707.823 119.6 708.323 120.1C708.523 120.4 708.823 120.5 709.223 120.5Z" fill="#0066CF"/>
<path d="M711.623 122.9C711.923 122.9 712.223 122.8 712.523 122.5L725.123 109.9C725.623 109.4 725.623 108.6 725.123 108.1C724.623 107.6 723.823 107.6 723.323 108.1L710.723 120.7C710.223 121.2 710.223 122 710.723 122.5C711.023 122.8 711.323 122.9 711.623 122.9Z" fill="#0066CF"/>
<path d="M714.123 125.4C714.423 125.4 714.723 125.3 715.023 125L727.623 112.4C728.123 111.9 728.123 111.1 727.623 110.6C727.123 110.1 726.323 110.1 725.823 110.6L713.223 123.2C712.723 123.7 712.723 124.5 713.223 125C713.423 125.3 713.823 125.4 714.123 125.4Z" fill="#0066CF"/>
<path d="M716.623 127.9C716.923 127.9 717.223 127.8 717.523 127.5L730.023 114.9C730.523 114.4 730.523 113.6 730.023 113.1C729.523 112.6 728.723 112.6 728.223 113.1L715.623 125.7C715.123 126.2 715.123 127 715.623 127.5C715.923 127.8 716.223 127.9 716.623 127.9Z" fill="#0066CF"/>
<path d="M719.023 130.3C719.323 130.3 719.623 130.2 719.923 129.9L732.523 117.4C733.023 116.9 733.023 116.1 732.523 115.6C732.023 115.1 731.223 115.1 730.723 115.6L718.123 128.2C717.623 128.7 717.623 129.5 718.123 130C718.423 130.2 718.723 130.3 719.023 130.3Z" fill="#0066CF"/>
<path d="M721.523 132.8C721.823 132.8 722.123 132.7 722.423 132.4L734.923 119.9C735.423 119.4 735.423 118.6 734.923 118.1C734.423 117.6 733.623 117.6 733.123 118.1L720.523 130.7C720.023 131.2 720.023 132 720.523 132.5C720.823 132.7 721.223 132.8 721.523 132.8Z" fill="#0066CF"/>
<path d="M723.923 135.3C724.223 135.3 724.523 135.2 724.823 134.9L737.423 122.3C737.923 121.8 737.923 121 737.423 120.5C736.923 120 736.123 120 735.623 120.5L723.023 133.1C722.523 133.6 722.523 134.4 723.023 134.9C723.323 135.2 723.623 135.3 723.923 135.3Z" fill="#0066CF"/>
<path d="M726.423 137.7C726.723 137.7 727.023 137.6 727.323 137.3L739.923 124.7C740.423 124.2 740.423 123.4 739.923 122.9C739.423 122.4 738.623 122.4 738.123 122.9L725.523 135.5C725.023 136 725.023 136.8 725.523 137.3C725.823 137.6 726.123 137.7 726.423 137.7Z" fill="#0066CF"/>
<path d="M728.923 140.2C729.223 140.2 729.523 140.1 729.823 139.8L742.423 127.2C742.923 126.7 742.923 125.9 742.423 125.4C741.923 124.9 741.123 124.9 740.623 125.4L728.023 138C727.523 138.5 727.523 139.3 728.023 139.8C728.223 140.1 728.623 140.2 728.923 140.2Z" fill="#0066CF"/>
<path d="M731.323 142.7C731.623 142.7 731.923 142.6 732.223 142.3L744.823 129.7C745.323 129.2 745.323 128.4 744.823 127.9C744.323 127.4 743.523 127.4 743.023 127.9L730.423 140.5C729.923 141 729.923 141.8 730.423 142.3C730.723 142.6 731.023 142.7 731.323 142.7Z" fill="#0066CF"/>
<path d="M733.823 145.1C734.123 145.1 734.423 145 734.723 144.7L747.323 132.1C747.823 131.6 747.823 130.8 747.323 130.3C746.823 129.8 746.023 129.8 745.523 130.3L732.923 142.9C732.423 143.4 732.423 144.2 732.923 144.7C733.223 145 733.523 145.1 733.823 145.1Z" fill="#0066CF"/>
<path d="M647.023 181.1C659.423 176.9 696.323 210 709.623 222.5L681.123 272.9C667.123 251.1 648.923 220.1 643.523 197.9C642.123 192 641.223 183.1 647.023 181.1Z" fill="#00ADFF"/>
<path d="M694.923 379.3C696.423 372.7 697.623 366 698.523 359.3C699.423 352.6 700.123 345.9 700.623 339.1C701.023 332.3 701.223 325.6 701.123 318.8C701.023 312 700.623 305.2 699.623 298.5V298.3L699.523 298.1C687.823 281.4 676.623 264.2 666.523 246.4C661.523 237.5 656.723 228.5 652.523 219.2C650.423 214.6 648.523 209.8 646.923 205C645.323 200.2 643.823 195.3 643.723 190.4C643.723 188 644.023 185.5 645.323 183.8C646.023 183 646.823 182.4 647.923 182.1C649.023 181.8 650.223 181.7 651.323 181.7C653.723 181.8 656.023 182.6 658.323 183.6C660.623 184.6 662.823 185.8 664.923 187.2C669.223 189.9 673.223 193 677.323 196.1C681.423 199.1 685.423 202.3 689.423 205.5C693.423 208.7 697.223 212.1 701.123 215.4C704.923 218.8 708.823 222.2 712.523 225.7C719.823 232.8 726.923 240.2 734.023 247.6C727.223 240 720.223 232.4 713.023 225.1C705.723 217.9 698.223 210.9 690.423 204.3C686.523 201 682.523 197.8 678.423 194.7C674.423 191.6 670.423 188.3 666.023 185.5C663.823 184.1 661.623 182.8 659.223 181.7C656.823 180.6 654.223 179.8 651.523 179.6C650.123 179.5 648.723 179.6 647.323 180C645.923 180.3 644.523 181.2 643.623 182.4C642.723 183.6 642.223 185 641.923 186.3C641.623 187.7 641.523 189 641.623 190.4C641.723 193.1 642.123 195.7 642.723 198.2L643.723 202L644.823 205.7C646.423 210.6 648.423 215.4 650.423 220.1C652.523 224.8 654.723 229.4 657.123 234C659.523 238.6 662.023 243.1 664.523 247.5C669.623 256.4 675.023 265.1 680.623 273.7C683.423 278 686.223 282.3 689.123 286.5C692.023 290.7 694.923 294.9 698.023 299.1L697.823 298.7C698.923 305.3 699.423 312 699.623 318.7C699.823 325.4 699.723 332.2 699.423 338.9C699.123 345.6 698.623 352.4 697.923 359.1C697.023 365.9 696.123 372.6 694.923 379.3Z" fill="#0066CF"/>
<path d="M801.223 243.2C798.959 243.2 797.123 241.364 797.123 239.1C797.123 236.836 798.959 235 801.223 235C803.488 235 805.323 236.836 805.323 239.1C805.323 241.364 803.488 243.2 801.223 243.2Z" fill="#0066CF"/>
<path d="M818.123 341.9C815.859 341.9 814.023 340.064 814.023 337.8C814.023 335.536 815.859 333.7 818.123 333.7C820.388 333.7 822.223 335.536 822.223 337.8C822.223 340.064 820.388 341.9 818.123 341.9Z" fill="#0066CF"/>
<path d="M549.923 276.9C547.659 276.9 545.823 275.064 545.823 272.8C545.823 270.536 547.659 268.7 549.923 268.7C552.188 268.7 554.023 270.536 554.023 272.8C554.023 275.064 552.188 276.9 549.923 276.9Z" fill="#0066CF"/>
<path d="M752.723 104.4C750.293 104.4 748.323 102.43 748.323 100C748.323 97.57 750.293 95.6 752.723 95.6C755.153 95.6 757.123 97.57 757.123 100C757.123 102.43 755.153 104.4 752.723 104.4Z" fill="white"/>
<path d="M583.123 232.5C579.147 232.5 575.923 229.276 575.923 225.3C575.923 221.324 579.147 218.1 583.123 218.1C587.1 218.1 590.323 221.324 590.323 225.3C590.323 229.276 587.1 232.5 583.123 232.5Z" fill="#7FCCFF"/>
<path d="M847.523 205C848.723 205 849.623 204 849.623 202.8C849.623 201.6 848.623 200.7 847.423 200.7C846.223 200.7 845.323 201.7 845.323 202.9C845.323 204.1 846.323 205 847.523 205Z" fill="#0066CF"/>
<path d="M634.423 155.6C635.623 155.6 636.523 154.6 636.523 153.4C636.523 152.2 635.523 151.3 634.323 151.3C633.123 151.3 632.223 152.3 632.223 153.5C632.223 154.7 633.223 155.7 634.423 155.6Z" fill="#0066CF"/>
<path d="M831.223 298.9C825.259 298.9 820.423 294.065 820.423 288.1C820.423 282.135 825.259 277.3 831.223 277.3C837.188 277.3 842.023 282.135 842.023 288.1C842.023 294.065 837.188 298.9 831.223 298.9Z" fill="#D1ECFF"/>
<path d="M845.023 287.3H847.723V288.8H845.023L840.823 290.8V285.3L845.023 287.3Z" fill="#D1ECFF"/>
<path d="M850.123 285.4C848.623 285.4 847.423 286.6 847.423 288.1C847.423 289.6 848.623 290.8 850.123 290.8C851.623 290.8 852.823 289.6 852.823 288.1C852.723 286.6 851.623 285.4 850.123 285.4Z" fill="#D1ECFF"/>
<path d="M817.323 287.3L821.623 285.3V290.8L817.323 288.8H814.723V287.3H817.323Z" fill="#D1ECFF"/>
<path d="M812.323 290.7C813.823 290.7 815.023 289.5 815.023 288C815.023 286.5 813.823 285.3 812.323 285.3C810.823 285.3 809.623 286.5 809.623 288C809.623 289.5 810.823 290.7 812.323 290.7Z" fill="#D1ECFF"/>
<path d="M831.223 295.8C826.971 295.8 823.523 292.353 823.523 288.1C823.523 283.847 826.971 280.4 831.223 280.4C835.476 280.4 838.923 283.847 838.923 288.1C838.923 292.353 835.476 295.8 831.223 295.8Z" fill="#D1ECFF"/>
<path d="M830.523 274.2V271.6H831.923V274.2L833.923 278.4H828.423L830.523 274.2Z" fill="#D1ECFF"/>
<path d="M828.523 269.2C828.523 270.7 829.723 271.9 831.223 271.9C832.723 271.9 833.923 270.7 833.923 269.2C833.923 267.7 832.723 266.5 831.223 266.5C829.723 266.5 828.523 267.7 828.523 269.2Z" fill="#D1ECFF"/>
<path d="M833.923 297.7L831.923 301.9V304.6H830.523V301.9L828.423 297.7H833.923Z" fill="#D1ECFF"/>
<path d="M831.223 309.7C829.732 309.7 828.523 308.491 828.523 307C828.523 305.509 829.732 304.3 831.223 304.3C832.715 304.3 833.923 305.509 833.923 307C833.923 308.491 832.715 309.7 831.223 309.7Z" fill="#D1ECFF"/>
<path d="M840.223 278.2L841.823 276.6L842.723 277.4L841.123 279L839.823 282.7L836.523 279.5L840.223 278.2Z" fill="#D1ECFF"/>
<path d="M843.723 277.8C842.508 277.8 841.523 276.815 841.523 275.6C841.523 274.385 842.508 273.4 843.723 273.4C844.938 273.4 845.923 274.385 845.923 275.6C845.923 276.815 844.938 277.8 843.723 277.8Z" fill="#D1ECFF"/>
<path d="M819.723 298.7L821.323 297.1L822.623 293.4L825.923 296.7L822.223 298L820.623 299.5L819.723 298.7Z" fill="#D1ECFF"/>
<path d="M818.723 302.7C817.508 302.7 816.523 301.715 816.523 300.5C816.523 299.285 817.508 298.3 818.723 298.3C819.938 298.3 820.923 299.285 820.923 300.5C820.923 301.715 819.938 302.7 818.723 302.7Z" fill="#D1ECFF"/>
<path d="M819.723 277.4L820.623 276.6L822.223 278.2L825.923 279.5L822.623 282.7L821.323 279L819.723 277.4Z" fill="#D1ECFF"/>
<path d="M818.723 277.8C817.508 277.8 816.523 276.815 816.523 275.6C816.523 274.385 817.508 273.4 818.723 273.4C819.938 273.4 820.923 274.385 820.923 275.6C820.923 276.815 819.938 277.8 818.723 277.8Z" fill="#D1ECFF"/>
<path d="M836.523 296.7L839.823 293.4L841.123 297.1L842.723 298.7L841.823 299.5L840.223 298L836.523 296.7Z" fill="#D1ECFF"/>
<path d="M843.723 302.7C842.508 302.7 841.523 301.715 841.523 300.5C841.523 299.285 842.508 298.3 843.723 298.3C844.938 298.3 845.923 299.285 845.923 300.5C845.923 301.715 844.938 302.7 843.723 302.7Z" fill="#D1ECFF"/>
<path d="M815.423 145.8C807.525 145.8 801.123 139.398 801.123 131.5C801.123 123.602 807.525 117.2 815.423 117.2C823.321 117.2 829.723 123.602 829.723 131.5C829.723 139.398 823.321 145.8 815.423 145.8Z" fill="#0066CF"/>
<path d="M833.523 129.2L837.023 128.9L837.223 130.9L833.723 131.1L828.323 134.2L827.823 126.9L833.523 129.2Z" fill="#0066CF"/>
<path d="M839.223 125.4C836.823 125.6 835.123 127.6 835.223 130C835.423 132.4 837.423 134.1 839.823 134C842.223 133.8 843.923 131.8 843.823 129.4C843.623 127 841.523 125.3 839.223 125.4Z" fill="#0066CF"/>
<path d="M797.123 131.9L802.523 128.8L803.023 136.1L797.223 133.9L793.723 134.1L793.623 132.2L797.123 131.9Z" fill="#0066CF"/>
<path d="M790.523 136.9C788.59 136.9 787.023 135.333 787.023 133.4C787.023 131.467 788.59 129.9 790.523 129.9C792.456 129.9 794.023 131.467 794.023 133.4C794.023 135.333 792.456 136.9 790.523 136.9Z" fill="#0066CF"/>
<path d="M815.423 141.6C809.845 141.6 805.323 137.078 805.323 131.5C805.323 125.922 809.845 121.4 815.423 121.4C821.001 121.4 825.523 125.922 825.523 131.5C825.523 137.078 821.001 141.6 815.423 141.6Z" fill="#00ADFF"/>
<path d="M817.123 137.9C814.969 137.9 813.223 136.154 813.223 134C813.223 131.846 814.969 130.1 817.123 130.1C819.277 130.1 821.023 131.846 821.023 134C821.023 136.154 819.277 137.9 817.123 137.9Z" fill="#0066CF"/>
<path d="M811.523 124.6C812.423 123.7 813.823 123.7 814.723 124.6C815.623 125.5 815.623 126.9 814.723 127.8C813.823 128.7 812.423 128.7 811.523 127.8C810.723 127 810.723 125.5 811.523 124.6Z" fill="#0066CF"/>
<path d="M816.223 113.2L816.523 109.7L818.523 109.9L818.123 113.4L820.223 119.3L812.923 118.5L816.223 113.2Z" fill="#0066CF"/>
<path d="M813.323 105C813.023 107.6 814.923 109.9 817.523 110.2C820.123 110.5 822.423 108.6 822.723 106C823.023 103.4 821.123 101.1 818.523 100.8C815.823 100.5 813.523 102.4 813.323 105Z" fill="#0066CF"/>
<path d="M817.623 144.5L814.423 149.8L814.023 153.3L812.123 153.1L812.423 149.6L810.323 143.8L817.623 144.5Z" fill="#0066CF"/>
<path d="M816.223 156.7C816.423 154.8 815.023 153 813.123 152.8C811.223 152.6 809.423 154 809.223 155.9C809.023 157.8 810.423 159.6 812.323 159.8C814.323 160 816.023 158.6 816.223 156.7Z" fill="#0066CF"/>
<path d="M828.523 119.7L830.823 117.8L831.923 119.1L829.623 121L827.423 125.7L823.523 121L828.523 119.7Z" fill="#0066CF"/>
<path d="M831.523 114.5C830.223 115.5 830.123 117.4 831.123 118.7C832.123 120 834.023 120.1 835.323 119.1C836.623 118.1 836.723 116.2 835.723 114.9C834.623 113.6 832.823 113.5 831.523 114.5Z" fill="#0066CF"/>
<path d="M799.023 144.1L801.323 142.2L803.523 137.5L807.323 142.2L802.323 143.5L800.023 145.3L799.023 144.1Z" fill="#0066CF"/>
<path d="M800.023 149.2C801.723 147.8 802.023 145.2 800.523 143.5C799.123 141.8 796.523 141.5 794.823 143C793.123 144.4 792.823 147 794.323 148.7C795.723 150.4 798.223 150.6 800.023 149.2Z" fill="#0066CF"/>
<path d="M800.323 117.4L801.523 116.3L803.523 118.4L808.423 120.1L804.123 124.4L802.423 119.5L800.323 117.4Z" fill="#0066CF"/>
<path d="M796.923 117.1C798.023 118.3 799.923 118.3 801.123 117.1C802.323 116 802.323 114.1 801.123 112.9C800.023 111.7 798.123 111.7 796.923 112.9C795.823 114 795.823 115.9 796.923 117.1Z" fill="#0066CF"/>
<path d="M822.423 142.9L826.723 138.6L828.423 143.5L830.523 145.6L829.323 146.8L827.223 144.7L822.423 142.9Z" fill="#0066CF"/>
<path d="M833.923 146C832.823 144.8 830.923 144.8 829.723 146C828.523 147.1 828.523 149 829.723 150.2C830.823 151.4 832.723 151.4 833.923 150.2C835.023 149 835.023 147.2 833.923 146Z" fill="#0066CF"/>
<path d="M815.423 175.7C839.823 175.7 859.623 155.9 859.623 131.5C859.623 107.1 839.823 87.3 815.423 87.3C791.023 87.3 771.223 107.1 771.223 131.5C771.223 155.9 791.023 175.7 815.423 175.7ZM815.423 88.2C839.323 88.2 858.723 107.6 858.723 131.5C858.723 155.4 839.323 174.8 815.423 174.8C791.523 174.8 772.123 155.4 772.123 131.5C772.123 107.6 791.523 88.2 815.423 88.2Z" fill="white"/>
<path d="M607.623 359.4C594.866 359.4 584.523 349.058 584.523 336.3C584.523 323.542 594.866 313.2 607.623 313.2C620.381 313.2 630.723 323.542 630.723 336.3C630.723 349.058 620.381 359.4 607.623 359.4Z" fill="#0066CF"/>
<path d="M629.515 308.672L631.859 310.7L626.493 316.9L624.149 314.872L629.515 308.672Z" fill="#0066CF"/>
<path d="M616.623 317L625.523 324.7L628.123 315L625.823 313L616.623 317Z" fill="#0066CF"/>
<path d="M628.423 302.4C626.123 305.1 626.423 309.2 629.123 311.5C631.823 313.8 635.923 313.5 638.223 310.8C640.523 308.1 640.223 304 637.523 301.7C634.823 299.4 630.823 299.7 628.423 302.4Z" fill="#0066CF"/>
<path d="M585.743 364.006L583.399 361.977L588.765 355.777L591.109 357.806L585.743 364.006Z" fill="#0066CF"/>
<path d="M598.723 355.7L589.823 348L587.123 357.6L589.523 359.7L598.723 355.7Z" fill="#0066CF"/>
<path d="M575.58 367.077C575.419 363.933 577.838 361.255 580.981 361.094C584.125 360.934 586.804 363.352 586.965 366.496C587.125 369.64 584.707 372.319 581.563 372.479C578.419 372.64 575.74 370.221 575.58 367.077Z" fill="#0066CF"/>
<path d="M607.623 352.7C598.566 352.7 591.223 345.357 591.223 336.3C591.223 327.243 598.566 319.9 607.623 319.9C616.681 319.9 624.023 327.243 624.023 336.3C624.023 345.357 616.681 352.7 607.623 352.7Z" fill="#00ADFF"/>
<path d="M612.223 324.3C614.623 324.3 616.623 326.3 616.623 328.7C616.623 331.1 614.623 333.1 612.223 333.1C609.823 333.1 607.823 331.1 607.823 328.7C607.823 326.3 609.823 324.3 612.223 324.3Z" fill="#0066CF"/>
<path d="M612.223 339.5C614.623 339.5 616.623 341.5 616.623 343.9C616.623 346.3 614.623 348.3 612.223 348.3C609.823 348.3 607.823 346.3 607.823 343.9C607.823 341.5 609.823 339.5 612.223 339.5Z" fill="#0066CF"/>
<path d="M601.823 330.4C605.123 330.4 607.723 333.1 607.723 336.3C607.723 339.5 605.023 342.2 601.823 342.2C598.523 342.2 595.923 339.5 595.923 336.3C595.923 333.1 598.523 330.4 601.823 330.4Z" fill="#0066CF"/>
<path d="M583.819 310.269L586.197 308.281L591.457 314.571L589.079 316.56L583.819 310.269Z" fill="#0066CF"/>
<path d="M590.023 324.4L599.023 316.8L589.923 312.7L587.523 314.7L590.023 324.4Z" fill="#0066CF"/>
<path d="M577.723 311.3C580.223 314.3 584.723 314.7 587.723 312.2C590.723 309.7 591.123 305.2 588.623 302.2C586.123 299.2 581.623 298.8 578.623 301.3C575.623 303.9 575.223 308.3 577.723 311.3Z" fill="#0066CF"/>
<path d="M631.421 362.323L629.043 364.312L623.782 358.021L626.16 356.033L631.421 362.323Z" fill="#0066CF"/>
<path d="M625.323 348.3L616.323 355.8L625.423 360L627.823 358L625.323 348.3Z" fill="#0066CF"/>
<path d="M627.995 370.962C625.527 368.355 625.64 364.241 628.247 361.773C630.854 359.305 634.968 359.417 637.436 362.024C639.904 364.631 639.791 368.745 637.184 371.213C634.578 373.681 630.463 373.569 627.995 370.962Z" fill="#0066CF"/>
<path d="M608.334 302.928L610.93 303.084L610.516 309.971L607.92 309.815L608.334 302.928Z" fill="#0066CF"/>
<path d="M604.023 315.1L613.823 315.7L610.723 307.9L608.023 307.7L604.023 315.1Z" fill="#0066CF"/>
<path d="M604.723 299.3C604.523 302.1 606.723 304.6 609.523 304.8C612.323 305 614.823 302.8 615.023 300C615.223 297.2 613.023 294.7 610.223 294.5C607.423 294.3 604.923 296.5 604.723 299.3Z" fill="#0066CF"/>
<path d="M606.898 369.696L604.302 369.54L604.716 362.653L607.311 362.808L606.898 369.696Z" fill="#0066CF"/>
<path d="M611.323 357.6L601.523 357L604.623 364.8L607.223 364.9L611.323 357.6Z" fill="#0066CF"/>
<path d="M611.323 373.1C611.523 369.8 609.023 367 605.823 366.8C602.623 366.6 599.723 369.1 599.523 372.3C599.323 375.6 601.823 378.4 605.023 378.6C608.323 378.8 611.123 376.4 611.323 373.1Z" fill="#0066CF"/>
<path d="M574.781 342.309L574.419 339.734L581.252 338.773L581.614 341.348L574.781 342.309Z" fill="#0066CF"/>
<path d="M587.523 344.1L586.123 334.4L579.123 339L579.523 341.6L587.523 344.1Z" fill="#0066CF"/>
<path d="M571.023 346.3C573.623 345.9 575.423 343.5 575.123 340.9C574.723 338.3 572.323 336.5 569.723 336.8C567.123 337.2 565.323 339.6 565.623 342.2C566.023 344.8 568.423 346.7 571.023 346.3Z" fill="#0066CF"/>
<path d="M640.48 330.37L640.842 332.944L634.008 333.905L633.647 331.33L640.48 330.37Z" fill="#0066CF"/>
<path d="M627.723 328.5L629.123 338.3L636.123 333.7L635.723 331L627.723 328.5Z" fill="#0066CF"/>
<path d="M645.023 325.4C641.923 325.8 639.723 328.7 640.223 331.8C640.623 334.9 643.523 337.1 646.623 336.6C649.723 336.2 651.923 333.3 651.423 330.2C651.023 327.2 648.123 325 645.023 325.4Z" fill="#0066CF"/>
<path d="M607.623 401.2C643.423 401.2 672.423 372.1 672.423 336.4C672.423 300.7 643.323 271.6 607.623 271.6C571.923 271.6 542.823 300.7 542.823 336.4C542.823 372.1 571.923 401.2 607.623 401.2ZM607.623 272.4C642.823 272.4 671.523 301.1 671.523 336.3C671.523 371.5 642.823 400.2 607.623 400.2C572.423 400.2 543.723 371.5 543.723 336.3C543.723 301.1 572.423 272.4 607.623 272.4Z" fill="white"/>
<path d="M659.023 131.7C684.123 131.7 704.523 111.3 704.523 86.2C704.523 61.1 684.123 40.7 659.023 40.7C633.923 40.7 613.523 61.1 613.523 86.2C613.523 111.3 633.923 131.7 659.023 131.7ZM659.023 41.7C683.623 41.7 703.523 61.7 703.523 86.2C703.523 110.7 683.523 130.7 659.023 130.7C634.423 130.7 614.523 110.7 614.523 86.2C614.523 61.7 634.423 41.7 659.023 41.7Z" fill="#0066CF"/>
<path d="M659.023 100.5C651.126 100.5 644.723 94.0977 644.723 86.2C644.723 78.3024 651.126 71.9 659.023 71.9C666.921 71.9 673.323 78.3024 673.323 86.2C673.323 94.0977 666.921 100.5 659.023 100.5Z" fill="#0066CF"/>
<path d="M672.823 74.2L675.623 72L676.823 73.6L674.023 75.7L671.223 81.3L666.823 75.5L672.823 74.2Z" fill="#0066CF"/>
<path d="M676.623 68.1C675.123 69.3 674.823 71.5 676.023 73.1C677.223 74.6 679.423 74.9 681.023 73.7C682.523 72.5 682.823 70.3 681.623 68.7C680.323 67.1 678.123 66.9 676.623 68.1Z" fill="#0066CF"/>
<path d="M643.823 96.6L646.623 91L651.123 96.8L645.023 98.1L642.223 100.3L641.023 98.7L643.823 96.6Z" fill="#0066CF"/>
<path d="M640.523 103.8C638.59 103.8 637.023 102.233 637.023 100.3C637.023 98.367 638.59 96.8 640.523 96.8C642.456 96.8 644.023 98.367 644.023 100.3C644.023 102.233 642.456 103.8 640.523 103.8Z" fill="#0066CF"/>
<path d="M659.023 96.4C653.39 96.4 648.823 91.8333 648.823 86.2C648.823 80.5667 653.39 76 659.023 76C664.657 76 669.223 80.5667 669.223 86.2C669.223 91.8333 664.657 96.4 659.023 96.4Z" fill="#00ADFF"/>
<path d="M659.923 85.3C658.623 84 658.623 81.9 659.923 80.6C661.223 79.3 663.323 79.3 664.623 80.6C665.923 81.9 665.923 84 664.623 85.3C663.323 86.6 661.223 86.6 659.923 85.3Z" fill="#0066CF"/>
<path d="M653.323 91.9C652.023 90.6 652.023 88.5 653.323 87.2C654.623 85.9 656.723 85.9 658.023 87.2C659.323 88.5 659.323 90.6 658.023 91.9C656.723 93.2 654.623 93.2 653.323 91.9Z" fill="#0066CF"/>
<path d="M645.423 73.9L642.923 71.5L644.223 70.1L646.723 72.6L652.623 74.6L647.423 79.8L645.423 73.9Z" fill="#0066CF"/>
<path d="M641.323 72C639.39 72 637.823 70.433 637.823 68.5C637.823 66.567 639.39 65 641.323 65C643.256 65 644.823 66.567 644.823 68.5C644.823 70.433 643.256 72 641.323 72Z" fill="#0066CF"/>
<path d="M670.623 92.6L672.623 98.5L675.123 101L673.823 102.4L671.323 99.9L665.423 97.8L670.623 92.6Z" fill="#0066CF"/>
<path d="M676.723 107.4C674.79 107.4 673.223 105.833 673.223 103.9C673.223 101.967 674.79 100.4 676.723 100.4C678.656 100.4 680.223 101.967 680.223 103.9C680.223 105.833 678.656 107.4 676.723 107.4Z" fill="#0066CF"/>
<path d="M658.123 67.4V64.1H659.923V67.4L662.523 72.8H655.523L658.123 67.4Z" fill="#0066CF"/>
<path d="M659.023 64.3C656.814 64.3 655.023 62.5092 655.023 60.3C655.023 58.0909 656.814 56.3 659.023 56.3C661.232 56.3 663.023 58.0909 663.023 60.3C663.023 62.5092 661.232 64.3 659.023 64.3Z" fill="#0066CF"/>
<path d="M658.123 107.8V104.7L655.823 99.7H662.223L659.923 104.7V107.8H658.123Z" fill="#0066CF"/>
<path d="M662.123 110.6C662.123 108.9 660.723 107.5 659.023 107.5C657.323 107.5 655.923 108.9 655.923 110.6C655.923 112.3 657.323 113.7 659.023 113.7C660.723 113.7 662.123 112.4 662.123 110.6Z" fill="#0066CF"/>
<path d="M639.223 86.9V85.5H641.823L646.023 83.5V88.9L641.823 86.9H639.223Z" fill="#0066CF"/>
<path d="M638.223 88.5C636.953 88.5 635.923 87.4703 635.923 86.2C635.923 84.9297 636.953 83.9 638.223 83.9C639.493 83.9 640.523 84.9297 640.523 86.2C640.523 87.4703 639.493 88.5 638.223 88.5Z" fill="#0066CF"/>
<path d="M672.023 89.3V83.2L676.723 85.4H679.723V87H676.723L672.023 89.3Z" fill="#0066CF"/>
<path d="M680.923 81.8C678.523 81.8 676.523 83.8 676.523 86.2C676.523 88.6 678.523 90.6 680.923 90.6C683.323 90.6 685.323 88.6 685.323 86.2C685.323 83.8 683.323 81.8 680.923 81.8Z" fill="#0066CF"/>
</svg>
