<svg width="25" height="25" viewBox="0 0 25 25" fill="none" xmlns="http://www.w3.org/2000/svg">
<path d="M24.5833 7.5H24.1667V2.91667C24.1667 2.68656 23.9801 2.5 23.75 2.5H16.6667V0.416667C16.6667 0.186564 16.4801 0 16.25 0H8.75C8.5199 0 8.33333 0.186564 8.33333 0.416667V2.5H1.25C1.0199 2.5 0.833333 2.68656 0.833333 2.91667V7.5H0.416667C0.186564 7.5 0 7.68656 0 7.91667V9.58333C0 9.81344 0.186564 10 0.416667 10H0.833333V24.5833C0.833333 24.8134 1.0199 25 1.25 25H23.75C23.9801 25 24.1667 24.8134 24.1667 24.5833V10H24.5833C24.8134 10 25 9.81344 25 9.58333V7.91667C25 7.68656 24.8134 7.5 24.5833 7.5ZM16.6667 3.33333H23.3333V7.5H16.6667V3.33333ZM9.16667 0.833333H15.8333V7.5H9.16667V0.833333ZM1.66667 3.33333H8.33333V7.5H1.66667V3.33333ZM20.4167 24.1667H15V20.8333H20.4167V24.1667ZM20.4167 20H15V15.8333H20.4167V20ZM20.4167 15H15V12.9167H20.4167V15ZM23.3333 24.1667H21.25V12.5C21.25 12.2699 21.0634 12.0833 20.8333 12.0833H14.5833C14.3532 12.0833 14.1667 12.2699 14.1667 12.5V24.1667H1.66667V10H23.3333V24.1667ZM24.1667 9.16667H0.833333V8.33333H24.1667V9.16667Z" fill="#FF4178"/>
<path d="M4.16667 21.25H11.6667C11.8968 21.25 12.0833 21.0634 12.0833 20.8333V18.75C12.0833 18.5199 11.8968 18.3333 11.6667 18.3333H11.25V12.5C11.25 12.2699 11.0634 12.0833 10.8333 12.0833H5C4.7699 12.0833 4.58333 12.2699 4.58333 12.5V18.3333H4.16667C3.93656 18.3333 3.75 18.5199 3.75 18.75V20.8333C3.75 21.0634 3.93656 21.25 4.16667 21.25ZM5.41667 12.9166H10.4167V18.3333H5.41667V12.9166ZM4.58333 19.1666H11.25V20.4166H4.58333V19.1666Z" fill="#FF4178"/>
<path d="M19.1667 18.3333C19.3968 18.3333 19.5833 18.1467 19.5833 17.9166V17.5C19.5833 17.2699 19.3968 17.0833 19.1667 17.0833C18.9366 17.0833 18.75 17.2699 18.75 17.5V17.9166C18.75 18.1467 18.9366 18.3333 19.1667 18.3333Z" fill="#FF4178"/>
<path d="M14.5833 2.91669H13.75V2.08335C13.75 1.85325 13.5634 1.66669 13.3333 1.66669H11.6667C11.4366 1.66669 11.25 1.85325 11.25 2.08335V2.91669H10.4167C10.1866 2.91669 10 3.10325 10 3.33335V5.00002C10 5.23012 10.1866 5.41669 10.4167 5.41669H11.25V6.25002C11.25 6.48012 11.4366 6.66669 11.6667 6.66669H13.3333C13.5634 6.66669 13.75 6.48012 13.75 6.25002V5.41669H14.5833C14.8134 5.41669 15 5.23012 15 5.00002V3.33335C15 3.10325 14.8134 2.91669 14.5833 2.91669ZM14.1667 4.58335H13.3333C13.1032 4.58335 12.9167 4.76992 12.9167 5.00002V5.83335H12.0833V5.00002C12.0833 4.76992 11.8968 4.58335 11.6667 4.58335H10.8333V3.75002H11.6667C11.8968 3.75002 12.0833 3.56346 12.0833 3.33335V2.50002H12.9167V3.33335C12.9167 3.56346 13.1032 3.75002 13.3333 3.75002H14.1667V4.58335Z" fill="#FF4178"/>
<path d="M6.96099 15.7112L8.21099 14.4612C8.36887 14.2976 8.36663 14.0378 8.2059 13.8771C8.04518 13.7164 7.78537 13.7141 7.6218 13.872L6.3718 15.122C6.26356 15.2266 6.22002 15.3816 6.25827 15.5273C6.29632 15.673 6.41005 15.7867 6.55572 15.8247C6.70139 15.863 6.85642 15.8194 6.96099 15.7112Z" fill="#FF4178"/>
<path d="M8.87212 14.7054L6.78879 16.7887C6.68055 16.8933 6.63701 17.0483 6.67526 17.194C6.71331 17.3397 6.82704 17.4534 6.97271 17.4914C7.11838 17.5297 7.27341 17.4861 7.37798 17.3779L9.46131 15.2946C9.61919 15.131 9.61695 14.8712 9.45623 14.7105C9.2955 14.5497 9.0357 14.5475 8.87212 14.7054Z" fill="#FF4178"/>
</svg>
