<svg width="41" height="41" viewBox="0 0 41 41" fill="none" xmlns="http://www.w3.org/2000/svg">
<circle cx="20.5" cy="20.5" r="20.5" fill="#FF4178"/>
<path d="M20.9859 25.997C20.686 25.9975 20.3954 25.893 20.1645 25.7014L12.4637 19.2761C12.2016 19.058 12.0367 18.7446 12.0054 18.4048C11.9741 18.065 12.079 17.7267 12.2968 17.4642C12.5147 17.2018 12.8277 17.0368 13.1671 17.0054C13.5065 16.9741 13.8444 17.079 14.1065 17.2972L20.9859 23.0542L27.8653 17.5028C27.9966 17.396 28.1476 17.3163 28.3098 17.2682C28.4719 17.2201 28.642 17.2046 28.8101 17.2225C28.9783 17.2404 29.1413 17.2914 29.2897 17.3726C29.4381 17.4538 29.569 17.5635 29.675 17.6955C29.7925 17.8277 29.8815 17.9827 29.9364 18.1509C29.9914 18.319 30.011 18.4968 29.9941 18.6729C29.9773 18.849 29.9243 19.0198 29.8384 19.1744C29.7526 19.3291 29.6358 19.4644 29.4953 19.5717L21.7945 25.7785C21.5569 25.9398 21.2722 26.0167 20.9859 25.997Z" fill="white"/>
</svg>
