<svg width="118" height="32" viewBox="0 0 118 32" fill="none" xmlns="http://www.w3.org/2000/svg">
<circle cx="13.5" cy="18.5" r="13" stroke="#FF4178"/>
<path d="M10.8328 20.6974H10.8335C10.8341 20.6974 10.8347 20.6973 10.8352 20.6973H18.8027C18.9989 20.6973 19.1713 20.5671 19.2253 20.3785L20.9831 14.2262C21.0209 14.0936 20.9944 13.951 20.9114 13.8409C20.8283 13.7308 20.6984 13.666 20.5605 13.666H9.81935L9.50521 12.2523C9.46046 12.0513 9.28217 11.9082 9.07617 11.9082H6.43945C6.19672 11.9082 6 12.1049 6 12.3477C6 12.5904 6.19672 12.7871 6.43945 12.7871H8.72369C8.77931 13.0376 10.227 19.5523 10.3103 19.9271C9.84327 20.1301 9.51562 20.5958 9.51562 21.1367C9.51562 21.8636 10.1071 22.4551 10.834 22.4551H18.8027C19.0455 22.4551 19.2422 22.2584 19.2422 22.0156C19.2422 21.7729 19.0455 21.5762 18.8027 21.5762H10.834C10.5917 21.5762 10.3945 21.379 10.3945 21.1367C10.3945 20.8948 10.591 20.698 10.8328 20.6974ZM19.9779 14.5449L18.4712 19.8184H11.1865L10.0146 14.5449H19.9779Z" fill="#FF4178"/>
<path d="M10.3945 23.7734C10.3945 24.5004 10.986 25.0918 11.7129 25.0918C12.4398 25.0918 13.0312 24.5004 13.0312 23.7734C13.0312 23.0465 12.4398 22.4551 11.7129 22.4551C10.986 22.4551 10.3945 23.0465 10.3945 23.7734ZM11.7129 23.334C11.9552 23.334 12.1523 23.5312 12.1523 23.7734C12.1523 24.0157 11.9552 24.2129 11.7129 24.2129C11.4706 24.2129 11.2734 24.0157 11.2734 23.7734C11.2734 23.5312 11.4706 23.334 11.7129 23.334Z" fill="#FF4178"/>
<path d="M16.6055 23.7734C16.6055 24.5004 17.1969 25.0918 17.9238 25.0918C18.6508 25.0918 19.2422 24.5004 19.2422 23.7734C19.2422 23.0465 18.6508 22.4551 17.9238 22.4551C17.1969 22.4551 16.6055 23.0465 16.6055 23.7734ZM17.9238 23.334C18.1661 23.334 18.3633 23.5312 18.3633 23.7734C18.3633 24.0157 18.1661 24.2129 17.9238 24.2129C17.6816 24.2129 17.4844 24.0157 17.4844 23.7734C17.4844 23.5312 17.6816 23.334 17.9238 23.334Z" fill="#FF4178"/>
<path d="M43.3 18.222H40.42V24H39.124V11.4H40.42V17.052H43.3L47.566 11.4H49.006L44.326 17.52L49.276 24H47.746L43.3 18.222ZM54.8178 24.09C53.9058 24.09 53.0838 23.886 52.3518 23.478C51.6198 23.058 51.0438 22.482 50.6238 21.75C50.2038 21.018 49.9938 20.19 49.9938 19.266C49.9938 18.342 50.2038 17.514 50.6238 16.782C51.0438 16.05 51.6198 15.48 52.3518 15.072C53.0838 14.664 53.9058 14.46 54.8178 14.46C55.7298 14.46 56.5518 14.664 57.2838 15.072C58.0158 15.48 58.5858 16.05 58.9938 16.782C59.4138 17.514 59.6238 18.342 59.6238 19.266C59.6238 20.19 59.4138 21.018 58.9938 21.75C58.5858 22.482 58.0158 23.058 57.2838 23.478C56.5518 23.886 55.7298 24.09 54.8178 24.09ZM54.8178 22.956C55.4898 22.956 56.0898 22.806 56.6178 22.506C57.1578 22.194 57.5778 21.756 57.8778 21.192C58.1778 20.628 58.3278 19.986 58.3278 19.266C58.3278 18.546 58.1778 17.904 57.8778 17.34C57.5778 16.776 57.1578 16.344 56.6178 16.044C56.0898 15.732 55.4898 15.576 54.8178 15.576C54.1458 15.576 53.5398 15.732 52.9998 16.044C52.4718 16.344 52.0518 16.776 51.7397 17.34C51.4398 17.904 51.2898 18.546 51.2898 19.266C51.2898 19.986 51.4398 20.628 51.7397 21.192C52.0518 21.756 52.4718 22.194 52.9998 22.506C53.5398 22.806 54.1458 22.956 54.8178 22.956ZM67.2331 14.46C68.1211 14.46 68.9251 14.664 69.6451 15.072C70.3651 15.468 70.9291 16.032 71.3371 16.764C71.7451 17.496 71.9491 18.33 71.9491 19.266C71.9491 20.214 71.7451 21.054 71.3371 21.786C70.9291 22.518 70.3651 23.088 69.6451 23.496C68.9371 23.892 68.1331 24.09 67.2331 24.09C66.4651 24.09 65.7691 23.934 65.1451 23.622C64.5331 23.298 64.0291 22.83 63.6331 22.218V27.492H62.3551V14.532H63.5791V16.404C63.9631 15.78 64.4671 15.3 65.0911 14.964C65.7271 14.628 66.4411 14.46 67.2331 14.46ZM67.1431 22.956C67.8031 22.956 68.4031 22.806 68.9431 22.506C69.4831 22.194 69.9031 21.756 70.2031 21.192C70.5151 20.628 70.6711 19.986 70.6711 19.266C70.6711 18.546 70.5151 17.91 70.2031 17.358C69.9031 16.794 69.4831 16.356 68.9431 16.044C68.4031 15.732 67.8031 15.576 67.1431 15.576C66.4711 15.576 65.8651 15.732 65.3251 16.044C64.7971 16.356 64.3771 16.794 64.0651 17.358C63.7651 17.91 63.6151 18.546 63.6151 19.266C63.6151 19.986 63.7651 20.628 64.0651 21.192C64.3771 21.756 64.7971 22.194 65.3251 22.506C65.8651 22.806 66.4711 22.956 67.1431 22.956ZM79.2326 19.068C79.9046 19.224 80.4206 19.494 80.7806 19.878C81.1526 20.262 81.3386 20.73 81.3386 21.282C81.3386 21.834 81.1466 22.326 80.7626 22.758C80.3906 23.19 79.8806 23.526 79.2326 23.766C78.5846 23.994 77.8706 24.108 77.0906 24.108C76.4066 24.108 75.7346 24.012 75.0746 23.82C74.4146 23.616 73.8386 23.322 73.3466 22.938L73.7786 21.984C74.2106 22.308 74.7146 22.56 75.2906 22.74C75.8666 22.92 76.4486 23.01 77.0366 23.01C77.9126 23.01 78.6266 22.848 79.1786 22.524C79.7426 22.188 80.0246 21.738 80.0246 21.174C80.0246 20.67 79.7966 20.28 79.3406 20.004C78.8846 19.716 78.2606 19.572 77.4686 19.572H75.8486V18.636H77.3966C78.1046 18.636 78.6746 18.504 79.1066 18.24C79.5386 17.964 79.7546 17.598 79.7546 17.142C79.7546 16.638 79.5086 16.242 79.0166 15.954C78.5366 15.666 77.9066 15.522 77.1266 15.522C76.1066 15.522 75.0986 15.78 74.1026 16.296L73.7426 15.306C74.8706 14.718 76.0406 14.424 77.2526 14.424C77.9726 14.424 78.6206 14.532 79.1966 14.748C79.7846 14.952 80.2406 15.246 80.5646 15.63C80.9006 16.014 81.0686 16.458 81.0686 16.962C81.0686 17.442 80.9006 17.868 80.5646 18.24C80.2406 18.612 79.7966 18.888 79.2326 19.068ZM84.2399 14.532H85.5179V22.056L91.8359 14.532H92.9699V24H91.6919V16.476L85.3919 24H84.2399V14.532ZM96.6325 14.532H97.9105V18.726H103.868V14.532H105.146V24H103.868V19.824H97.9105V24H96.6325V14.532ZM112.037 14.46C113.273 14.46 114.221 14.772 114.881 15.396C115.541 16.008 115.871 16.92 115.871 18.132V24H114.647V22.524C114.359 23.016 113.933 23.4 113.369 23.676C112.817 23.952 112.157 24.09 111.389 24.09C110.333 24.09 109.493 23.838 108.869 23.334C108.245 22.83 107.933 22.164 107.933 21.336C107.933 20.532 108.221 19.884 108.797 19.392C109.385 18.9 110.315 18.654 111.587 18.654H114.593V18.078C114.593 17.262 114.365 16.644 113.909 16.224C113.453 15.792 112.787 15.576 111.911 15.576C111.311 15.576 110.735 15.678 110.183 15.882C109.631 16.074 109.157 16.344 108.761 16.692L108.185 15.738C108.665 15.33 109.241 15.018 109.913 14.802C110.585 14.574 111.293 14.46 112.037 14.46ZM111.587 23.082C112.307 23.082 112.925 22.92 113.441 22.596C113.957 22.26 114.341 21.78 114.593 21.156V19.608H111.623C110.003 19.608 109.193 20.172 109.193 21.3C109.193 21.852 109.403 22.29 109.823 22.614C110.243 22.926 110.831 23.082 111.587 23.082Z" fill="black"/>
<circle cx="26" cy="9" r="9" fill="#FF4178"/>
<path d="M28.744 11.416V13H22.396V11.74L25.636 8.68C25.98 8.352 26.212 8.072 26.332 7.84C26.452 7.6 26.512 7.364 26.512 7.132C26.512 6.796 26.396 6.54 26.164 6.364C25.94 6.18 25.608 6.088 25.168 6.088C24.8 6.088 24.468 6.16 24.172 6.304C23.876 6.44 23.628 6.648 23.428 6.928L22.012 6.016C22.34 5.528 22.792 5.148 23.368 4.876C23.944 4.596 24.604 4.456 25.348 4.456C25.972 4.456 26.516 4.56 26.98 4.768C27.452 4.968 27.816 5.256 28.072 5.632C28.336 6 28.468 6.436 28.468 6.94C28.468 7.396 28.372 7.824 28.18 8.224C27.988 8.624 27.616 9.08 27.064 9.592L25.132 11.416H28.744Z" fill="white"/>
</svg>
