<svg width="485" height="323" viewBox="0 0 485 323" fill="none" xmlns="http://www.w3.org/2000/svg">
<g clip-path="url(#clip0)">
<path d="M182.218 70.1597L163.329 71.5387C163.329 71.5387 162.693 59.7669 163.011 53.1579C163.329 46.5489 161.338 44.43 161.338 44.43H158.226L146.899 56.3531C146.899 56.3531 151.182 78.9044 153.39 81.1242C154.695 82.4359 184.527 76.8191 184.527 76.8191L182.218 70.1597Z" fill="#BED1F9"/>
<path d="M375.395 91.4833H354.899V119.584H375.395V91.4833Z" fill="#F47458"/>
<path d="M380.983 109.545V258.457C380.983 267.236 373.906 274.366 365.155 274.366C356.422 274.366 349.328 267.252 349.328 258.457V109.545H380.983Z" fill="#4951EC"/>
<path d="M365.172 269.539C371.245 269.539 376.198 264.494 376.198 258.289V111.933H354.146V258.289C354.146 264.494 359.082 269.539 365.172 269.539Z" fill="#92B5F9"/>
<path d="M375.395 111.933H354.899V119.584H375.395V111.933Z" fill="#FA7167"/>
<path d="M351.034 112.723H379.293C382.472 112.723 385.048 110.133 385.048 106.938H345.279C345.279 110.133 347.855 112.723 351.034 112.723Z" fill="#4951EC"/>
<path d="M367.866 119.551H362.83V183.538H367.866V119.551Z" fill="#7C9AF2"/>
<path d="M354.146 172.002V258.289C354.146 264.494 359.099 269.539 365.172 269.539C371.245 269.539 376.198 264.494 376.198 258.289V172.002H354.146Z" fill="#FA7167"/>
<path d="M281.684 90.4911H261.741V122.191H281.684V90.4911Z" fill="#FA7167"/>
<path d="M287.323 109.006V257.919C287.323 266.697 280.245 273.828 271.495 273.828C262.761 273.828 255.667 266.714 255.667 257.919V109.006H287.323Z" fill="#4951EC"/>
<path d="M271.495 269.001C277.568 269.001 282.521 263.956 282.521 257.751V111.378H260.469V257.734C260.469 263.939 265.422 269.001 271.495 269.001Z" fill="#92B5F9"/>
<path d="M281.684 111.378H261.741V117.633H281.684V111.378Z" fill="#F47458"/>
<path d="M282.521 140.454V257.734C282.521 263.939 277.568 268.985 271.495 268.985C265.422 268.985 260.469 263.939 260.469 257.734V140.454H282.521Z" fill="#DDE8FE"/>
<path d="M257.357 112.185H285.616C288.795 112.185 291.372 109.595 291.372 106.4H251.602C251.602 109.595 254.178 112.185 257.357 112.185Z" fill="#4951EC"/>
<path d="M248.038 128.11H384.028C385.166 128.11 386.103 129.035 386.103 130.196C386.103 131.339 385.183 132.281 384.028 132.281H248.038C246.9 132.281 245.963 131.356 245.963 130.196C245.963 129.035 246.9 128.11 248.038 128.11Z" fill="#0B0754"/>
<path d="M308.692 296.748H313.979V129.337H308.692V296.748Z" fill="#0B0754"/>
<path d="M221.687 306.789H380.381C380.381 300.331 375.177 295.101 368.753 295.101H233.315C226.907 295.084 221.687 300.331 221.687 306.789Z" fill="#0B0754"/>
<path d="M393.832 57.8834L400.174 59.0942L401.663 53.2588L407.953 54.1669L410.078 48.7519L414.88 48.6678L414.847 46.2126L408.405 46.3471L406.397 51.4594L399.856 50.5177L398.383 56.2522L392.645 55.1591L393.832 57.8834Z" fill="#BED1F9"/>
<path d="M112.466 196.37C100.37 159.877 124.814 135.056 150.128 135.207H151.265C151.132 135.207 162.509 135.611 172.982 135.997L174.237 97.941L150.295 99.0004C125.416 100.245 101.106 114.691 87.9049 141.345C77.7157 162.198 80.7273 183.404 84.3746 196.37H112.466Z" fill="#92B5F9"/>
<path d="M180.132 181.141L210.533 181.015L210.412 151.602L180.011 151.728L180.132 181.141Z" fill="#92B5F9"/>
<path d="M199.957 199.932L226.426 199.822L226.384 189.614L199.915 189.724L199.957 199.932Z" fill="#92B5F9"/>
<path d="M170.924 89.129C175.776 89.1122 179.691 85.1434 179.675 80.2497L179.608 64.1393L210.092 64.0047L210.159 80.1152C210.175 84.9921 214.124 88.9272 218.993 88.9104L219.21 141.11C219.227 145.667 215.58 149.367 211.045 149.384L179.374 149.518C175.927 149.535 172.982 147.416 171.744 144.389C171.51 139.058 170.924 89.129 170.924 89.129Z" fill="#92B5F9"/>
<path d="M180.796 64.1393L208.921 64.0216C213.605 64.0047 217.387 60.1705 217.37 55.4618L217.353 53.1579L172.263 53.3429L172.28 55.6468C172.296 60.3555 176.111 64.1561 180.796 64.1393Z" fill="#92B5F9"/>
<path d="M219.846 304.064H83.8394C83.8394 298.986 87.9385 294.882 92.9745 294.882H210.694C215.747 294.882 219.846 299.002 219.846 304.064Z" fill="#92B5F9"/>
<path d="M154.143 247.474L244.49 247.099L244.453 237.934L154.105 238.309L154.143 247.474Z" fill="#92B5F9"/>
<path d="M195.786 240.133L149.804 282.369L157.152 290.45L203.134 248.215L195.786 240.133Z" fill="#92B5F9"/>
<path d="M223.611 227.952H167.06V238.126H223.611V227.952Z" fill="#92B5F9"/>
<path d="M354.665 308.134C354.665 308.134 356.706 310.169 356.757 310.909C356.807 311.649 356.941 319.62 356.104 320.377C355.268 321.117 352.808 321.655 353.594 322.479C354.197 323.118 358.781 322.983 361.826 322.798C362.713 322.748 363.834 315.55 364.185 314.508C364.704 312.977 366.544 309.631 366.076 308.554C365.842 308.033 364.168 306.839 362.646 305.847C361.04 304.787 359.5 302.45 359.5 302.45L354.665 308.134Z" fill="#FB9390"/>
<path d="M327.26 313.129C327.26 313.129 328.849 317.686 329.067 318.325C329.083 318.375 329.769 321.285 329.769 322.041C329.769 324.883 317.137 319.637 319.965 318.375C320.216 318.258 321.019 317.35 321.103 316.391C321.236 314.894 320.032 313.028 320.032 313.028L327.26 313.129Z" fill="#FB9390"/>
<path d="M309.826 213.388L305.258 225.244C305.258 225.244 302.28 253.547 304.003 270.481C304.723 277.561 320.467 315.483 320.467 315.483L328.28 314.373L317.807 269.455L321.655 252.285L327.109 218.332L309.826 213.388Z" fill="#4951EC"/>
<path d="M331.375 213.994L335.307 227.195L341.28 267.051L361.475 304.333C361.475 304.333 358.446 308.992 355.184 309.732L326.523 272.062L310.997 224.891L311.549 214.414L331.375 213.994Z" fill="#4951EC"/>
<path d="M315.498 166.234C313.758 166.772 311.8 167.411 310.378 169.412C305.409 176.341 301.527 202.71 301.527 202.71L287.942 222.621L295.019 227.952L310.328 214.885L316.568 191.779C316.568 191.779 317.087 182.513 317.087 178.09C317.104 172.742 316.117 166.049 315.498 166.234Z" fill="#7C9AF2"/>
<path d="M362.545 305.796C362.545 305.796 358.229 319.031 356.388 319.687C355.903 319.855 353.143 320.562 352.691 321.621C352.674 321.655 352.674 321.671 352.657 321.722C352.507 322.395 353.076 323.017 353.762 323.017H362.529C362.529 323.017 363.767 317.081 364.269 314.457C364.269 314.457 366.879 308.084 366.578 307.495C366.293 306.906 362.545 305.796 362.545 305.796Z" fill="#0B0754"/>
<path d="M330.489 322.966L329.067 318.308C329.067 318.308 326.005 319.637 324.482 319.418C322.96 319.199 319.998 318.325 319.998 318.325C313.925 320.343 308.956 321.335 309.859 322.966H330.489Z" fill="#0B0754"/>
<path d="M329.953 165.595C329.953 165.595 335.843 166.419 337.399 167.562C339.139 168.841 344.56 174.844 344.56 174.844C344.56 174.844 333.299 207.149 333.734 212.884C334.17 218.635 335.408 227.144 335.408 227.144C335.408 227.144 313.523 228.523 305.241 225.261C305.241 225.261 307.852 212.245 307.852 208.814C307.852 205.4 309.324 171.212 310.361 169.429C311.415 167.647 313.523 166.621 317.505 165.746C321.521 164.855 329.953 165.595 329.953 165.595Z" fill="#DDE8FE"/>
<path d="M320.266 165.393L314.343 211.437L312.486 258.709L299.302 257.65L307.048 199.935C307.048 199.935 307.584 175.45 310.244 169.782C310.244 169.782 310.813 167.899 313.607 166.806C317.204 165.393 320.266 165.393 320.266 165.393Z" fill="#92B5F9"/>
<path d="M328.347 156.363L329.803 165.578C329.803 165.578 324.482 177.316 321.287 176.324C318.61 175.5 320.266 165.427 320.266 165.427C320.266 165.427 321.722 160.012 321.287 157.304C320.852 154.597 328.347 156.363 328.347 156.363Z" fill="#FB9390"/>
<path d="M321.287 157.304C320.852 154.597 328.347 156.363 328.347 156.363L328.464 157.153C328.247 157.691 327.979 158.145 327.644 158.481C325.971 160.281 323.345 161.357 321.086 161.424C321.32 159.978 321.454 158.414 321.287 157.304Z" fill="#EF7F7F"/>
<path d="M329.569 142.842C329.786 142.758 331.275 153.739 328.448 156.749C325.62 159.76 320.132 160.752 318.158 158.381C315.983 155.757 316.083 143.969 320.467 140.857C324.867 137.746 329.569 142.842 329.569 142.842Z" fill="#FB9390"/>
<path d="M328.548 138.604C330.087 138.789 332.179 139.63 334.337 143.195C336.997 147.567 335.04 152.411 331.944 154.799C328.849 157.17 328.899 159.877 328.899 159.877L328.397 158.498C328.029 157.422 327.895 156.278 328.013 155.152C328.079 154.479 328.23 153.739 328.514 153.134C329.251 151.553 326.908 150.493 326.256 149.165C325.754 148.156 325.72 145.818 324.934 144.137L323.98 142.859C323.98 142.859 321.789 141.16 319.63 141.648C317.489 142.119 321.354 133.761 328.548 138.604Z" fill="#FA7167"/>
<path d="M326.406 151.116C326.39 152.461 326.992 153.554 327.778 153.571C328.548 153.588 329.201 152.511 329.234 151.166C329.251 149.821 328.648 148.728 327.862 148.711C327.076 148.711 326.423 149.787 326.406 151.116Z" fill="#FB9390"/>
<path d="M329.803 165.595C329.803 165.595 325.536 185.523 323.445 209.756C321.354 233.989 327.812 261.266 327.812 261.266L346.802 258.794C346.802 258.794 336.361 212.816 336.746 208.999C337.131 205.182 339.406 190.484 339.406 190.484L348.826 201.482L345.58 225.16L352.105 226.673L359.651 198.371C359.651 198.371 342.485 169.883 337.8 167.647C333.115 165.393 329.803 165.595 329.803 165.595Z" fill="#92B5F9"/>
<path d="M276.314 216.281L275.176 228.977L368.435 237.403L369.506 224.689L276.314 216.281Z" fill="#0B0754"/>
<path d="M270.196 210.672L268.165 233.384L281.296 234.57L283.327 211.858L270.196 210.672Z" fill="#0B0754"/>
<path d="M259.068 252.118C278.245 232.843 278.245 201.592 259.068 182.317C239.891 163.042 208.8 163.042 189.623 182.317C170.446 201.592 170.446 232.843 189.623 252.118C208.8 271.393 239.891 271.393 259.068 252.118Z" fill="#0B0754"/>
<path d="M223.243 264.175C189.697 263.384 168.047 228.389 181.716 197.934C186.702 186.818 195.854 178.023 207.164 173.532C230.838 164.115 258.21 175.567 267.814 199.968C280.028 230.995 256.822 264.965 223.243 264.175Z" fill="white"/>
<path d="M234.402 192.788C234.402 193.965 233.465 194.907 232.294 194.907C231.123 194.907 230.186 193.965 230.186 192.788C230.186 191.61 231.123 190.669 232.294 190.669C233.465 190.669 234.402 191.61 234.402 192.788Z" fill="#FA7167"/>
<path d="M235.791 221.073C235.791 222.251 234.854 223.192 233.683 223.192C232.512 223.192 231.575 222.251 231.575 221.073C231.575 219.896 232.512 218.955 233.683 218.955C234.837 218.955 235.791 219.896 235.791 221.073Z" fill="#FA7167"/>
<path d="M255.031 215.457C255.031 216.634 254.094 217.576 252.923 217.576C251.752 217.576 250.815 216.634 250.815 215.457C250.815 214.28 251.752 213.338 252.923 213.338C254.078 213.338 255.031 214.28 255.031 215.457Z" fill="#FA7167"/>
<path d="M248.239 193.208C248.239 194.604 247.101 195.747 245.712 195.747C244.324 195.747 243.186 194.604 243.186 193.208C243.186 191.812 244.324 190.669 245.712 190.669C247.101 190.669 248.239 191.812 248.239 193.208Z" fill="#FA7167"/>
<path d="M240.375 194.083C240.275 194.873 239.539 195.428 238.752 195.327C237.966 195.226 237.414 194.486 237.514 193.696C237.615 192.905 238.351 192.35 239.137 192.451C239.924 192.569 240.476 193.292 240.375 194.083Z" fill="#FA7167"/>
<path d="M254.362 207.721C254.362 208.528 253.71 209.167 252.923 209.167C252.12 209.167 251.485 208.511 251.485 207.721C251.485 206.914 252.137 206.275 252.923 206.275C253.727 206.275 254.362 206.914 254.362 207.721Z" fill="#FA7167"/>
<path d="M227.793 214.246C227.793 215.053 227.141 215.692 226.355 215.692C225.552 215.692 224.916 215.036 224.916 214.246C224.916 213.455 225.568 212.8 226.355 212.8C227.141 212.8 227.793 213.439 227.793 214.246Z" fill="#FA7167"/>
<path d="M227.542 202.39C227.542 204.189 226.087 205.653 224.297 205.653C222.506 205.653 221.051 204.189 221.051 202.39C221.051 200.591 222.506 199.128 224.297 199.128C226.087 199.128 227.542 200.591 227.542 202.39Z" fill="#FA7167"/>
<path d="M243.839 225.732C245.631 225.732 247.084 224.271 247.084 222.469C247.084 220.667 245.631 219.207 243.839 219.207C242.046 219.207 240.593 220.667 240.593 222.469C240.593 224.271 242.046 225.732 243.839 225.732Z" fill="#FA7167"/>
<path d="M258.512 200.406C258.512 202.205 257.056 203.668 255.266 203.668C253.476 203.668 252.02 202.205 252.02 200.406C252.02 198.606 253.476 197.143 255.266 197.143C257.056 197.143 258.512 198.606 258.512 200.406Z" fill="#FA7167"/>
<path d="M254.931 199.935C254.513 200.406 253.927 200.826 253.392 201.162C252.589 201.65 251.685 202.02 250.782 202.289C250.581 202.34 250.012 202.525 249.058 202.777C248.021 200.843 246.365 199.279 244.374 198.337C244.39 198.169 244.407 198.001 244.441 197.833C244.491 197.429 244.558 197.042 244.625 196.639C244.825 195.562 245.344 194.167 246.13 193.46L244.825 192.939C244.842 193.158 244.825 193.359 244.809 193.561C244.792 193.763 244.742 193.965 244.708 194.15C244.608 194.537 244.491 194.907 244.324 195.26C244.156 195.613 243.972 195.966 243.771 196.302C243.554 196.639 243.336 196.958 243.102 197.295C242.985 197.446 242.885 197.597 242.768 197.749C241.663 197.446 240.526 197.345 239.388 197.429C239.288 196.37 239.204 194.923 239.488 193.898H238.451C238.752 194.957 238.652 196.437 238.535 197.53C237.547 197.681 236.611 197.984 235.741 198.404C234.753 196.857 233.298 194.621 233.013 192.754L231.742 193.343C232.997 194.772 233.766 197.345 234.352 199.212C232.729 200.338 231.441 201.919 230.688 203.769C228.831 203.416 226.957 203.012 225.351 201.97C225.116 201.818 224.899 201.65 224.681 201.465L223.962 203.382C224.246 203.365 224.531 203.399 224.798 203.433C226.723 203.702 228.463 204.694 230.119 205.669C229.751 207.586 229.918 209.655 230.705 211.555C229.6 212.362 228.663 213.035 227.459 213.472C227.074 213.607 226.572 213.758 226.154 213.775L226.572 214.734C226.723 214.582 226.923 214.431 227.107 214.313C228.362 213.472 229.868 213.17 231.357 212.867C232.194 214.28 233.348 215.474 234.737 216.331C234.553 217.34 234.235 219.409 233.164 220.451L234.469 220.989C234.452 220.266 234.753 219.375 235.088 218.719C235.306 218.265 235.858 217.424 236.109 217.054C237.982 217.861 240.007 218.046 241.898 217.71C242.299 218.585 242.6 219.51 242.751 220.468C242.901 221.359 242.918 222.537 242.667 223.327L244.675 222.94C244.14 222.301 243.738 221.208 243.537 220.317C243.32 219.341 243.27 218.332 243.32 217.34C245.277 216.684 246.967 215.44 248.205 213.825C249.159 214.162 251.183 214.851 252.438 215.709L253.091 214.464C251.819 213.977 250.23 212.867 249.242 212.161C249.895 210.832 250.28 209.335 250.297 207.755C251.083 207.771 252.187 207.906 252.907 208.242L252.99 207.2C252.204 207.401 251.083 207.351 250.297 207.25C250.263 206.157 250.046 205.098 249.694 204.122C250.497 203.634 250.999 203.349 251.2 203.231C252.488 202.491 254.312 201.785 255.768 201.852L254.931 199.935Z" fill="#FA7167"/>
<path d="M197.778 194.94C197.778 195.966 196.941 196.807 195.921 196.807C194.9 196.807 194.063 195.966 194.063 194.94C194.063 193.914 194.9 193.074 195.921 193.074C196.941 193.074 197.778 193.914 197.778 194.94Z" fill="#4951EC"/>
<path d="M198.999 219.829C198.999 220.855 198.163 221.696 197.142 221.696C196.121 221.696 195.285 220.855 195.285 219.829C195.285 218.803 196.121 217.962 197.142 217.962C198.163 217.962 198.999 218.803 198.999 219.829Z" fill="#4951EC"/>
<path d="M215.931 214.885C215.931 215.911 215.095 216.752 214.074 216.752C213.053 216.752 212.217 215.911 212.217 214.885C212.217 213.859 213.053 213.018 214.074 213.018C215.095 213.018 215.931 213.859 215.931 214.885Z" fill="#4951EC"/>
<path d="M207.733 197.564C208.962 197.564 209.958 196.562 209.958 195.327C209.958 194.092 208.962 193.09 207.733 193.09C206.504 193.09 205.508 194.092 205.508 195.327C205.508 196.562 206.504 197.564 207.733 197.564Z" fill="#4951EC"/>
<path d="M203.031 196.084C202.931 196.79 202.295 197.278 201.609 197.177C200.907 197.076 200.421 196.437 200.522 195.747C200.622 195.041 201.258 194.553 201.944 194.654C202.63 194.755 203.132 195.394 203.031 196.084Z" fill="#4951EC"/>
<path d="M215.346 208.074C215.346 208.78 214.777 209.352 214.074 209.352C213.371 209.352 212.802 208.78 212.802 208.074C212.802 207.368 213.371 206.796 214.074 206.796C214.777 206.813 215.346 207.385 215.346 208.074Z" fill="#4951EC"/>
<path d="M191.972 213.825C191.972 214.532 191.403 215.104 190.701 215.104C189.998 215.104 189.429 214.532 189.429 213.825C189.429 213.119 189.998 212.547 190.701 212.547C191.403 212.547 191.972 213.119 191.972 213.825Z" fill="#4951EC"/>
<path d="M191.755 203.399C191.755 204.98 190.483 206.275 188.894 206.275C187.321 206.275 186.033 204.997 186.033 203.399C186.033 201.801 187.304 200.523 188.894 200.523C190.483 200.54 191.755 201.818 191.755 203.399Z" fill="#4951EC"/>
<path d="M208.938 221.057C208.938 222.637 207.666 223.932 206.077 223.932C204.504 223.932 203.216 222.654 203.216 221.057C203.216 219.476 204.487 218.181 206.077 218.181C207.666 218.181 208.938 219.459 208.938 221.057Z" fill="#4951EC"/>
<path d="M218.993 201.65C218.993 203.231 217.721 204.526 216.132 204.526C214.559 204.526 213.271 203.248 213.271 201.65C213.271 200.069 214.542 198.774 216.132 198.774C217.721 198.774 218.993 200.069 218.993 201.65Z" fill="#4951EC"/>
<path d="M215.831 201.246C215.463 201.65 214.944 202.037 214.476 202.323C213.773 202.743 212.97 203.08 212.183 203.315C212.016 203.365 211.497 203.517 210.678 203.735C209.757 202.037 208.319 200.658 206.562 199.834C206.579 199.683 206.595 199.531 206.612 199.38C206.662 199.027 206.712 198.674 206.779 198.337C206.963 197.379 207.415 196.168 208.101 195.546L206.947 195.092C206.963 195.277 206.947 195.462 206.93 195.647C206.913 195.815 206.88 196 206.829 196.168C206.746 196.504 206.629 196.824 206.495 197.143C206.361 197.463 206.194 197.765 206.01 198.051C205.826 198.337 205.625 198.64 205.424 198.926C205.324 199.06 205.223 199.195 205.123 199.329C204.153 199.06 203.149 198.976 202.145 199.043C202.061 198.102 201.977 196.84 202.228 195.932H201.308C201.559 196.874 201.476 198.169 201.392 199.128C200.522 199.262 199.702 199.531 198.932 199.884C198.062 198.522 196.791 196.555 196.54 194.907L195.419 195.428C196.523 196.689 197.192 198.959 197.711 200.591C196.289 201.583 195.151 202.962 194.499 204.593C192.876 204.274 191.203 203.92 189.797 203.012C189.597 202.878 189.396 202.743 189.212 202.558L188.576 204.257C188.827 204.257 189.078 204.274 189.312 204.307C191.002 204.543 192.524 205.417 193.997 206.275C193.662 207.956 193.813 209.773 194.499 211.454C193.528 212.161 192.708 212.749 191.654 213.136C191.32 213.254 190.868 213.388 190.517 213.405L190.885 214.246C191.019 214.111 191.203 213.977 191.353 213.876C192.458 213.136 193.779 212.867 195.084 212.615C195.82 213.859 196.841 214.902 198.062 215.658C197.912 216.55 197.611 218.366 196.674 219.274L197.811 219.745C197.795 219.106 198.062 218.332 198.364 217.761C198.564 217.374 199.033 216.634 199.267 216.298C200.923 217.004 202.697 217.172 204.37 216.869C204.721 217.643 204.989 218.45 205.123 219.291C205.257 220.081 205.274 221.107 205.039 221.797L206.813 221.46C206.344 220.905 205.976 219.947 205.809 219.156C205.625 218.299 205.575 217.407 205.608 216.55C207.331 215.978 208.82 214.885 209.908 213.455C210.745 213.741 212.535 214.364 213.639 215.104L214.208 214.01C213.087 213.59 211.681 212.598 210.828 211.992C211.397 210.815 211.732 209.504 211.748 208.125C212.451 208.141 213.405 208.259 214.041 208.545L214.107 207.62C213.422 207.805 212.434 207.755 211.732 207.671C211.698 206.712 211.514 205.787 211.196 204.913C211.899 204.475 212.351 204.223 212.518 204.122C213.639 203.483 215.245 202.844 216.533 202.911L215.831 201.246Z" fill="#4951EC"/>
<path d="M216.901 225.11C216.901 226.001 216.182 226.724 215.295 226.724C214.408 226.724 213.689 226.001 213.689 225.11C213.689 224.218 214.408 223.495 215.295 223.495C216.182 223.495 216.901 224.218 216.901 225.11Z" fill="#92B5F9"/>
<path d="M216.349 248.333C217.236 248.333 217.956 247.611 217.956 246.719C217.956 245.827 217.236 245.105 216.349 245.105C215.462 245.105 214.743 245.827 214.743 246.719C214.743 247.611 215.462 248.333 216.349 248.333Z" fill="#92B5F9"/>
<path d="M232.662 242.414C232.662 243.305 231.943 244.028 231.056 244.028C230.169 244.028 229.45 243.305 229.45 242.414C229.45 241.523 230.169 240.8 231.056 240.8C231.943 240.8 232.662 241.523 232.662 242.414Z" fill="#92B5F9"/>
<path d="M227.476 225.429C227.476 226.505 226.606 227.363 225.552 227.363C224.481 227.363 223.627 226.488 223.627 225.429C223.627 224.353 224.497 223.495 225.552 223.495C226.606 223.495 227.476 224.37 227.476 225.429Z" fill="#92B5F9"/>
<path d="M221.469 226.102C221.385 226.707 220.833 227.128 220.231 227.043C219.629 226.959 219.21 226.404 219.294 225.799C219.378 225.194 219.93 224.773 220.532 224.857C221.118 224.941 221.536 225.496 221.469 226.102Z" fill="#92B5F9"/>
<path d="M232.16 236.511C232.16 237.117 231.658 237.621 231.056 237.621C230.454 237.621 229.952 237.117 229.952 236.511C229.952 235.906 230.437 235.401 231.056 235.401C231.658 235.401 232.16 235.906 232.16 236.511Z" fill="#92B5F9"/>
<path d="M211.849 241.489C211.849 242.094 211.363 242.599 210.744 242.599C210.142 242.599 209.64 242.094 209.64 241.489C209.64 240.884 210.142 240.379 210.744 240.379C211.363 240.396 211.849 240.884 211.849 241.489Z" fill="#92B5F9"/>
<path d="M211.593 233.002C211.906 231.664 211.08 230.324 209.749 230.01C208.418 229.695 207.085 230.525 206.772 231.863C206.459 233.201 207.285 234.541 208.616 234.856C209.947 235.17 211.28 234.34 211.593 233.002Z" fill="#92B5F9"/>
<path d="M226.589 247.779C226.589 249.158 225.484 250.267 224.112 250.267C222.74 250.267 221.636 249.158 221.636 247.779C221.636 246.4 222.74 245.29 224.112 245.29C225.484 245.29 226.589 246.4 226.589 247.779Z" fill="#92B5F9"/>
<path d="M235.322 230.928C235.322 232.307 234.218 233.417 232.846 233.417C231.474 233.417 230.37 232.307 230.37 230.928C230.37 229.549 231.474 228.439 232.846 228.439C234.218 228.439 235.322 229.549 235.322 230.928Z" fill="#92B5F9"/>
<path d="M232.578 230.575C232.26 230.928 231.809 231.264 231.407 231.517C230.788 231.887 230.102 232.173 229.416 232.374C229.266 232.425 228.831 232.559 228.111 232.744C227.308 231.264 226.053 230.07 224.531 229.364C224.547 229.23 224.564 229.095 224.581 228.977C224.614 228.675 224.665 228.372 224.715 228.069C224.865 227.245 225.267 226.186 225.869 225.648L224.865 225.244C224.882 225.412 224.865 225.564 224.849 225.715C224.832 225.866 224.798 226.018 224.765 226.169C224.698 226.455 224.598 226.741 224.481 227.01C224.363 227.279 224.213 227.548 224.062 227.8C223.895 228.052 223.728 228.305 223.544 228.557C223.46 228.675 223.376 228.792 223.293 228.91C222.456 228.675 221.569 228.607 220.716 228.658C220.632 227.851 220.582 226.758 220.8 225.967H219.997C220.214 226.774 220.147 227.901 220.064 228.742C219.311 228.86 218.591 229.078 217.939 229.398C217.186 228.204 216.082 226.505 215.864 225.076L214.894 225.53C215.847 226.623 216.433 228.591 216.885 230.003C215.647 230.861 214.659 232.072 214.091 233.484C212.668 233.215 211.23 232.912 210.008 232.105C209.841 231.988 209.657 231.87 209.506 231.719L208.954 233.182C209.172 233.182 209.389 233.198 209.59 233.232C211.062 233.434 212.384 234.191 213.656 234.947C213.371 236.41 213.505 237.991 214.091 239.437C213.254 240.06 212.535 240.564 211.614 240.9C211.313 241.001 210.928 241.119 210.627 241.136L210.945 241.876C211.062 241.758 211.213 241.64 211.347 241.556C212.3 240.917 213.455 240.682 214.592 240.463C215.228 241.54 216.115 242.448 217.169 243.103C217.035 243.877 216.784 245.458 215.964 246.248L216.952 246.652C216.935 246.097 217.169 245.424 217.42 244.92C217.587 244.583 218.006 243.927 218.206 243.642C219.645 244.264 221.185 244.398 222.623 244.146C222.925 244.819 223.159 245.525 223.276 246.248C223.393 246.938 223.41 247.829 223.209 248.434L224.748 248.132C224.347 247.644 224.029 246.803 223.878 246.13C223.711 245.374 223.677 244.617 223.711 243.86C225.2 243.356 226.505 242.414 227.442 241.186C228.178 241.439 229.717 241.977 230.671 242.616L231.156 241.657C230.186 241.287 228.964 240.43 228.228 239.891C228.73 238.882 229.015 237.739 229.031 236.528C229.634 236.545 230.47 236.646 231.022 236.898L231.089 236.108C230.487 236.259 229.634 236.225 229.031 236.141C228.998 235.3 228.831 234.493 228.563 233.753C229.182 233.383 229.567 233.165 229.717 233.064C230.704 232.509 232.093 231.954 233.197 232.004L232.578 230.575Z" fill="#92B5F9"/>
<path d="M283.424 229.263C283.625 229.196 283.893 229.297 284.177 229.499C283.408 228.624 282.805 227.75 283.207 227.598C283.391 227.531 284.729 228.473 284.997 228.607C284.629 228.204 283.458 227.363 283.943 227.027C284.244 226.825 285.616 227.767 286.402 228.322C285.951 227.952 285.482 227.313 285.716 227.245C286.837 226.926 289.197 230.407 290 230.155C290.786 229.919 290.602 230.945 289.632 231.836C289.213 232.374 287.54 232.072 287.105 232.307C286.034 232.913 285.198 232.475 285.148 232.458C285.164 232.458 282.655 229.532 283.424 229.263Z" fill="#4951EC"/>
<path d="M341.414 232.61C341.632 232.374 341.916 232.088 342.134 231.853C342.351 231.618 342.853 231.836 343.188 231.954C343.405 232.038 342.401 233.652 341.816 234.998C343.104 236.04 346.618 236.932 349.194 235.923C349.395 235.317 350.449 232.223 350.633 230.474C350.834 228.624 350.85 227.733 350.85 227.733C351.034 227.329 351.57 226.152 352.356 224.521L347.136 222.469C346.467 224.353 345.446 227.161 345.195 227.38C344.877 227.649 344.66 227.128 342.067 229.112C341.314 229.684 340.778 230.928 340.778 230.928C340.778 230.928 340.126 232.475 340.427 232.728C340.711 232.963 341.197 232.845 341.414 232.61Z" fill="#4951EC"/>
<path d="M350.85 227.716C351.035 227.313 351.57 226.135 352.356 224.504L347.136 222.452C346.651 223.815 345.998 225.648 345.563 226.64C347.203 227.464 349.01 227.884 350.834 228.137C350.85 227.851 350.85 227.716 350.85 227.716Z" fill="#FB9390"/>
<path d="M348.809 201.465L345.563 225.143L352.105 226.657L359.651 198.354L348.809 201.465Z" fill="#92B5F9"/>
<path d="M404.741 135.678L391.49 112.555L415.482 103.121L420.401 129.775L404.741 135.678Z" fill="#FA7167"/>
<path d="M465.241 142.707C465.676 143.464 466.094 144.221 466.78 144.86C468.252 146.222 470.026 146.558 471.799 147.366C473.69 148.223 474.309 151.721 473.673 154.16C472.05 160.331 477.153 158.448 480.616 161.777C488.949 169.799 475.697 178.443 473.74 179.704C471.766 180.965 463.818 182.26 462.513 182.445C458.565 183.017 453.428 180.898 450.149 176.307C446.887 171.733 449.731 168.437 449.212 165.46C448.694 162.484 444.042 161.71 444.26 155.774C444.494 149.35 446.468 143.817 449.329 141.143C452.274 138.385 456.791 137.326 460.623 138.722C462.112 139.26 463.434 140.235 464.454 141.446C464.739 141.866 464.99 142.287 465.241 142.707Z" fill="#0B0754"/>
<path d="M432.214 191.089C432.214 191.089 427.914 189.643 427.546 188.886C427.178 188.146 426.023 185.943 424.986 185.54C423.948 185.136 421.807 184.615 421.422 185.287C421.054 185.96 423.38 186.078 423.714 186.397C424.049 186.734 424.049 186.734 424.049 186.734C424.049 186.734 424.785 187.591 423.932 187.81C423.078 188.029 419.565 188.634 418.561 188.634C417.557 188.634 416.888 187.558 416.302 187.81C415.717 188.062 416.302 189.626 416.302 189.626C416.302 189.626 416.051 190.4 416.603 191.308C416.603 191.308 416.771 192.401 417.34 192.989C417.908 193.561 425.488 193.141 426.525 193.444C427.562 193.746 431.26 194.738 431.26 194.738L432.214 191.089Z" fill="#7C9AF2"/>
<path d="M453.295 184.968C453.295 184.968 446.736 198.472 443.473 199.43C440.746 200.238 424.601 196.487 424.601 196.487L426.174 190.433C426.174 190.433 437.718 192.418 439.274 191.678C440.847 190.938 449.748 167.714 449.748 167.714L453.295 184.968Z" fill="#7C9AF2"/>
<path d="M461.443 224.252L457.327 261.652C457.327 261.652 459.335 269.556 459.1 271.81C458.866 274.063 454.633 303.543 454.633 303.543L454.817 305.157L454.918 309.95L439.107 310.068C439.107 310.068 442.436 308.554 447.104 305.544C447.455 305.326 448.242 304.619 448.443 303.207C449.681 294.126 447.221 263.805 447.221 263.805L445.28 224.353L461.443 224.252Z" fill="#FB9390"/>
<path d="M473.907 231.147C474.794 231.382 476.166 263.485 476.885 264.898C481.537 273.912 482.641 301.34 482.641 301.34L484.565 305.174L484.13 308.874C484.13 308.874 480.65 310.892 478.224 309.53L478.609 305.83L478.893 300.886L467.131 266.714L460.707 231.87L473.907 231.147Z" fill="#FB9390"/>
<path d="M454.984 311.195H438.655C438.053 311.144 437.902 310.64 438.119 310.32C438.554 309.681 440.462 309.21 442.603 308.201C446.351 308.605 454.215 306.032 454.817 305.157C455.152 306.94 455.319 311.111 454.984 311.195Z" fill="#FA7167"/>
<path d="M484.565 305.174C484.565 305.174 483.109 309.362 481.553 309.244C479.981 309.126 478.609 305.813 478.609 305.813C478.609 305.813 478.023 308.588 478.291 310.118C478.558 311.649 480.8 313.213 482.323 312.54C483.862 311.85 485.937 308.319 484.565 305.174Z" fill="#FA7167"/>
<path d="M469.223 199.683C469.223 205.77 473.556 213.203 475.229 224.252C476.618 233.434 480.516 251.058 480.516 251.058L443.206 251.915C443.206 251.915 448.493 210.243 449.53 205.333C450.166 202.306 449.246 168.538 449.781 167.663C451.17 165.376 467.014 164.502 468.051 165.544C469.072 166.57 469.223 193.595 469.223 199.683Z" fill="#92B5F9"/>
<path d="M451.203 170.623L449.764 167.663C449.764 167.663 447.907 178.006 447.907 179.906C447.907 181.806 450.3 197.143 450.3 197.143L451.521 170.556L451.203 170.623Z" fill="#92B5F9"/>
<path d="M459.619 156.934C459.619 156.934 459.853 162.4 460.556 164.418C461.242 166.436 459.1 173.734 454.767 174.794C450.852 175.752 453.679 168.925 454.215 166.032C454.282 165.713 453.512 155.589 453.512 155.589L459.619 156.934Z" fill="#FB9390"/>
<path d="M459.753 169.48C456.273 170.909 454.382 170.135 453.395 169.227C452.609 172.221 451.973 175.483 454.767 174.794C457.093 174.222 458.782 171.851 459.753 169.48Z" fill="#FA7167"/>
<path d="M453.813 158.767C453.479 157.035 453.161 155.606 453.161 155.606L459.636 156.934C459.636 156.934 459.686 158.044 459.803 159.457C457.36 160.584 455.302 160.079 453.813 158.767Z" fill="#EF7F7F"/>
<path d="M457.661 142.051C458.916 142.337 460.204 142.758 461.66 145.28C463.132 147.786 463.852 155.017 458.464 158.095C453.077 161.172 449.246 156.245 449.413 151.62C449.58 147.012 450.935 140.555 457.661 142.051Z" fill="#FB9390"/>
<path d="M448.945 150.056C449.329 151.2 450.183 151.923 450.835 151.704C451.488 151.469 451.705 150.376 451.32 149.232C450.936 148.089 450.082 147.366 449.43 147.584C448.777 147.82 448.56 148.929 448.945 150.056Z" fill="#FB9390"/>
<path d="M422.51 117.163L469.658 246.837C472.435 254.488 468.52 262.947 460.924 265.739C453.311 268.53 444.896 264.595 442.118 256.96L394.97 127.286L422.51 117.163Z" fill="#4951EC"/>
<path d="M459.385 261.535C464.672 259.584 467.382 253.614 465.425 248.199L419.08 120.745L399.872 127.808L446.217 255.262C448.192 260.66 454.098 263.485 459.385 261.535Z" fill="#92B5F9"/>
<path d="M400.174 127.707L404.741 135.678L420.401 129.775L418.762 120.879L400.174 127.707Z" fill="#F48C7F"/>
<path d="M465.542 248.199L432.28 156.749C424.986 156.699 417.657 156.716 410.279 156.11L446.335 255.245C448.292 260.643 454.198 263.469 459.502 261.518C464.806 259.584 467.516 253.614 465.542 248.199Z" fill="#DDE8FE"/>
<path d="M396.961 129.674L422.493 120.29C425.002 119.366 426.291 116.574 425.37 114.051L425.203 113.581L390.57 126.311L390.737 126.782C391.674 129.287 394.451 130.599 396.961 129.674Z" fill="#4951EC"/>
<path d="M451.889 200.893C451.889 200.893 446.786 200.692 446.268 200.204C445.732 199.699 444.996 199.363 444.026 199.346C443.055 199.329 440.244 199.43 440.144 200.103C440.044 200.759 442.068 200.591 442.336 200.742C442.754 200.994 442.637 201.667 442.001 202.104C441.365 202.541 440.596 202.844 439.776 203.147C439.391 203.298 437.735 203.651 435.894 203.634C433.87 203.601 431.996 203.382 431.996 204.055C431.996 204.845 437.969 205.081 437.969 205.081C437.969 205.081 432.749 205.064 432.582 205.451C432.214 206.275 438.471 206.174 438.722 206.359C438.722 206.359 434.857 206.83 434.606 206.964C434.506 207.015 434.389 207.368 434.64 207.418C435.861 207.603 439.508 207.57 439.826 207.519C440.579 207.385 446.569 205.148 447.506 205.081C448.443 205.013 452.107 204.862 452.107 204.862L451.889 200.893Z" fill="#7C9AF2"/>
<path d="M451.889 200.893C451.889 200.893 450.735 200.843 449.463 200.742C449.564 202.188 448.995 203.601 448.493 204.997C449.915 204.929 452.124 204.828 452.124 204.828L451.889 200.893Z" fill="#F79C8D"/>
<path d="M454.817 205.871L469.758 203.87C469.473 202.592 469.289 201.364 469.239 200.271L453.813 202.895L454.817 205.871Z" fill="#7C9AF2"/>
<path d="M469.038 168.841L467.733 165.46C467.733 165.46 468.771 188.617 466.746 190.719C464.722 192.821 454.667 198.859 454.667 198.859L457.26 200.389L471.113 195.108C471.113 195.108 472.502 188.113 472.502 187.86C472.519 187.591 469.038 168.841 469.038 168.841Z" fill="#7C9AF2"/>
<path d="M474.376 170.186C477.253 177.131 478.927 199.75 475.396 201.297C472.452 202.592 451.019 206.897 451.019 206.897L450.634 200.221C450.634 200.221 466.077 194.503 467.733 193.444C469.39 192.384 467.75 165.359 467.75 165.359C467.75 165.359 472.803 166.419 474.376 170.186Z" fill="#BED1F9"/>
<path d="M418.578 185.271C417.708 185.59 416.403 186.919 416.101 188.062C415.8 189.206 416.821 189.374 416.821 189.374C416.821 189.374 418.845 186.969 419.23 185.792C419.414 185.271 419.297 185.001 418.578 185.271Z" fill="#7C9AF2"/>
<path d="M417.072 191.291C417.156 191.156 420.251 187.928 420 187.154C419.749 186.397 416.553 189.508 416.553 189.508L417.072 191.291Z" fill="#7C9AF2"/>
<path d="M417.189 191.644L417.892 190.282C417.892 190.282 419.531 189.054 419.899 189.155C420.251 189.256 420.284 189.777 419.515 190.534C418.762 191.291 418.762 191.291 418.762 191.291L418.143 191.846L418.377 192.922L417.189 191.644Z" fill="#7C9AF2"/>
<path d="M462.095 151.637C461.66 152.814 461.945 154.008 462.731 154.311C463.517 154.614 464.521 153.89 464.956 152.713C465.391 151.536 465.107 150.342 464.32 150.039C463.534 149.754 462.53 150.46 462.095 151.637Z" fill="#FB9390"/>
<path d="M167.06 272.415H22.8379C17.3334 272.415 12.8662 268.345 12.8662 263.317V257.902C12.8662 252.874 17.3334 248.804 22.8379 248.804H167.06C160.468 255.38 160.351 265.436 166.792 272.129L167.06 272.415Z" fill="#92B5F9"/>
<path d="M92.4558 269.708H164.834C161.103 264.124 161.103 257.078 164.834 251.512H92.4558C87.4532 251.512 83.4043 255.581 83.4043 260.61C83.4043 265.638 87.4532 269.708 92.4558 269.708Z" fill="#DDE8FE"/>
<path d="M160.568 223.024C160.886 222.486 160.401 221.847 159.681 221.847H44.8058C35.8045 221.847 28.5098 227.901 28.5098 235.368C28.5098 242.834 35.8045 248.888 44.8058 248.888H159.698C160.434 248.888 160.919 248.249 160.601 247.711C156.051 239.891 156.051 230.793 160.568 223.024Z" fill="#4951EC"/>
<path d="M159.648 224.756H82.5847C76.8961 224.756 72.2783 229.398 72.2783 235.115V235.889C72.2783 241.607 76.8961 246.248 82.5847 246.248H159.815C156.352 239.353 156.318 231.634 159.648 224.756Z" fill="#4951EC"/>
<path d="M159.648 224.756H82.5844C76.8959 224.756 72.2781 229.398 72.2781 235.115V235.889C72.2781 241.607 76.8959 246.248 82.5844 246.248H159.815C156.352 239.353 156.318 231.634 159.648 224.756Z" fill="#DDE8FE"/>
<path d="M46.094 220.636H120.213C126.788 220.636 132.108 214.868 132.108 207.738C132.108 200.607 126.788 194.839 120.213 194.839H46.094C51.7658 201.986 51.9833 212.48 46.6294 219.913L46.094 220.636Z" fill="#DDE8FE"/>
<path d="M131.138 207.738C131.138 200.607 125.751 194.839 119.092 194.839H44.7389C44.3876 194.839 44.1199 194.537 44.1199 194.167C44.1199 193.797 44.4043 193.511 44.7389 193.511H162.71C170.055 193.511 175.994 199.884 175.994 207.755C175.994 215.625 170.038 221.998 162.71 221.998H44.7389C44.4043 221.998 44.1199 221.696 44.1199 221.342C44.1199 220.972 44.4043 220.67 44.7389 220.67H119.092C125.751 220.636 131.138 214.868 131.138 207.738Z" fill="#7C9AF2"/>
<path d="M111.078 235.586H103.147C101.44 235.586 100.052 236.124 100.052 236.78V236.881H111.078V235.586Z" fill="#FA7167"/>
<path d="M117.854 238.563C117.854 236.915 115.779 235.586 113.219 235.586H103.047C104.987 235.586 106.56 236.595 106.56 237.84L106.51 269.775L112.132 265.672L117.87 269.775L117.854 238.563Z" fill="#FA7167"/>
<path d="M226.355 272.365H12.0464C5.3874 272.365 0 277.78 0 284.473V294.664C0 301.357 5.3874 306.772 12.0464 306.772H226.355L226.237 306.654C217.086 297.068 217.136 281.9 226.355 272.365Z" fill="#FA7167"/>
<path d="M222.557 277.46H107.999C101.34 277.46 95.9526 282.875 95.9526 289.568C95.9526 296.261 101.34 301.676 107.999 301.676H222.557C218.357 294.193 218.357 284.96 222.557 277.46Z" fill="#DDE8FE"/>
<path d="M118.841 182.748C118.841 182.748 118.489 189.038 118.489 189.054C118.355 189.862 117.854 191.829 117.854 192.552C117.854 195.277 129.933 190.232 127.223 189.021C126.972 188.903 125.7 188.079 125.617 187.154C125.5 185.725 125.182 182.832 125.182 182.832L118.841 182.748Z" fill="#FB9390"/>
<path d="M127.173 189.004C127.173 189.004 124.328 189.845 122.889 190.047C121.434 190.248 119.527 188.499 118.489 188.97C117.352 189.492 117.402 194.2 117.402 194.2C117.402 194.2 132.61 195.546 136.893 194.15C138.6 193.612 132.978 190.955 127.173 189.004Z" fill="#0B0754"/>
<path d="M99.4158 182.361C99.4158 182.361 99.0645 188.651 99.0645 188.668C98.9306 189.475 98.4287 191.442 98.4287 192.165C98.4287 194.89 110.509 189.845 107.798 188.634C107.547 188.516 105.891 187.07 105.807 186.145C105.69 184.716 105.757 182.429 105.757 182.429L99.4158 182.361Z" fill="#FB9390"/>
<path d="M107.765 188.634C107.765 188.634 104.92 189.475 103.482 189.677C102.026 189.878 100.119 188.129 99.0813 188.6C97.9436 189.122 97.9102 193.83 97.9102 193.83C97.9102 193.83 113.018 194.452 117.502 193.78C119.242 193.511 113.554 190.568 107.765 188.634Z" fill="#0B0754"/>
<path d="M102.143 83.0413C102.143 83.0413 100.102 93.6695 100.922 101.725C101.758 109.78 101.825 138.385 101.825 138.385L98.6462 184.161L106.209 184.329C106.209 184.329 115.177 138.57 115.009 139.748C114.842 140.925 118.021 107.527 118.021 107.527L107.33 82.0155L102.143 83.0413Z" fill="#0B0754"/>
<path d="M103.833 81.511C103.833 81.511 97.5254 92.4924 99.1817 96.6798C100.855 100.867 113.504 142.035 113.671 145.381C113.838 148.745 118.038 185.826 118.038 185.826L126.821 185.556L128.729 144.322L124.747 92.4924L120.882 79.3921L103.833 81.511Z" fill="#0B0754"/>
<path d="M161.354 44.4132C158.309 41.0162 151.7 36.072 151.7 36.072C151.7 36.072 148.639 33.3645 146.162 33.0955C143.686 32.8264 138.818 31.3465 132.092 41.5039C127.892 47.8606 106.108 74.0611 106.108 74.0611C106.108 74.0611 100.135 79.2239 98.3619 85.8329C97.4249 89.3308 95.0826 106.4 93.0581 121.72C98.0774 123.015 103.247 123.418 108.518 123.738C117.82 124.31 126.972 123.99 136.174 122.729C135.772 107.308 135.354 90.1548 135.321 87.8341C136.09 81.3428 142.047 73.3212 144.071 71.0341C148.555 65.9218 164.215 47.642 161.354 44.4132Z" fill="#7C9AF2"/>
<path d="M188.626 62.3399C188.291 61.684 181.833 64.2402 181.13 64.4924C181.515 64.2906 184.159 63.1471 184.41 63.0294C184.41 63.0294 188.258 60.9609 188.107 60.5069C187.823 59.5987 184.376 61.3981 183.607 61.9531C181.75 62.424 181.549 62.6594 180.026 62.9789C182.887 61.1795 186.819 59.8006 186.367 58.8924C185.865 57.8666 180.796 60.7423 177.383 61.7513C177.115 61.8354 176.948 61.4822 177.165 61.3141C178.136 60.6078 180.26 59.7501 179.825 58.8756C179.474 58.1693 175.559 59.9014 174.957 60.2882C173.986 60.8936 172.096 62.1549 171.293 62.9957C171.159 63.1303 170.925 63.6684 170.874 63.7357C170.423 63.9207 168.047 64.257 164.383 64.8288L163.58 71.5387C169.887 69.4534 171.426 68.8816 172.163 68.663C172.531 68.663 173.618 69.1002 175.157 69.1675C176.914 69.2348 178.571 68.5789 179.022 68.5285C180.21 68.4276 186.551 66.1237 186.016 65.0642C185.882 64.812 181.499 66.3591 180.913 66.3423C181.181 66.2077 189.094 63.2816 188.626 62.3399Z" fill="#4951EC"/>
<path d="M164.416 64.8288L163.613 71.5387C168.331 69.9747 170.389 69.2684 171.426 68.9152C171.393 67.1999 170.841 65.5014 170.105 63.9207C169.051 64.1056 167.076 64.4083 164.416 64.8288Z" fill="#FB9390"/>
<path d="M160.033 30.4888L151.199 35.6684C151.199 35.6684 150.948 43.2191 153.842 45.1867C156.268 46.8348 158.109 42.8828 158.109 42.8828C158.109 42.8828 161.388 38.3255 163.881 36.896C166.374 35.4834 160.033 30.4888 160.033 30.4888Z" fill="#FB9390"/>
<path d="M158.544 33.8186C158.878 35.3993 159.648 37.6696 160.836 39.5531C161.806 38.4936 162.91 37.4678 163.881 36.9128C165.035 36.257 164.299 34.8444 163.178 33.499C161.589 31.851 160.033 30.4888 160.033 30.4888L158.343 31.481C158.226 32.1369 158.426 33.2972 158.544 33.8186Z" fill="#EF7F7F"/>
<path d="M164.617 17.5063C164.466 17.3213 157.205 26.3856 158.109 30.6234C158.995 34.878 163.396 38.7459 166.441 37.6865C169.82 36.5093 176.094 25.8474 173.836 20.6679C171.594 15.4883 164.617 17.5063 164.617 17.5063Z" fill="#FB9390"/>
<path d="M175.526 14.4793C172.112 13.2517 169.034 13.9075 167.846 14.2607C166.374 13.588 164.031 13.2012 160.183 15.236C155.448 17.7249 154.578 23.1399 156.067 26.9742C157.556 30.7916 155.85 32.9441 155.85 32.9441L158.36 31.4642C158.36 31.4642 159.832 29.1603 160.016 27.3273C160.2 25.4943 162.877 25.8138 164.182 24.9898C165.186 24.3507 166.457 22.2655 168.08 21.1892C168.08 21.1892 172.163 20.6847 174.17 21.8114C177.6 23.7621 179.892 16.0601 175.526 14.4793Z" fill="#0B0754"/>
<path d="M162.994 26.6883C162.291 27.8991 161.154 28.5549 160.451 28.1513C159.748 27.7477 159.748 26.4192 160.451 25.2084C161.154 23.9976 162.291 23.3417 162.994 23.7453C163.697 24.1489 163.697 25.4775 162.994 26.6883Z" fill="#FB9390"/>
<path d="M147.518 33.4487C146.313 31.0102 140.859 30.8252 138.349 32.961C129.816 40.209 133.882 76.3483 141.628 77.3237C148.94 78.2318 170.924 70.6642 170.924 70.6642L168.917 63.2144C168.917 63.2144 150.663 66.1573 149.341 64.8288C147.936 63.3825 150.63 39.7549 147.518 33.4487Z" fill="#92B5F9"/>
<path d="M120.815 22.3327L116.716 22.0973L116.364 15.4042L110.391 14.328L109.321 9.367L106.811 9.90514L108.267 16.5478L113.905 17.5736L114.273 24.5357L120.464 24.8889L120.815 22.3327Z" fill="#92B5F9"/>
<path d="M476.216 107.14L474.627 104.567L471.03 107.039L469.29 104.617L465.709 106.686L463.969 105.239L462.698 106.484L465.023 108.435L468.419 106.467L470.226 108.99L473.773 106.551L475.212 108.889L476.216 107.14Z" fill="#BED1F9"/>
<path d="M90.8663 70.4792L87.6707 68.3939L84.3747 70.4455L80.9783 67.8557L78.134 71.135L74.152 68.3602L71.1739 71.0678L66.9075 69.0329L67.6771 67.4017L70.856 68.932L74.0014 66.0732L77.8328 68.7302L80.7273 65.4005L84.4751 68.2762L87.7042 66.2581L90.6488 68.1921L92.4892 66.4263L93.7273 67.7212L90.8663 70.4792Z" fill="#92B5F9"/>
<path d="M258.495 8.8961C265.204 8.5934 268.918 16.7495 264.334 21.7273C263.514 22.6186 263.046 23.7958 263.012 25.0066L262.862 29.194C262.828 30.3543 261.908 31.2792 260.754 31.3297L258.211 31.4474C257.056 31.4979 256.069 30.657 255.918 29.5135C255.4 25.3261 255.517 23.7453 253.794 22.1982C248.791 17.6408 251.769 9.1988 258.495 8.8961Z" fill="#BED1F9"/>
<path d="M261.105 26.4864C260.804 23.0894 260.62 19.3561 260.586 17.9435C259.348 18.078 258.077 17.994 256.872 17.6744C257.257 20.466 257.558 23.3081 257.792 26.1165L257.424 26.1501C257.19 23.2912 256.872 20.4156 256.47 17.5735C255.734 17.3549 254.898 17.0522 254.496 16.4132C254.312 16.1105 254.262 15.7069 254.362 15.3705C254.63 14.4624 255.734 14.4624 256.27 15.236C256.621 15.7405 256.671 16.4132 256.805 17.3045C258.026 17.6408 259.315 17.7417 260.57 17.5904C260.586 16.884 260.687 16.2114 261.071 15.6564C262.46 13.6889 264.685 17.3381 260.921 17.9099C260.938 19.003 261.122 22.854 261.44 26.4696L261.105 26.4864ZM261.389 15.8414C261.055 16.3123 260.971 16.9009 260.954 17.5231C261.774 17.3886 262.293 17.1195 262.544 16.6822C262.979 15.9759 262.126 14.7819 261.389 15.8414ZM255.032 15.0847C254.664 15.2696 254.613 15.8582 254.831 16.2114C255.149 16.7327 255.851 16.9681 256.437 17.1699C256.337 16.4636 256.286 15.8582 255.985 15.4378C255.784 15.1351 255.065 15.0678 255.032 15.0847Z" fill="white"/>
<path d="M263.012 24.9057C263.012 24.9393 263.012 24.973 263.012 25.0066L262.862 29.194C262.828 30.3543 261.908 31.2793 260.754 31.3297L258.211 31.4474C257.056 31.4979 256.069 30.657 255.918 29.5135C255.684 27.6468 255.584 26.3015 255.383 25.242L263.012 24.9057Z" fill="#7C9AF2"/>
<path d="M262.678 4.91054L263.882 0.941774C264 0.554988 263.782 0.151385 263.397 0.0336676C263.012 -0.0840499 262.611 0.134568 262.494 0.521354L261.289 4.49012C261.172 4.8769 261.389 5.2805 261.774 5.39822C262.159 5.51594 262.561 5.29732 262.678 4.91054Z" fill="#BED1F9"/>
<path d="M268.718 12.6295L272.867 11.3682C273.252 11.2505 273.469 10.8469 273.352 10.4601C273.235 10.0733 272.834 9.8547 272.449 9.97242L268.299 11.2337C267.915 11.3514 267.697 11.755 267.814 12.1418C267.931 12.5286 268.333 12.7472 268.718 12.6295Z" fill="#BED1F9"/>
<path d="M275.644 24.788C275.862 24.4516 275.761 23.9976 275.427 23.7789C274.172 22.9717 272.833 22.2654 271.445 21.7105C271.077 21.5591 270.658 21.7441 270.508 22.1141C270.357 22.4841 270.541 22.9045 270.909 23.0558C272.214 23.5771 273.469 24.233 274.64 25.0066C274.975 25.2084 275.427 25.1243 275.644 24.788Z" fill="#BED1F9"/>
<path d="M252.187 6.92853C252.539 6.74355 252.689 6.30631 252.505 5.95316C251.652 4.25466 250.966 2.45527 250.481 0.605419C250.38 0.218633 249.979 -0.0168016 249.594 0.0840991C249.209 0.185 248.975 0.588603 249.075 0.975389C249.594 2.90932 250.313 4.80962 251.217 6.59219C251.401 6.96216 251.836 7.0967 252.187 6.92853Z" fill="#BED1F9"/>
<path d="M248.975 13.3021C249.008 12.8985 248.707 12.5453 248.323 12.5117L243.638 12.1081C243.236 12.0745 242.885 12.3772 242.851 12.7639C242.818 13.1675 243.119 13.5207 243.504 13.5543L248.189 13.9579C248.59 14.0084 248.942 13.7057 248.975 13.3021Z" fill="#BED1F9"/>
<path d="M244.207 26.6042C244.274 26.5874 244.34 26.5706 244.391 26.5369C245.83 25.7802 247.185 24.8721 248.423 23.8294C248.724 23.5772 248.774 23.1063 248.506 22.8036C248.256 22.5009 247.787 22.4505 247.486 22.7027C246.315 23.6781 245.06 24.5357 243.705 25.242C243.353 25.427 243.22 25.8643 243.404 26.2174C243.571 26.5201 243.889 26.6547 244.207 26.6042Z" fill="#BED1F9"/>
<path d="M367.163 50.484C367.096 50.4336 367.046 50.3831 366.979 50.3158C366.377 49.6768 366.41 48.651 367.063 48.0624C367.782 47.3897 368.468 46.6498 369.104 45.8426C373.253 40.5789 374.106 34.0372 370.978 31.5315C366.343 27.8486 366.946 19.5916 372.35 12.7303C373.655 11.0655 376.148 13.0498 374.843 14.7147C370.693 19.9784 369.84 26.5201 372.969 29.0258C377.603 32.7087 377.001 40.9657 371.597 47.827C370.861 48.7519 370.074 49.6095 369.238 50.3999C368.652 50.9381 367.782 50.9717 367.163 50.484Z" fill="#92B5F9"/>
<path d="M353.092 37.6192C357.71 29.4462 367.264 24.4853 372.969 29.0426C376.098 31.5315 382.238 29.194 386.387 23.9303C387.692 22.2655 390.185 24.2499 388.88 25.9147C383.476 32.7592 375.629 35.2312 370.995 31.5483C367.866 29.0595 361.726 31.397 357.576 36.6606C356.941 37.4679 356.355 38.3255 355.87 39.2C354.816 41.033 352.055 39.4522 353.092 37.6192Z" fill="#BED1F9"/>
<path d="M371.714 25.0739L376.583 28.9417C377.034 28.9081 377.503 28.824 377.971 28.6895L372.367 24.233C372.132 24.048 371.798 24.0817 371.614 24.3171C371.446 24.5525 371.48 24.8889 371.714 25.0739Z" fill="#BED1F9"/>
<path d="M372.517 21.0042L380.698 27.5291C381.016 27.3442 381.334 27.1424 381.652 26.9237L373.169 20.1634C372.935 19.9784 372.601 20.012 372.417 20.2475C372.249 20.4829 372.283 20.8192 372.517 21.0042Z" fill="#BED1F9"/>
<path d="M369.305 40.1417L361.692 34.0709C361.408 34.2895 361.123 34.5081 360.839 34.7603L368.652 40.9826C368.886 41.1675 369.221 41.1339 369.405 40.8985C369.572 40.663 369.522 40.3267 369.305 40.1417Z" fill="#BED1F9"/>
<path d="M373.989 17.4895L383.744 25.2588C383.995 25.0234 384.246 24.7711 384.497 24.5021L374.642 16.6486C374.408 16.4637 374.073 16.4973 373.889 16.7327C373.722 16.9682 373.755 17.3045 373.989 17.4895Z" fill="#BED1F9"/>
<path d="M365.691 44.245L357.877 38.0228C357.677 38.3087 357.476 38.6114 357.275 38.9141L365.022 45.0859C365.256 45.2709 365.591 45.2372 365.775 45.0018C365.959 44.7664 365.925 44.43 365.691 44.245Z" fill="#BED1F9"/>
<path d="M371.865 35.2312L367.331 31.6324C366.879 31.666 366.427 31.7501 365.942 31.8847L371.195 36.072C371.43 36.257 371.764 36.2234 371.948 35.988C372.132 35.7525 372.099 35.4162 371.865 35.2312Z" fill="#BED1F9"/>
<path d="M212.618 35.5507L209.874 34.7267L208.051 39.015L203.901 38.2919L202.011 41.2684L200.522 40.3099L203.031 36.3243L206.963 37.0138L208.871 32.5573L212.986 33.8018L212.618 35.5507Z" fill="#BED1F9"/>
<path d="M191.604 20.3315C191.889 19.5243 191.705 16.6654 195.553 13.8066C197.142 12.6462 198.43 11.654 198.765 10.3255C199.317 8.05525 196.941 7.04624 194.616 7.13032C193.411 7.18077 192.391 6.22222 192.324 5.01141C192.257 3.76697 193.177 2.70751 194.398 2.60661C195.737 2.50571 197.31 2.58979 198.983 2.99339C204.035 4.23784 205.642 7.63483 204.855 10.8468C204.136 13.7898 201.86 15.2696 200.003 16.5477C196.891 18.6835 196.941 20.9537 196.69 21.5928L191.604 20.3315ZM189.312 25.427C189.814 23.3753 191.587 22.2654 193.578 22.7531C195.653 23.2576 196.624 25.0738 196.155 27.1255C195.653 29.1435 193.913 30.3039 191.855 29.7993C189.814 29.2948 188.81 27.445 189.312 25.427Z" fill="#BED1F9"/>
<path d="M464.181 55.2684L457.062 60.4973L457.96 61.7329L465.079 56.504L464.181 55.2684Z" fill="#92B5F9"/>
<path d="M444.643 43.9993L442.991 53.1843L444.49 53.4564L446.141 44.2714L444.643 43.9993Z" fill="#92B5F9"/>
<path d="M458.363 76.3199L457.569 77.6256L465.834 82.7043L466.628 81.3987L458.363 76.3199Z" fill="#92B5F9"/>
<path d="M458.464 76.92L445.23 85.6143L431.31 80.0479L431.879 78.6353L445.063 83.899L456.908 76.1296L456.273 61.4654L443.34 54.3014L444.076 52.9729L457.745 60.5573L458.464 76.92Z" fill="#92B5F9"/>
<path d="M434.238 77.1554C435.476 78.7698 435.175 81.0906 433.569 82.335C431.962 83.5794 429.654 83.2767 428.415 81.6623C427.177 80.0479 427.479 77.7272 429.085 76.4828C430.691 75.2383 433 75.541 434.238 77.1554Z" fill="#BED1F9"/>
<path d="M448.275 82.9909C449.513 84.6053 449.212 86.926 447.606 88.1705C446 89.4149 443.691 89.1122 442.453 87.4978C441.215 85.8834 441.516 83.5627 443.122 82.3182C444.728 81.0737 447.037 81.3765 448.275 82.9909Z" fill="#BED1F9"/>
<path d="M460.656 74.2798C461.894 75.8942 461.593 78.2149 459.987 79.4593C458.381 80.7038 456.072 80.4011 454.834 78.7866C453.596 77.1722 453.897 74.8515 455.503 73.6071C457.126 72.3626 459.418 72.6653 460.656 74.2798Z" fill="#BED1F9"/>
<path d="M470.427 80.3843C471.665 81.9987 471.364 84.3194 469.758 85.5638C468.152 86.8083 465.843 86.5056 464.605 84.8912C463.367 83.2768 463.668 80.9561 465.274 79.7116C466.88 78.4672 469.189 78.7699 470.427 80.3843Z" fill="#BED1F9"/>
<path d="M469.641 52.4347C470.879 54.0492 470.578 56.3699 468.972 57.6143C467.365 58.8588 465.057 58.5561 463.819 56.9416C462.58 55.3272 462.882 53.0065 464.488 51.7621C466.111 50.5008 468.42 50.8035 469.641 52.4347Z" fill="#BED1F9"/>
<path d="M449.229 40.1249C450.467 41.7393 450.166 44.06 448.56 45.3045C446.953 46.5489 444.645 46.2462 443.406 44.6318C442.168 43.0174 442.469 40.6967 444.076 39.4522C445.699 38.1909 447.991 38.5105 449.229 40.1249Z" fill="#BED1F9"/>
<path d="M460.439 58.4047C461.677 60.0191 461.376 62.3399 459.77 63.5843C458.163 64.8288 455.855 64.5261 454.616 62.9116C453.378 61.2972 453.679 58.9765 455.286 57.7321C456.909 56.4876 459.201 56.7903 460.439 58.4047Z" fill="#BED1F9"/>
<path d="M446.652 51.0894C447.891 52.7038 447.589 55.0246 445.983 56.269C444.377 57.5134 442.068 57.2107 440.83 55.5963C439.592 53.9819 439.893 51.6612 441.499 50.4168C443.122 49.1723 445.414 49.475 446.652 51.0894Z" fill="#BED1F9"/>
<path d="M96.0029 32.1369L81.4301 31.4474L73.5498 43.791L80.2422 56.824L94.815 57.5135L102.695 45.1699L96.0029 32.1369ZM94.1625 56.2018L81.0453 55.5795L75.0221 43.8582L82.1161 32.7592L95.2332 33.3814L101.256 45.1027L94.1625 56.2018Z" fill="#BED1F9"/>
<path d="M81.5975 32.5405C81.4971 32.49 81.4135 32.4228 81.3465 32.3051L77.0634 23.9808C76.9295 23.7285 77.0299 23.4258 77.2809 23.2913C77.5319 23.1567 77.833 23.2576 77.9669 23.5099L82.25 31.8342C82.3839 32.0864 82.2835 32.3891 82.0325 32.5237C81.8819 32.6078 81.7314 32.6078 81.5975 32.5405Z" fill="#BED1F9"/>
<path d="M101.675 45.3717C101.507 45.2876 101.374 45.1195 101.374 44.9177C101.374 44.6318 101.591 44.4132 101.875 44.3963L112.667 44.2786C112.951 44.2786 113.169 44.4972 113.186 44.7831C113.186 45.069 112.968 45.2876 112.684 45.3045L101.892 45.4054C101.809 45.4054 101.742 45.4054 101.675 45.3717Z" fill="#BED1F9"/>
<path d="M63.5278 43.1182C63.3271 43.0342 63.2099 42.8324 63.2267 42.5969C63.2601 42.311 63.4944 42.1092 63.7788 42.1429L74.3863 43.2023C74.6707 43.236 74.8715 43.4714 74.838 43.7573C74.8046 44.0432 74.5703 44.245 74.2859 44.2113L63.6784 43.1519C63.6282 43.1519 63.578 43.1351 63.5278 43.1182Z" fill="#BED1F9"/>
<path d="M97.8264 44.8336C97.726 44.7999 97.6591 44.7159 97.5922 44.6318L92.9911 36.7783C92.8573 36.5429 92.9242 36.2234 93.1752 36.0888C93.4094 35.9543 93.7273 36.0216 93.8612 36.2738L98.4622 44.1273C98.5961 44.3627 98.5291 44.6822 98.2782 44.8168C98.1443 44.884 97.977 44.9008 97.8264 44.8336Z" fill="#BED1F9"/>
<path d="M82.7518 53.5615C82.5678 53.4774 82.4339 53.2756 82.4506 53.0738C82.4674 52.7879 82.7016 52.5861 82.986 52.6029L92.9076 53.2083C93.192 53.2251 93.3928 53.4606 93.376 53.7465C93.3593 54.0323 93.1251 54.2341 92.8407 54.2173L82.9191 53.6119C82.8689 53.5951 82.8187 53.5783 82.7518 53.5615Z" fill="#BED1F9"/>
<path d="M78.0672 43.4041C78.0505 43.3873 78.0337 43.3873 78.0003 43.3705C77.766 43.2191 77.6824 42.9164 77.833 42.6642L82.4173 35.1975C82.5679 34.9621 82.869 34.878 83.12 35.0294C83.3542 35.1807 83.4379 35.4834 83.2873 35.7357L78.703 43.2023C78.5691 43.4378 78.3014 43.505 78.0672 43.4041Z" fill="#BED1F9"/>
<path d="M320.969 23.039L332.363 28.6222L342.87 21.4919L341.983 8.77839L330.589 3.19522L320.082 10.3255L320.969 23.039ZM330.673 4.52375L340.879 9.51833L341.682 20.9033L332.279 27.2937L322.073 22.2991L321.27 10.9141L330.673 4.52375Z" fill="#BED1F9"/>
<path d="M300.189 24.9225L311.583 30.5057L322.09 23.3754L321.203 10.6619L309.809 5.0787L299.302 12.209L300.189 24.9225ZM309.893 6.40723L320.099 11.4018L320.902 22.7868L311.499 29.1772L301.293 24.1826L300.49 12.7976L309.893 6.40723Z" fill="#BED1F9"/>
<path d="M319.011 12.1417L319.714 22.1982L311.398 27.8486L302.38 23.4426L301.678 13.3694L309.993 7.73575L319.011 12.1417Z" fill="#92B5F9"/>
<path d="M330.957 27.3778C331.325 26.6042 332.262 26.2847 333.032 26.6546C333.801 27.0246 334.119 27.9663 333.751 28.7399C333.383 29.5135 332.446 29.833 331.677 29.463C330.907 29.0763 330.572 28.1513 330.957 27.3778Z" fill="#BED1F9"/>
<path d="M340.795 20.466C341.163 19.6925 342.1 19.373 342.87 19.7429C343.639 20.1129 343.957 21.0546 343.589 21.8282C343.221 22.6018 342.284 22.9213 341.514 22.5513C340.745 22.1814 340.427 21.2396 340.795 20.466Z" fill="#BED1F9"/>
<path d="M340.109 8.49253C340.477 7.71896 341.414 7.39944 342.184 7.76941C342.953 8.13938 343.271 9.08112 342.903 9.85469C342.535 10.6283 341.598 10.9478 340.829 10.5778C340.059 10.191 339.741 9.24929 340.109 8.49253Z" fill="#BED1F9"/>
<path d="M329.2 3.14476C329.568 2.37118 330.505 2.05166 331.275 2.42163C332.045 2.7916 332.363 3.73334 331.994 4.50692C331.626 5.28049 330.689 5.60001 329.92 5.23004C329.133 4.84325 328.816 3.91833 329.2 3.14476Z" fill="#BED1F9"/>
<path d="M319.212 10.46C319.58 9.68646 320.517 9.36694 321.286 9.73691C322.056 10.1069 322.374 11.0486 322.006 11.8222C321.638 12.5958 320.701 12.9153 319.931 12.5453C319.162 12.1585 318.844 11.2336 319.212 10.46Z" fill="#BED1F9"/>
<path d="M320.166 22.0973C320.534 21.3237 321.471 21.0042 322.24 21.3742C323.01 21.7441 323.328 22.6859 322.96 23.4595C322.592 24.233 321.655 24.5525 320.885 24.1826C320.116 23.8126 319.798 22.8709 320.166 22.0973Z" fill="#BED1F9"/>
<path d="M310.16 29.2613C310.528 28.4877 311.465 28.1682 312.235 28.5382C313.005 28.9081 313.322 29.8499 312.954 30.6234C312.586 31.397 311.649 31.7165 310.88 31.3466C310.093 30.9766 309.775 30.0348 310.16 29.2613Z" fill="#BED1F9"/>
<path d="M299.185 23.8967C299.553 23.1231 300.49 22.8036 301.259 23.1736C302.029 23.5436 302.347 24.4853 301.979 25.2589C301.611 26.0324 300.674 26.352 299.904 25.982C299.135 25.5952 298.817 24.6703 299.185 23.8967Z" fill="#BED1F9"/>
<path d="M298.399 11.9904C298.767 11.2168 299.704 10.8973 300.473 11.2673C301.243 11.6372 301.561 12.579 301.193 13.3526C300.825 14.1261 299.888 14.4456 299.118 14.0757C298.332 13.6889 298.014 12.764 298.399 11.9904Z" fill="#BED1F9"/>
<path d="M291.673 8.6943C292.392 7.21442 294.182 6.5922 295.655 7.31532C297.127 8.03845 297.746 9.83784 297.027 11.3177C296.307 12.7976 294.517 13.4198 293.045 12.6967C291.556 11.9736 290.953 10.191 291.673 8.6943Z" fill="#BED1F9"/>
<path d="M295.153 8.35796C296.056 8.7952 296.441 9.90511 296.006 10.8132C295.571 11.7213 294.467 12.1081 293.563 11.6709C292.66 11.2336 292.275 10.1237 292.71 9.21562C293.145 8.2907 294.232 7.90391 295.153 8.35796Z" fill="white"/>
<path d="M343.84 3.24569C344.559 1.76581 346.35 1.14359 347.822 1.86671C349.294 2.58984 349.913 4.38923 349.194 5.86911C348.474 7.34899 346.684 7.97121 345.212 7.24809C343.74 6.52496 343.121 4.74238 343.84 3.24569Z" fill="#BED1F9"/>
<path d="M347.32 2.90933C348.224 3.34656 348.609 4.45647 348.173 5.36458C347.738 6.27268 346.634 6.65947 345.731 6.22223C344.827 5.785 344.442 4.67509 344.877 3.76698C345.312 2.84206 346.4 2.45527 347.32 2.90933Z" fill="white"/>
<path d="M291.355 26.4024C292.074 24.9225 293.864 24.3003 295.337 25.0234C296.809 25.7465 297.428 27.5459 296.709 29.0258C295.989 30.5057 294.199 31.1279 292.727 30.4048C291.254 29.6817 290.635 27.8823 291.355 26.4024Z" fill="#BED1F9"/>
<path d="M294.835 26.0493C295.738 26.4865 296.123 27.5964 295.688 28.5045C295.253 29.4126 294.149 29.7994 293.245 29.3622C292.342 28.9249 291.957 27.815 292.392 26.9069C292.827 25.9988 293.931 25.612 294.835 26.0493Z" fill="white"/>
<path d="M308.604 4.49009C308.972 3.71652 309.909 3.397 310.679 3.76697C311.449 4.13694 311.767 5.07868 311.398 5.85225C311.03 6.62582 310.093 6.94534 309.324 6.57537C308.537 6.18859 308.22 5.26366 308.604 4.49009Z" fill="#BED1F9"/>
<path d="M344.775 5.61848L341.164 8.77454L341.845 9.56131L345.456 6.40526L344.775 5.61848Z" fill="#BED1F9"/>
<path d="M300.325 24.1321L295.948 26.4975L296.44 27.4157L300.816 25.0503L300.325 24.1321Z" fill="#BED1F9"/>
<path d="M296.625 10.3271L296.171 11.2645L299.646 12.9656L300.1 12.0282L296.625 10.3271Z" fill="#BED1F9"/>
</g>
<defs>
<clipPath id="clip0">
<rect width="485" height="323" fill="white"/>
</clipPath>
</defs>
</svg>
