<svg width="422" height="263" viewBox="0 0 422 263" fill="none" xmlns="http://www.w3.org/2000/svg">
<g clip-path="url(#clip0)">
<path d="M51.7445 257.684C27.0787 230.733 -14.2097 182.928 4.90835 146.207C12.5391 131.551 42.8558 123.259 48.8572 107.864C58.5297 83.0688 18.4787 67.3664 42.8351 32.9853C86.5572 -28.7365 168.33 34.9147 227.726 33.5395C265.054 32.6774 309.89 -16.7493 346.951 50.104C354.313 63.3843 352.189 89.9655 363.759 99.8385C388.507 121.001 421.897 136.888 410.389 178.31C398.778 220.08 376.896 240.565 345.672 258.012C345.651 258.033 51.7445 257.684 51.7445 257.684Z" fill="#E3EAFF"/>
<path d="M106.727 258.012C106.727 258.012 104.747 258.074 103.139 259.038C100.581 255.877 80.535 238.102 60.5095 238.122C66.7378 236.234 73.3786 235.947 79.8132 237.158C95.1365 240.093 102.355 250.643 106.727 258.012Z" fill="#7C9AF2"/>
<path d="M81.0713 246.497C81.2776 246.394 81.3601 246.169 81.2776 245.963L78.2253 238.923C78.1221 238.718 77.8747 238.615 77.6684 238.697C77.4622 238.8 77.3591 239.046 77.4416 239.251L80.4939 246.292C80.597 246.497 80.8445 246.6 81.0507 246.518L81.0713 246.497Z" fill="#92B5F8"/>
<path d="M88.2896 249.083C88.4958 248.981 88.5783 248.755 88.4958 248.55L85.4435 241.509C85.3404 241.304 85.0929 241.201 84.8867 241.283C84.6805 241.386 84.5773 241.632 84.6598 241.838L87.7121 248.878C87.8153 249.083 88.0627 249.186 88.269 249.104C88.269 249.083 88.2896 249.083 88.2896 249.083Z" fill="#92B5F8"/>
<path d="M103.303 253.25C103.407 253.373 103.489 253.517 103.592 253.64C103.51 253.496 103.407 253.373 103.303 253.25Z" fill="#92B5F8"/>
<path d="M60.5095 238.122C63.4793 242.802 66.5935 245.471 66.5935 245.471L72.2237 243.972L69.2333 247.236C69.2333 247.236 85.5466 262.651 98.8488 261.707C100.169 261.05 101.674 259.901 103.118 259.039C100.561 255.898 80.5144 238.102 60.5095 238.122Z" fill="#92B5F8"/>
<path d="M116.875 258.033C116.875 258.033 114.978 258.033 112.606 257.951C112.049 252.86 102.996 220.368 81.7534 206.779C89.6523 208.996 97.118 212.999 102.872 218.869C104.027 220.039 105.099 221.25 106.089 222.502V227.387L108.605 226.053C114.545 235.31 117.309 247.236 116.875 258.033Z" fill="#7C9AF2"/>
<path d="M97.8177 229.645C98.1064 229.666 98.3539 229.481 98.3952 229.194L99.9832 219.649C100.024 219.362 99.8388 219.074 99.5501 219.033C99.2614 218.992 98.9726 219.177 98.9314 219.464L97.3434 229.009C97.3021 229.296 97.4877 229.584 97.7765 229.625C97.7971 229.645 97.8177 229.645 97.8177 229.645Z" fill="#92B5F8"/>
<path d="M116.791 251.916C116.812 252.121 116.812 252.326 116.833 252.511C116.812 252.326 116.791 252.121 116.791 251.916Z" fill="#92B5F8"/>
<path d="M81.7519 206.8C81.69 213.779 83.1749 218.746 83.1749 218.746L90.1869 220.984L84.7836 222.4C84.7836 222.4 91.5068 249.843 106.253 257.889C108.088 258.074 110.481 257.91 112.605 257.972C112.048 252.861 102.994 220.388 81.7519 206.8Z" fill="#92B5F8"/>
<path d="M378.69 113.345C378.134 113.345 377.68 112.914 377.659 112.359C377.639 111.785 378.092 111.313 378.649 111.292C381.206 111.19 383.619 110.923 385.806 110.451C386.362 110.327 386.919 110.697 387.022 111.251C387.146 111.805 386.775 112.359 386.218 112.462C383.908 112.955 381.392 113.242 378.711 113.345C378.732 113.345 378.711 113.345 378.69 113.345ZM371.307 113.139C371.287 113.139 371.245 113.139 371.225 113.139C368.832 112.934 366.316 112.606 363.8 112.154C363.243 112.052 362.872 111.518 362.975 110.964C363.078 110.41 363.615 110.04 364.171 110.143C366.626 110.594 369.059 110.923 371.39 111.107C371.967 111.148 372.38 111.662 372.338 112.216C372.297 112.729 371.843 113.139 371.307 113.139ZM356.768 110.533C356.685 110.533 356.582 110.512 356.499 110.492C354.086 109.855 351.694 109.096 349.364 108.275C348.827 108.09 348.539 107.495 348.745 106.961C348.931 106.427 349.529 106.14 350.065 106.345C352.333 107.146 354.685 107.885 357.036 108.521C357.592 108.665 357.922 109.24 357.757 109.794C357.654 110.245 357.221 110.533 356.768 110.533ZM393.003 110.122C392.632 110.122 392.261 109.917 392.075 109.568C391.807 109.055 392.013 108.439 392.529 108.172C394.736 107.064 396.571 105.627 398.015 103.964C398.386 103.533 399.046 103.472 399.479 103.841C399.912 104.211 399.974 104.867 399.603 105.299C397.973 107.187 395.932 108.767 393.477 110.02C393.333 110.081 393.168 110.122 393.003 110.122ZM342.867 105.586C342.723 105.586 342.579 105.565 342.434 105.483C340.062 104.395 337.856 103.246 335.876 102.055C335.381 101.768 335.237 101.132 335.525 100.639C335.814 100.146 336.453 100.003 336.948 100.29C338.866 101.44 340.991 102.569 343.3 103.615C343.816 103.862 344.043 104.457 343.816 104.991C343.63 105.36 343.259 105.586 342.867 105.586ZM402.243 99.2023C402.139 99.2023 402.057 99.1818 401.954 99.1613C401.397 98.997 401.088 98.4428 401.253 97.8886C401.459 97.1908 401.624 96.4518 401.748 95.6924C401.974 94.3992 402.078 93.1061 402.078 91.895C402.078 91.5666 402.078 91.2587 402.057 90.9508C402.036 90.3761 402.469 89.904 403.047 89.863C403.624 89.8424 404.099 90.2735 404.14 90.8482C404.16 91.1972 404.16 91.5461 404.16 91.895C404.16 93.2292 404.037 94.625 403.81 96.0413C403.666 96.8623 403.48 97.6834 403.253 98.4634C403.109 98.9149 402.696 99.2023 402.243 99.2023ZM385.806 85.4704C385.372 85.4704 384.981 85.2036 384.816 84.7725C384.63 84.2388 384.919 83.6436 385.455 83.4588C387.332 82.8225 389.435 81.632 391.559 79.9899C392.013 79.641 392.653 79.7231 393.003 80.1747C393.354 80.6263 393.271 81.2626 392.818 81.6115C390.487 83.3973 388.239 84.6699 386.115 85.3883C386.032 85.4499 385.909 85.4704 385.806 85.4704ZM401.335 84.8341C400.943 84.8341 400.572 84.6288 400.407 84.2594C399.417 82.2068 397.973 80.3799 396.159 78.82C395.725 78.4505 395.664 77.7937 396.035 77.3626C396.406 76.9316 397.066 76.87 397.499 77.2395C399.541 78.9636 401.129 81.0162 402.263 83.3357C402.511 83.8488 402.304 84.4646 401.789 84.7109C401.644 84.8136 401.479 84.8341 401.335 84.8341ZM378.855 84.6494C378.587 84.6494 378.34 84.5467 378.134 84.362C377.515 83.7667 377.02 83.0278 376.628 82.1452C376.071 80.8726 375.782 79.6615 375.782 78.5326C375.782 77.7937 375.906 77.0752 376.154 76.4389C376.36 75.9053 376.958 75.6384 377.494 75.8437C378.03 76.049 378.299 76.6442 378.092 77.1779C377.927 77.5884 377.845 78.04 377.845 78.5326C377.845 79.3536 378.072 80.2978 378.525 81.3241C378.794 81.9604 379.144 82.4736 379.577 82.8841C379.99 83.2741 379.99 83.9309 379.598 84.3415C379.392 84.5467 379.123 84.6494 378.855 84.6494ZM397.582 76.8084C397.334 76.8084 397.087 76.7263 396.901 76.5416C396.468 76.1516 396.447 75.5153 396.819 75.0842C398.386 73.3395 399.891 71.4101 401.253 69.378C401.562 68.9059 402.201 68.7827 402.696 69.0906C403.171 69.3985 403.294 70.0348 402.985 70.5275C401.562 72.6416 400.015 74.6532 398.386 76.4595C398.159 76.6853 397.87 76.8084 397.582 76.8084ZM390.446 75.4332C390.322 75.4332 390.219 75.4126 390.095 75.3716C388.136 74.6737 386.136 74.3042 384.279 74.3042C383.929 74.3042 383.578 74.3248 383.248 74.3453C382.671 74.3863 382.176 73.9758 382.135 73.4011C382.093 72.8264 382.506 72.3337 383.083 72.2927C383.475 72.2722 383.867 72.2516 384.279 72.2516C386.362 72.2516 388.61 72.6622 390.776 73.4216C391.312 73.6064 391.601 74.2016 391.395 74.7353C391.271 75.1663 390.879 75.4332 390.446 75.4332ZM405.769 64.5954C405.625 64.5954 405.46 64.5544 405.315 64.4928C404.8 64.2465 404.594 63.6307 404.841 63.1175C405.893 60.9418 406.8 58.6839 407.522 56.4261C407.687 55.8924 408.285 55.5845 408.821 55.7487C409.358 55.9129 409.667 56.5082 409.502 57.0418C408.76 59.4023 407.811 61.7423 406.718 64.0207C406.512 64.3696 406.161 64.5954 405.769 64.5954ZM410.183 50.5967C410.121 50.5967 410.079 50.5967 410.018 50.5761C409.461 50.494 409.069 49.9604 409.151 49.4062C409.481 47.2509 409.646 45.0752 409.646 42.961C409.646 42.7352 409.646 42.4889 409.646 42.2631C409.646 41.6884 410.1 41.2163 410.657 41.2163C411.234 41.2163 411.709 41.6679 411.709 42.2221C411.709 42.4684 411.709 42.7147 411.709 42.961C411.709 45.1983 411.523 47.4767 411.193 49.7346C411.131 50.2272 410.698 50.5967 410.183 50.5967ZM409.914 35.9616C409.44 35.9616 409.007 35.6127 408.904 35.1406C408.43 32.8211 407.749 30.5017 406.883 28.2644C406.677 27.7307 406.945 27.1354 407.46 26.9302C407.996 26.7249 408.595 26.9917 408.801 27.5049C409.729 29.8449 410.451 32.2875 410.925 34.7301C411.028 35.2843 410.678 35.8385 410.121 35.9411C410.038 35.9616 409.976 35.9616 409.914 35.9616ZM404.614 22.2913C404.243 22.2913 403.892 22.1065 403.707 21.7576C402.469 19.6024 401.129 17.5703 399.726 15.7435C399.376 15.2919 399.458 14.6556 399.912 14.3067C400.366 13.9577 401.005 14.0398 401.356 14.4914C402.82 16.4003 404.222 18.494 405.501 20.7518C405.79 21.2445 405.604 21.8808 405.109 22.1476C404.965 22.2502 404.8 22.2913 404.614 22.2913ZM348.766 12.0488C348.518 12.0488 348.25 11.9462 348.044 11.7614C347.631 11.3714 347.611 10.7146 348.003 10.3041C349.694 8.53885 351.674 6.93782 353.921 5.52152C354.396 5.21363 355.035 5.35731 355.345 5.84994C355.654 6.32204 355.51 6.95834 355.015 7.26623C352.911 8.5799 351.055 10.0988 349.487 11.7204C349.322 11.9462 349.034 12.0488 348.766 12.0488ZM395.56 10.7351C395.313 10.7351 395.066 10.653 394.859 10.4683C393.044 8.82621 391.106 7.40991 389.105 6.23993C388.61 5.95257 388.445 5.31626 388.734 4.82364C389.023 4.33101 389.662 4.1668 390.157 4.45417C392.302 5.70625 394.344 7.20465 396.262 8.94937C396.674 9.33936 396.715 9.97567 396.324 10.4067C396.138 10.6325 395.849 10.7351 395.56 10.7351ZM361.119 4.18733C360.707 4.18733 360.294 3.92049 360.15 3.50997C359.944 2.97629 360.232 2.38104 360.769 2.1963C363.161 1.31368 365.636 0.677378 368.131 0.30791C368.688 0.225806 369.224 0.6158 369.307 1.17C369.389 1.72421 368.997 2.25788 368.44 2.33999C366.089 2.68893 363.759 3.28418 361.49 4.12575C361.367 4.1668 361.243 4.18733 361.119 4.18733ZM382.898 3.40734C382.794 3.40734 382.691 3.38681 382.588 3.36629C380.32 2.6684 377.969 2.23736 375.576 2.07315C374.999 2.0321 374.586 1.53947 374.607 0.964743C374.648 0.390014 375.143 -0.0410327 375.721 1.9385e-05C378.278 0.184754 380.794 0.636326 383.207 1.39579C383.743 1.56 384.053 2.13473 383.888 2.68893C383.743 3.11998 383.331 3.40734 382.898 3.40734Z" fill="#0B0754"/>
<path d="M330.431 241.612C332.555 235.003 338.062 230.384 346.971 227.716C342.847 236.008 337.319 240.647 330.431 241.612Z" fill="#7C9AF2"/>
<path d="M360.933 228.516C356.046 234.654 350.642 237.527 344.764 237.117C347.714 232.006 353.096 229.153 360.933 228.516Z" fill="#7C9AF2"/>
<path d="M370.833 232.539C365.883 236.87 361.016 238.451 356.252 237.24C359.428 233.484 364.295 231.903 370.833 232.539Z" fill="#7C9AF2"/>
<path d="M360.067 240.688C364.377 238.307 369.471 238.574 375.39 241.489C369.203 243.788 364.089 243.521 360.067 240.688Z" fill="#7C9AF2"/>
<path d="M327.998 246.271C334.638 246.148 340.537 249.679 345.693 256.863C336.907 255.693 331.009 252.162 327.998 246.271Z" fill="#7C9AF2"/>
<path d="M354.004 252.306C346.353 251.28 341.217 248.221 338.598 243.09C344.373 242.967 349.508 246.046 354.004 252.306Z" fill="#7C9AF2"/>
<path d="M349.859 241.94C355.633 241.838 360.748 244.917 365.264 251.157C357.613 250.13 352.478 247.072 349.859 241.94Z" fill="#7C9AF2"/>
<path d="M315.252 251.731C322.388 250.151 329.524 252.675 336.68 259.326C326.946 259.983 319.789 257.458 315.252 251.731Z" fill="#7C9AF2"/>
<path d="M358.252 240.709C358.211 240.852 358.129 240.955 358.005 241.037L357.737 241.181C357.592 241.201 357.427 241.201 357.283 241.16L357.242 241.222L356.932 241.119C353.323 240.462 348.126 240.832 341.341 242.187C335.422 243.316 329.647 245.081 324.12 247.441C321.336 248.611 318.593 249.904 315.953 251.362L315.273 251.752C309.746 254.79 307.498 255.672 304.198 257.725H301.909C306.611 254.584 308.756 253.907 315.397 250.315C318.181 248.796 320.944 247.441 323.667 246.271C329.276 243.931 335.133 242.187 341.114 241.099C348.106 239.682 353.447 239.334 357.118 240.072L357.592 239.99C357.716 239.908 357.881 239.929 357.964 240.052C358.108 240.093 358.211 240.175 358.294 240.298C358.314 240.421 358.294 240.565 358.252 240.709Z" fill="#7C9AF2"/>
<path d="M339.61 220.449L326.679 223.179L336.083 226.689C336.083 226.689 332.165 247.77 304.323 259.469C301.002 259.469 296.527 259.203 292.753 258.936C288.505 258.628 285.122 258.299 285.122 258.299C285.122 258.299 274.15 211.87 344.333 199.369C343.136 211.87 339.61 220.449 339.61 220.449Z" fill="#92B5F8"/>
<path d="M344.311 199.39C303.889 219.813 294.649 249.966 292.731 258.957C288.483 258.649 285.101 258.32 285.101 258.32C285.101 258.32 274.129 211.87 344.311 199.39Z" fill="#7C9AF2"/>
<path d="M311.437 237.322C310.942 237.322 310.509 236.932 310.488 236.419L309.374 219.074C309.333 218.541 309.746 218.089 310.282 218.069C310.818 218.027 311.272 218.438 311.292 218.972L312.406 236.316C312.447 236.85 312.035 237.301 311.499 237.322C311.478 237.322 311.457 237.322 311.437 237.322Z" fill="#92B5F8"/>
<path d="M299.516 244.321C299.021 244.321 298.588 243.931 298.568 243.418L297.454 226.074C297.413 225.54 297.825 225.088 298.361 225.068C298.898 225.027 299.351 225.437 299.372 225.971L300.486 243.315C300.527 243.849 300.114 244.301 299.578 244.321C299.558 244.321 299.537 244.321 299.516 244.321Z" fill="#92B5F8"/>
<path d="M209.742 202.838C209.742 202.838 208.072 208.442 214.444 216.406C220.941 224.514 221.497 231.02 221.497 231.02L226.365 233.607C226.365 233.607 225.024 223.795 219.497 217.535C212.567 209.694 209.742 202.838 209.742 202.838Z" fill="#7C9AF2"/>
<path d="M198.213 208.298C198.213 208.298 198.378 212.609 204.648 217.309C211.041 222.071 212.939 226.689 212.939 226.689L216.96 228.66C216.96 228.66 213.681 220.901 208.401 217.288C201.761 212.773 198.213 208.298 198.213 208.298Z" fill="#7C9AF2"/>
<path d="M220.776 210.392C220.776 210.392 225.086 212.157 229.768 222.092C233.603 230.179 232.634 235.064 235.006 240.031L228.468 235.516C227.334 231.883 229.169 228.906 226.055 221.414C223.147 214.374 220.776 210.392 220.776 210.392Z" fill="#7C9AF2"/>
<path d="M261.26 234.613C261.26 234.613 263.858 238.471 262.188 249.309C260.827 258.156 256.805 260.167 256.393 262.241L253.65 258.525C255.217 254.831 257.877 254.646 259.507 246.682C260.992 239.231 261.26 234.613 261.26 234.613Z" fill="#7C9AF2"/>
<path d="M230.922 215.01C230.922 215.01 235.13 221.825 236.759 226.402C239.089 232.909 237.233 237.076 239.131 243.89L243.833 247.544C243.833 247.544 245.483 239.6 242.286 231.677C236.944 218.397 230.922 215.01 230.922 215.01Z" fill="#7C9AF2"/>
<path d="M244.534 215.626C244.761 220.101 245.648 224.534 247.153 228.763C251.814 241.55 247.834 252.614 247.834 252.614L250.412 255.077C250.412 255.077 257.403 246.23 253.175 235.618C248.721 224.39 244.534 215.626 244.534 215.626Z" fill="#7C9AF2"/>
<path d="M228.963 236.378C228.963 236.378 225.602 235.967 213 240.524C204.937 243.439 206.648 239.765 199.348 243.87C205.432 243.069 208.443 246.949 216.115 244.67C222.24 242.843 228.509 241.509 234.841 240.647L228.963 236.378Z" fill="#7C9AF2"/>
<path d="M205.7 250.397C205.7 250.397 212.237 255.631 223.56 252.244C230.531 250.171 237.79 249.268 245.07 249.535L240.306 244.547C240.306 244.547 234.758 242.166 223.333 246.826C215.455 250.007 205.7 250.397 205.7 250.397Z" fill="#7C9AF2"/>
<path d="M215.022 259.736C215.022 259.736 221.559 264.971 232.882 261.584C239.853 259.511 247.112 258.607 254.392 258.874L249.628 253.886C249.628 253.886 244.08 251.505 232.655 256.165C224.777 259.346 215.022 259.736 215.022 259.736Z" fill="#7C9AF2"/>
<path d="M192.851 231.246C192.851 231.246 197.265 233.73 204.339 231.328C211.516 228.886 217.27 229.255 217.27 229.255L214.712 227.572C214.712 227.572 211.206 226.074 203.988 229.009C199.018 231 192.851 231.246 192.851 231.246Z" fill="#7C9AF2"/>
<path d="M221.188 232.088C221.188 232.088 215.393 232.786 207.246 235.372C202.091 236.994 194.398 235.413 194.398 235.413C194.398 235.413 201.472 241.694 209.061 238.779C217.765 235.434 226.942 234.654 226.942 234.654L221.188 232.088Z" fill="#7C9AF2"/>
<path d="M215.455 228.291C215.455 228.291 209.103 221.989 200.874 222.317C196.007 222.461 191.139 221.784 186.479 220.326C186.479 220.326 192.562 226.936 200.069 225.827C207.02 224.842 212.753 228.27 212.753 228.27L215.455 228.291Z" fill="#7C9AF2"/>
<path d="M255.774 262.507L256.846 261.748C252.144 255.159 233.047 234.571 213.062 226.669L212.567 227.88C232.284 235.7 251.134 256.001 255.774 262.507Z" fill="#7C9AF2"/>
<path d="M345.651 263H46.7948C45.3306 263 44.155 261.83 44.155 260.373C44.155 258.915 45.3306 257.745 46.7948 257.745H345.651C347.116 257.745 348.291 258.915 348.291 260.373C348.291 261.809 347.116 263 345.651 263Z" fill="#95A6DB"/>
<path d="M52.715 127.649L32.4319 140.469L32.8963 141.196L53.1794 128.377L52.715 127.649Z" fill="white"/>
<path d="M55.506 131.793L35.7603 144.266L36.2244 144.994L55.9702 132.52L55.506 131.793Z" fill="white"/>
<path d="M55.9428 137.524L39.9949 147.603L40.4592 148.331L56.4072 138.252L55.9428 137.524Z" fill="white"/>
<path d="M55.4254 143.758L46.1445 149.621L46.6087 150.349L55.8896 144.486L55.4254 143.758Z" fill="white"/>
<path d="M61.6505 151.785L50.5601 158.794L51.0244 159.522L62.1149 152.512L61.6505 151.785Z" fill="white"/>
<path d="M67.6466 153.956L49.9924 165.114L50.4568 165.842L68.111 154.684L67.6466 153.956Z" fill="white"/>
<path d="M71.6689 157.367L51.3857 170.187L51.8501 170.914L72.1333 158.095L71.6689 157.367Z" fill="white"/>
<path d="M74.3737 161.619L54.0906 174.439L54.5549 175.166L74.8381 162.347L74.3737 161.619Z" fill="white"/>
<path d="M76.4864 166.246L57.4045 178.306L57.8689 179.034L76.9508 166.973L76.4864 166.246Z" fill="white"/>
<path d="M76.5823 172.151L62.7236 180.91L63.188 181.638L77.0467 172.879L76.5823 172.151Z" fill="white"/>
<path d="M74.9451 179.087L70 182.211L70.4642 182.939L75.4093 179.815L74.9451 179.087Z" fill="white"/>
<path d="M78.2721 182.949L72.0732 186.865L72.5374 187.593L78.7363 183.677L78.2721 182.949Z" fill="white"/>
<path d="M84.4835 185.008L70.677 193.732L71.1413 194.46L84.9478 185.735L84.4835 185.008Z" fill="white"/>
<path d="M89.756 187.638L71.1616 199.388L71.6259 200.116L90.2202 188.366L89.756 187.638Z" fill="white"/>
<path d="M93.3137 191.351L73.0305 204.168L73.4948 204.896L93.778 192.079L93.3137 191.351Z" fill="white"/>
<path d="M51.2288 149.286C35.6168 148.136 32.8945 137.873 32.7501 137.483C32.6882 136.744 32.0489 136.19 31.3271 136.252C30.5846 136.313 30.0278 136.95 30.0897 137.668C30.1103 137.812 30.1309 137.956 30.1928 138.099C30.3165 138.592 33.3688 150.641 51.002 151.934C63.438 152.857 68.2639 154.294 72.4711 160.965L72.863 161.581C77.0496 168.252 76.2453 173.219 71.6875 184.755C65.191 201.094 74.7191 209.099 75.1316 209.427C75.5647 209.776 76.1834 209.817 76.6577 209.53C76.7815 209.448 76.8846 209.345 76.9671 209.242C77.4208 208.688 77.3383 207.867 76.7815 207.416C76.7196 207.334 68.3258 200.314 74.1417 185.699C78.6376 174.41 80.1844 168.211 75.1316 160.165L74.7397 159.549C69.7695 151.482 63.4174 150.21 51.2288 149.286Z" fill="#92B5F8"/>
<path d="M55.4566 149.163C61.953 132.803 52.4249 124.819 52.0125 124.49C51.5381 123.916 50.7132 123.834 50.1357 124.306C49.5582 124.778 49.4758 125.599 49.9501 126.174C50.0532 126.317 50.1976 126.42 50.3626 126.502C50.7132 126.81 58.777 133.707 53.0024 148.219C48.5064 159.528 46.9597 165.727 52.0125 173.773L52.4043 174.389C57.4571 182.435 63.7679 183.729 75.9358 184.632C91.5273 185.802 94.2702 196.024 94.4146 196.455C94.6002 197.153 95.3014 197.563 96.0026 197.419C96.1469 197.399 96.2913 197.337 96.4151 197.255C96.8894 196.947 97.1162 196.393 96.9925 195.839C96.8688 195.326 93.8165 183.297 76.1833 182.004C63.7267 181.081 58.9007 179.623 54.7141 172.973L54.3223 172.357C50.0532 165.666 50.8575 160.698 55.4566 149.163Z" fill="#92B5F8"/>
<path d="M325.812 190.235H76.4722C69.0684 190.235 63.0669 184.262 63.0669 176.893V64.8007C63.0669 57.4318 69.0684 51.4587 76.4722 51.4587H325.812C333.215 51.4587 339.217 57.4318 339.217 64.8007V176.893C339.217 184.262 333.215 190.235 325.812 190.235Z" fill="#78A5FF"/>
<path d="M288.648 68.1259V177.817C288.648 179.398 287.39 180.67 285.822 180.67H137.683C136.116 180.67 134.858 179.398 134.858 177.817V68.1259C134.858 66.5454 136.116 65.2728 137.683 65.2728H285.822C287.369 65.2934 288.648 66.566 288.648 68.1259Z" fill="#D4DEFF"/>
<path d="M195.924 128.308C195.924 128.308 184.024 140.685 180.023 151.236C184.726 149.861 194.542 149.655 194.542 149.655L205.329 137.709L195.924 128.308Z" fill="#DE623C"/>
<path d="M203.699 130.956C195.945 129.745 179.013 124.737 184.437 112.893C189.881 101.05 193.8 104.888 188.665 92.7572C183.529 80.6263 190.645 68.947 199.74 69.8091C208.835 70.6712 212.382 77.1985 222.59 73.4217C232.799 69.6449 243.482 77.7937 241.152 87.0715C238.821 96.3493 237.914 100.783 242.554 104.785C247.174 108.788 264.91 110.676 260.105 123.3C255.299 135.944 251.979 135.862 255.526 141.178C259.074 146.515 254.743 154.171 244.864 155.136C234.985 156.101 225.498 154.13 219.848 144.011C214.217 133.932 203.699 130.956 203.699 130.956Z" fill="#060534"/>
<path d="M225.251 108.932L224.756 122.766C224.756 122.766 217.517 127.918 211.907 124.491C212.774 120.201 213.949 113.14 213.949 113.14L225.251 108.932Z" fill="#DE623C"/>
<path d="M211.825 118.127C211.825 118.127 202.75 119.277 193.016 131.551C194.377 132.496 200.502 138.099 200.502 138.099L211.825 118.127Z" fill="#5578E6"/>
<path d="M198.358 100.434C200.296 111.066 208.298 118.538 216.259 117.101C224.199 115.664 229.087 105.894 227.148 95.2408C225.21 84.6083 217.208 77.1369 209.247 78.5737C201.286 80.0105 196.419 89.8014 198.358 100.434Z" fill="#F37A50"/>
<path d="M228.097 95.0766C219.971 95.4871 211.784 92.4287 206.566 87.482C205.081 94.625 198.358 100.434 198.358 100.434C198.358 100.434 190.397 88.7135 199.43 79.99C208.03 71.6769 232.242 71.9438 228.097 95.0766Z" fill="#060534"/>
<path d="M225.272 97.1087C223.993 99.4897 224.405 102.179 226.179 103.102C227.953 104.046 230.407 102.877 231.686 100.495C232.964 98.1145 232.552 95.4255 230.778 94.5019C229.004 93.5782 226.53 94.7482 225.272 97.1087Z" fill="#F37A50"/>
<path d="M227.54 101.358C227.602 101.337 227.664 101.316 227.726 101.275C227.952 101.132 228.014 100.824 227.87 100.598C227.375 99.8386 227.251 99.1818 227.478 98.6276C227.849 97.786 229.025 97.3344 229.932 97.2113C230.2 97.1702 230.386 96.9239 230.345 96.6571C230.304 96.3902 230.056 96.2055 229.788 96.2466C228.592 96.4108 227.128 97.0265 226.571 98.2376C226.303 98.8328 226.158 99.8386 227.024 101.152C227.148 101.296 227.334 101.378 227.54 101.358Z" fill="#DE623C"/>
<path d="M233.48 167.513C232.964 164.598 232.593 160.575 233.047 155.423C233.109 155.136 233.191 154.848 233.274 154.541C233.872 152.18 234.573 149.43 235.295 146.515C235.439 145.92 235.583 145.324 235.728 144.709C237.625 136.827 239.378 128.165 238.636 123.218C238.491 122.274 238.264 121.453 237.935 120.816C237.935 120.529 237.357 120.036 236.408 119.503C233.583 117.84 227.561 115.562 225.148 115.787C225.148 115.787 225.086 115.952 224.962 116.239C224.261 117.963 221.415 123.998 216.321 123.587C213.434 123.362 213.124 118.456 213.104 117.861C213.104 117.82 213.104 117.799 213.104 117.799C212.65 117.861 212.217 117.984 211.784 118.127C207.638 119.605 204.174 124.86 201.802 130.607C201.451 131.469 201.121 132.331 200.812 133.214C200.668 133.645 200.523 134.076 200.379 134.507C200.07 135.451 199.884 136.457 199.801 137.504C199.636 139.372 199.781 141.383 200.049 143.498C200.173 144.524 200.338 145.55 200.503 146.618C201.328 151.872 202.338 157.373 201.389 162.997C200.936 165.625 198.42 174.677 196.894 180.67H239.873C237.625 175.457 233.665 168.129 233.48 167.513Z" fill="#7A94E6"/>
<path d="M240.822 135.574C237.295 143.374 225.519 161.376 219.249 163.49L211.021 153.863C211.021 153.863 213.763 149.347 216.486 143.826C220.26 136.149 226.529 127.487 228.056 125.188C232.593 118.23 246.617 122.848 240.822 135.574Z" fill="#F37A50"/>
<path d="M179.425 169.483C179.425 169.483 179.92 169.566 180.786 169.668C186.169 170.366 206.339 172.213 219.229 163.469C219.909 162.648 211.804 153.411 211.804 153.411C211.557 153.535 211.289 153.637 211.041 153.76C209.164 154.623 207.246 155.423 205.37 156.203C199.533 158.564 193.8 160.472 189.18 161.868C184.086 163.408 180.374 164.352 179.425 164.578C179.26 164.619 179.178 164.639 179.178 164.639L179.425 169.483Z" fill="#F37A50"/>
<path d="M181.488 168.827C179.26 172.213 171.506 174.163 166.639 172.09C161.771 170.038 165.607 166.302 168.041 166.076C170.495 165.85 173.733 166.035 173.548 164.783C173.362 163.531 172.063 163.161 171.774 161.663C171.526 160.329 176.146 160.288 179.405 164.578C180.312 166.405 181.488 168.827 181.488 168.827Z" fill="#F37A50"/>
<path d="M237.151 119.564C238.532 120.036 244.534 120.878 241.461 134.774C240.121 140.172 235.645 146.7 235.645 146.7C235.645 146.7 226.241 141.445 220.796 133.85C221.745 131.141 230.036 118.271 237.151 119.564Z" fill="#5578E6"/>
<path d="M208.69 145.673C203.431 146.166 198.048 144.175 186.561 146.987C176.125 149.553 179.405 157.127 184.705 157.619C192.253 158.338 209.969 149.902 209.969 149.902L208.69 145.673Z" fill="#DE623C"/>
<path d="M219.538 142.902C219.951 140.419 219.724 138.202 222.137 139.187C224.55 140.172 223.89 143.58 223.663 145.263C223.415 146.946 223.065 148.198 224.261 147.767C225.457 147.336 225.932 149.368 224.591 150.066C223.25 150.764 221.126 149.696 220.549 152.098C219.971 154.5 218.053 159.262 217.125 157.414C216.197 155.567 218.012 153.227 216.981 152.899C215.95 152.57 214.465 151.77 215.909 150.743C217.373 149.696 218.26 149.245 218.115 147.788C217.991 146.351 219.538 142.902 219.538 142.902Z" fill="#FA897A"/>
<path d="M198.729 159.857C201.307 159.385 203.225 162.443 200.626 162.956C198.028 163.469 196.914 161.889 195.182 163.223C193.47 164.557 189.386 166.466 190.438 164.68C191.49 162.895 194.501 160.637 198.729 159.857Z" fill="#FA897A"/>
<path d="M219.538 149.984C219.538 150.517 219.971 150.969 220.528 150.969C221.064 150.969 221.518 150.538 221.518 149.984C221.518 149.45 221.085 148.999 220.528 148.999C219.971 149.019 219.538 149.45 219.538 149.984Z" fill="#FA0C44"/>
<path d="M220.508 154.397C220.817 154.705 221.291 154.705 221.601 154.397C221.91 154.089 221.91 153.617 221.601 153.309C221.291 153.001 220.817 153.001 220.508 153.309C220.219 153.617 220.219 154.11 220.508 154.397Z" fill="#FA0C44"/>
<path d="M220.755 142.902C220.755 143.436 221.188 143.888 221.745 143.888C222.281 143.888 222.735 143.457 222.735 142.902C222.735 142.369 222.302 141.917 221.745 141.917C221.188 141.917 220.755 142.348 220.755 142.902Z" fill="#FA0C44"/>
<path d="M217.27 150.066C217.611 150.066 217.888 149.79 217.888 149.45C217.888 149.11 217.611 148.834 217.27 148.834C216.928 148.834 216.651 149.11 216.651 149.45C216.651 149.79 216.928 150.066 217.27 150.066Z" fill="#FA0C44"/>
<path d="M216.362 155.587C216.362 155.936 216.651 156.203 216.981 156.203C217.331 156.203 217.599 155.916 217.599 155.587C217.599 155.238 217.311 154.972 216.981 154.972C216.63 154.972 216.362 155.238 216.362 155.587Z" fill="#FA0C44"/>
<path d="M223.188 148.547C223.188 148.896 223.477 149.163 223.807 149.163C224.137 149.163 224.426 148.875 224.426 148.547C224.426 148.198 224.137 147.931 223.807 147.931C223.477 147.931 223.188 148.198 223.188 148.547Z" fill="#FA0C44"/>
<path d="M216.177 151.852C216.177 152.098 216.383 152.303 216.63 152.303C216.878 152.303 217.084 152.098 217.084 151.852C217.084 151.605 216.878 151.4 216.63 151.4C216.383 151.38 216.177 151.585 216.177 151.852Z" fill="#FA0C44"/>
<path d="M218.548 152.508C218.548 152.714 218.713 152.878 218.92 152.878C219.126 152.878 219.291 152.714 219.291 152.508C219.291 152.303 219.126 152.139 218.92 152.139C218.713 152.139 218.548 152.303 218.548 152.508Z" fill="#FA0C44"/>
<path d="M224.777 147.336C224.777 147.541 224.942 147.705 225.148 147.705C225.354 147.705 225.519 147.541 225.519 147.336C225.519 147.131 225.354 146.966 225.148 146.966C224.942 146.966 224.777 147.131 224.777 147.336Z" fill="#FA0C44"/>
<path d="M217.6 157.229C217.6 157.435 217.765 157.599 217.971 157.599C218.177 157.599 218.342 157.435 218.342 157.229C218.342 157.024 218.177 156.86 217.971 156.86C217.765 156.86 217.6 157.024 217.6 157.229Z" fill="#FA0C44"/>
<path d="M221.786 140.275C221.786 140.48 221.951 140.644 222.157 140.644C222.364 140.644 222.529 140.48 222.529 140.275C222.529 140.07 222.364 139.906 222.157 139.906C221.951 139.906 221.786 140.07 221.786 140.275Z" fill="#FA0C44"/>
<path d="M218.033 155.362C218.033 155.608 218.239 155.813 218.486 155.813C218.734 155.813 218.94 155.608 218.94 155.362C218.94 155.115 218.734 154.91 218.486 154.91C218.218 154.91 218.033 155.115 218.033 155.362Z" fill="#FA0C44"/>
<path d="M195.656 161.704C195.965 162.012 196.44 162.012 196.749 161.704C197.058 161.396 197.058 160.924 196.749 160.616C196.44 160.308 195.965 160.308 195.656 160.616C195.347 160.924 195.347 161.396 195.656 161.704Z" fill="#FA0C44"/>
<path d="M189.696 165.748C190.108 166.158 190.748 166.158 191.16 165.748C191.573 165.337 191.573 164.701 191.16 164.29C190.748 163.88 190.108 163.88 189.696 164.29C189.283 164.701 189.283 165.337 189.696 165.748Z" fill="#FA0C44"/>
<path d="M191.49 162.895C191.49 163.244 191.779 163.51 192.109 163.51C192.439 163.51 192.727 163.223 192.727 162.895C192.727 162.546 192.439 162.279 192.109 162.279C191.779 162.279 191.49 162.546 191.49 162.895Z" fill="#FA0C44"/>
<path d="M199.492 161.15C199.492 161.499 199.781 161.766 200.111 161.766C200.441 161.766 200.729 161.478 200.729 161.15C200.729 160.801 200.441 160.534 200.111 160.534C199.781 160.534 199.492 160.801 199.492 161.15Z" fill="#FA0C44"/>
<path d="M192.728 164.537C192.728 164.742 192.893 164.906 193.099 164.906C193.305 164.906 193.47 164.742 193.47 164.537C193.47 164.331 193.305 164.167 193.099 164.167C192.893 164.167 192.728 164.331 192.728 164.537Z" fill="#FA0C44"/>
<path d="M198.853 162.566C198.853 162.771 199.018 162.936 199.224 162.936C199.43 162.936 199.595 162.771 199.595 162.566C199.595 162.361 199.43 162.197 199.224 162.197C199.018 162.197 198.853 162.361 198.853 162.566Z" fill="#FA0C44"/>
<path d="M193.161 162.669C193.161 162.915 193.367 163.12 193.614 163.12C193.862 163.12 194.068 162.915 194.068 162.669C194.068 162.423 193.862 162.217 193.614 162.217C193.367 162.217 193.161 162.423 193.161 162.669Z" fill="#FA0C44"/>
<path d="M207.824 145.879C208.587 143.108 208.484 141.199 210.629 138.879C212.464 136.909 217.682 136.108 219.889 138.345C220.652 139.125 220.837 140.152 219.744 140.501C218.981 140.747 216.589 140.562 214.692 142.184C213.145 143.498 213.392 144.934 213.557 146.946C213.764 149.491 209.144 149.963 209.144 149.963L207.824 145.879Z" fill="#DE623C"/>
<path d="M197.739 146.412C199.306 146.33 201.389 146.782 202.173 147.829C202.957 148.875 200.915 148.732 199.492 148.239C198.069 147.746 197.182 148.321 195.47 148.855C193.738 149.347 193.449 146.638 197.739 146.412Z" fill="#FA7C6C"/>
<path d="M199.513 147.829C199.533 148.26 199.904 148.567 200.338 148.547C200.771 148.526 201.08 148.157 201.059 147.726C201.039 147.295 200.668 146.987 200.234 147.007C199.822 147.048 199.492 147.418 199.513 147.829Z" fill="#E01947"/>
<path d="M194.46 148.137C194.48 148.506 194.81 148.773 195.161 148.752C195.532 148.732 195.8 148.403 195.78 148.054C195.759 147.685 195.429 147.418 195.078 147.439C194.728 147.459 194.439 147.767 194.46 148.137Z" fill="#E01947"/>
<path d="M197.78 147.049C197.966 147.213 198.275 147.192 198.44 147.008C198.605 146.823 198.584 146.515 198.399 146.351C198.213 146.187 197.904 146.207 197.739 146.392C197.574 146.597 197.574 146.884 197.78 147.049Z" fill="#E01947"/>
<path d="M202.214 148.485C202.4 148.65 202.709 148.629 202.874 148.444C203.039 148.26 203.018 147.952 202.833 147.787C202.647 147.623 202.338 147.644 202.173 147.829C202.008 148.013 202.029 148.321 202.214 148.485Z" fill="#E01947"/>
<path d="M196.811 147.5C196.955 147.623 197.161 147.603 197.285 147.48C197.409 147.336 197.388 147.131 197.264 147.008C197.141 146.884 196.914 146.905 196.79 147.028C196.646 147.151 196.666 147.377 196.811 147.5Z" fill="#E01947"/>
<path d="M194.439 147.049C194.584 147.172 194.79 147.151 194.913 147.028C195.037 146.884 195.017 146.679 194.872 146.556C194.728 146.433 194.522 146.453 194.398 146.577C194.274 146.72 194.295 146.925 194.439 147.049Z" fill="#E01947"/>
<path d="M191.201 133.789C192.459 133.009 194.872 133.214 194.398 135.369C193.924 137.525 192.006 137.032 191.779 138.366C191.552 139.7 192.212 140.87 191.201 141.917C190.191 142.964 189.18 140.337 188.417 141.794C187.654 143.231 185.901 140.932 186.726 139.577C187.654 138.058 191.201 133.789 191.201 133.789Z" fill="#FA7C6C"/>
<path d="M192.067 135.246C192.067 135.718 192.439 136.088 192.913 136.088C193.387 136.088 193.759 135.718 193.759 135.246C193.759 134.774 193.387 134.405 192.913 134.405C192.459 134.405 192.067 134.774 192.067 135.246Z" fill="#E01947"/>
<path d="M190.356 141.096C190.356 141.568 190.727 141.938 191.201 141.938C191.676 141.938 192.047 141.568 192.047 141.096C192.047 140.624 191.676 140.254 191.201 140.254C190.727 140.254 190.356 140.644 190.356 141.096Z" fill="#E01947"/>
<path d="M192.686 137.052C192.686 137.36 192.934 137.627 193.264 137.627C193.573 137.627 193.841 137.381 193.841 137.052C193.841 136.724 193.594 136.478 193.264 136.478C192.934 136.498 192.686 136.745 192.686 137.052Z" fill="#E01947"/>
<path d="M189.345 137.812C189.345 138.12 189.593 138.387 189.923 138.387C190.232 138.387 190.5 138.14 190.5 137.812C190.5 137.504 190.253 137.237 189.923 137.237C189.593 137.237 189.345 137.483 189.345 137.812Z" fill="#E01947"/>
<path d="M191.057 137.401C191.262 137.401 191.428 137.236 191.428 137.032C191.428 136.828 191.262 136.662 191.057 136.662C190.852 136.662 190.686 136.828 190.686 137.032C190.686 137.236 190.852 137.401 191.057 137.401Z" fill="#E01947"/>
<path d="M190.995 142.82C190.995 142.984 191.139 143.128 191.304 143.128C191.469 143.128 191.614 142.984 191.614 142.82C191.614 142.656 191.469 142.512 191.304 142.512C191.139 142.512 190.995 142.656 190.995 142.82Z" fill="#E01947"/>
<path d="M187.881 141.219C187.881 141.383 188.025 141.527 188.19 141.527C188.355 141.527 188.5 141.383 188.5 141.219C188.5 141.055 188.355 140.911 188.19 140.911C188.005 140.932 187.881 141.055 187.881 141.219Z" fill="#E01947"/>
<path d="M188.933 140.87C188.933 141.075 189.098 141.24 189.304 141.24C189.51 141.24 189.675 141.075 189.675 140.87C189.675 140.665 189.51 140.501 189.304 140.501C189.098 140.501 188.933 140.665 188.933 140.87Z" fill="#E01947"/>
<path d="M188.726 142.553C188.726 142.902 189.015 143.19 189.366 143.19C189.716 143.19 190.005 142.902 190.005 142.553C190.005 142.204 189.716 141.917 189.366 141.917C189.015 141.917 188.726 142.204 188.726 142.553Z" fill="#E01947"/>
<path d="M139.684 119.071H72.4918C70.0995 119.071 68.1609 117.142 68.1609 114.761V64.308C68.1609 61.927 70.0995 59.9976 72.4918 59.9976H139.684C142.076 59.9976 144.014 61.927 144.014 64.308V114.782C144.014 117.142 142.076 119.071 139.684 119.071Z" fill="white"/>
<path d="M92.4349 80.4004C97.8383 80.2773 102.293 84.5467 102.417 89.9245C102.54 95.3023 98.2508 99.736 92.8474 99.8591C87.444 99.9823 82.9893 95.7129 82.8656 90.335C82.7625 84.9777 87.0522 80.5236 92.4349 80.4004Z" fill="#FD7166"/>
<path d="M75.4412 91.4434C77.5241 91.4023 79.2359 93.0444 79.2978 95.1175C79.339 97.1907 77.6891 98.8943 75.6062 98.9559C73.5232 99.0175 71.8114 97.3549 71.7495 95.2817C71.7083 93.1881 73.3582 91.4844 75.4412 91.4434Z" fill="#FD7166"/>
<path d="M79.6484 72.7648C81.7314 72.7237 83.4432 74.3658 83.505 76.4389C83.5463 78.5121 81.8964 80.2157 79.8134 80.2773C77.7304 80.3184 76.0187 78.6763 75.9568 76.6032C75.9156 74.53 77.5655 72.8058 79.6484 72.7648Z" fill="#FD7166"/>
<path d="M100.643 65.3754C102.726 65.3343 104.438 66.9764 104.5 69.0495C104.541 71.1227 102.891 72.8263 100.808 72.8879C98.7252 72.929 97.0135 71.2869 96.9516 69.2138C96.931 67.1201 98.5809 65.4164 100.643 65.3754Z" fill="#FD7166"/>
<path d="M109.635 88.6314C111.718 88.5903 113.43 90.2324 113.492 92.3055C113.533 94.3787 111.883 96.0823 109.8 96.1439C107.717 96.185 106.005 94.5429 105.943 92.4697C105.902 90.3761 107.552 88.6724 109.635 88.6314Z" fill="#FD7166"/>
<path d="M93.033 107.782C95.1159 107.741 96.8277 109.383 96.8896 111.456C96.9308 113.529 95.2809 115.233 93.1979 115.295C91.115 115.336 89.4032 113.694 89.3413 111.62C89.3001 109.527 90.95 107.823 93.033 107.782Z" fill="#FD7166"/>
<path d="M89.3002 90.9098C89.4446 91.3613 89.1765 91.8334 88.7434 91.9771L75.2556 96.0823C74.8018 96.226 74.3275 95.9592 74.1831 95.5281C74.0388 95.0765 74.3069 94.6044 74.74 94.4608L88.2278 90.3556C88.6815 90.2119 89.1559 90.4787 89.3002 90.9098Z" fill="#FD7166"/>
<path d="M109.718 92.3876C109.656 92.8597 109.243 93.1881 108.769 93.1266L94.7655 91.505C94.2912 91.4434 93.9612 91.0329 94.0231 90.5608C94.0849 90.0887 94.4974 89.7603 94.9718 89.8219L108.975 91.4434C109.45 91.505 109.779 91.9155 109.718 92.3876Z" fill="#FD7166"/>
<path d="M90.7027 87.9541C90.3521 88.2619 89.8159 88.2619 89.5065 87.913L79.9166 77.6089C79.6072 77.26 79.6072 76.7263 79.9578 76.4184C80.3084 76.1105 80.8446 76.1105 81.154 76.4595L90.7439 86.7635C91.0739 87.1125 91.0533 87.6462 90.7027 87.9541Z" fill="#FD7166"/>
<path d="M100.313 71.1227C100.746 71.2869 100.973 71.7795 100.808 72.2106L95.8378 85.3472C95.6728 85.7783 95.1778 86.0041 94.7447 85.8399C94.3116 85.6757 94.0848 85.183 94.2498 84.752L99.2201 71.6153C99.3851 71.1843 99.88 70.9585 100.313 71.1227Z" fill="#FD7166"/>
<path d="M92.1874 95.8771C92.6617 95.836 93.0742 96.1849 93.0948 96.657L94.2085 110.656C94.2497 111.128 93.8991 111.538 93.4248 111.559C92.9504 111.6 92.538 111.251 92.5174 110.779L91.4037 96.7802C91.3624 96.3286 91.713 95.9181 92.1874 95.8771Z" fill="#FD7166"/>
<path d="M105.304 78.7378C106.315 77.7936 107.903 77.8347 108.851 78.8404C109.8 79.8462 109.759 81.4267 108.748 82.3709C107.738 83.3151 106.15 83.2741 105.201 82.2683C104.252 81.2625 104.294 79.682 105.304 78.7378Z" fill="#FD7166"/>
<path d="M107.037 80.5647C107.222 80.811 107.16 81.1805 106.892 81.3447L99.2202 86.7635C98.9727 86.9483 98.6015 86.8867 98.4365 86.6199C98.2509 86.3735 98.3128 86.0041 98.5809 85.8399L106.253 80.421C106.5 80.2363 106.851 80.2979 107.037 80.5647Z" fill="#FD7166"/>
<path d="M129.062 81.0367C131.723 80.9751 133.909 83.0688 133.971 85.7167C134.033 88.3645 131.929 90.5403 129.269 90.6019C126.608 90.6634 124.422 88.5698 124.36 85.9219C124.298 83.2741 126.402 81.0983 129.062 81.0367Z" fill="#FD7166"/>
<path d="M121.246 76.3979C122.587 76.3774 123.68 77.4242 123.721 78.7378C123.742 80.072 122.69 81.1599 121.37 81.201C120.029 81.2215 118.936 80.1747 118.895 78.861C118.854 77.5268 119.906 76.4389 121.246 76.3979Z" fill="#FD7166"/>
<path d="M136.879 72.6416C138.199 72.8674 139.085 74.0989 138.859 75.4126C138.632 76.7262 137.394 77.6089 136.074 77.3831C134.754 77.1573 133.868 75.9257 134.094 74.6121C134.321 73.2984 135.579 72.4158 136.879 72.6416Z" fill="#FD7166"/>
<path d="M137.786 87.8308C138.879 88.2824 139.415 89.514 138.982 90.6224C138.529 91.7103 137.291 92.2439 136.178 91.8129C135.085 91.3613 134.548 90.1298 134.981 89.0214C135.435 87.913 136.673 87.3793 137.786 87.8308Z" fill="#FD7166"/>
<path d="M131.352 93.1265C132.692 93.106 133.785 94.1528 133.826 95.4665C133.847 96.8007 132.795 97.8886 131.475 97.9296C130.135 97.9501 129.042 96.9033 129 95.5896C128.959 94.2555 130.011 93.147 131.352 93.1265Z" fill="#FD7166"/>
<path d="M136.982 89.8218C136.858 90.0476 136.549 90.1297 136.322 90.0066L129.33 86.0245C129.104 85.9014 129.021 85.5935 129.145 85.3677C129.269 85.1419 129.578 85.0598 129.805 85.1829L136.796 89.165C137.023 89.2881 137.106 89.596 136.982 89.8218Z" fill="#FD7166"/>
<path d="M128.32 86.1272C128.093 86.3324 127.763 86.3119 127.557 86.1067L121.411 79.5178C121.205 79.292 121.225 78.9636 121.432 78.7583C121.659 78.5531 121.989 78.5736 122.195 78.7788L128.341 85.3677C128.567 85.5935 128.547 85.9219 128.32 86.1272Z" fill="#FD7166"/>
<path d="M135.971 76.2336C136.219 76.3978 136.301 76.7262 136.157 76.9725L131.434 84.6493C131.269 84.8956 130.939 84.9777 130.692 84.834C130.444 84.6698 130.362 84.3414 130.506 84.0951L135.229 76.4183C135.394 76.1515 135.724 76.0694 135.971 76.2336Z" fill="#FD7166"/>
<path d="M130.795 85.5114C131.104 85.4909 131.352 85.7167 131.372 86.0041L132.094 94.9739C132.115 95.2818 131.888 95.5281 131.599 95.5487C131.29 95.5692 131.042 95.3434 131.022 95.056L130.3 86.0862C130.279 85.7783 130.506 85.532 130.795 85.5114Z" fill="#FD7166"/>
<path d="M118.73 67.3253C118.73 68.7006 117.596 69.8295 116.214 69.8295C114.832 69.8295 113.698 68.7006 113.698 67.3253C113.698 65.9501 114.832 64.8212 116.214 64.8212C117.596 64.8212 118.73 65.9501 118.73 67.3253Z" fill="#92B5F8"/>
<path d="M111.306 64.8827C111.306 65.6833 110.666 66.3196 109.862 66.3196C109.058 66.3196 108.418 65.6833 108.418 64.8827C108.418 64.0822 109.058 63.4459 109.862 63.4459C110.646 63.4459 111.306 64.1028 111.306 64.8827Z" fill="#92B5F8"/>
<path d="M118.916 102.055C119.815 102.055 120.545 101.329 120.545 100.434C120.545 99.5383 119.815 98.8123 118.916 98.8123C118.016 98.8123 117.286 99.5383 117.286 100.434C117.286 101.329 118.016 102.055 118.916 102.055Z" fill="#92B5F8"/>
<path d="M140.962 120.036H133.579C133.043 120.036 132.61 119.605 132.61 119.071C132.61 118.538 133.043 118.107 133.579 118.107H140.942C141.478 118.107 141.911 118.538 141.911 119.071C141.911 119.605 141.498 120.036 140.962 120.036ZM126.216 120.036H118.854C118.318 120.036 117.884 119.605 117.884 119.071C117.884 118.538 118.318 118.107 118.854 118.107H126.216C126.753 118.107 127.186 118.538 127.186 119.071C127.186 119.605 126.753 120.036 126.216 120.036ZM111.491 120.036H104.129C103.592 120.036 103.159 119.605 103.159 119.071C103.159 118.538 103.592 118.107 104.129 118.107H111.491C112.027 118.107 112.46 118.538 112.46 119.071C112.44 119.605 112.027 120.036 111.491 120.036ZM96.7659 120.036H89.4033C88.867 120.036 88.434 119.605 88.434 119.071C88.434 118.538 88.867 118.107 89.4033 118.107H96.7659C97.3021 118.107 97.7352 118.538 97.7352 119.071C97.7146 119.605 97.2815 120.036 96.7659 120.036ZM82.0406 120.036H74.6574C74.1212 120.036 73.6881 119.605 73.6881 119.071C73.6881 118.538 74.1212 118.107 74.6574 118.107H82.02C82.5562 118.107 82.9893 118.538 82.9893 119.071C82.9893 119.605 82.5562 120.036 82.0406 120.036ZM68.3053 117.84C67.8929 117.84 67.501 117.573 67.3773 117.163C67.2741 116.793 67.2123 116.403 67.2123 116.034V109.588C67.2123 109.055 67.6454 108.624 68.1816 108.624C68.7178 108.624 69.1509 109.055 69.1509 109.588V116.034C69.1509 116.239 69.1715 116.444 69.2334 116.629C69.3778 117.142 69.089 117.676 68.5941 117.819C68.4703 117.84 68.3878 117.84 68.3053 117.84ZM144.015 114.433C143.478 114.433 143.045 114.002 143.045 113.468V106.14C143.045 105.606 143.478 105.175 144.015 105.175C144.551 105.175 144.984 105.606 144.984 106.14V113.468C144.963 114.002 144.551 114.433 144.015 114.433ZM68.161 103.205C67.6247 103.205 67.1917 102.774 67.1917 102.24V94.9123C67.1917 94.3787 67.6247 93.9476 68.161 93.9476C68.6972 93.9476 69.1303 94.3787 69.1303 94.9123V102.24C69.1303 102.774 68.6972 103.205 68.161 103.205ZM144.015 99.777C143.478 99.777 143.045 99.346 143.045 98.8123V91.4845C143.045 90.9508 143.478 90.5198 144.015 90.5198C144.551 90.5198 144.984 90.9508 144.984 91.4845V98.8123C144.963 99.346 144.551 99.777 144.015 99.777ZM68.161 88.5493C67.6247 88.5493 67.1917 88.1182 67.1917 87.5846V80.2568C67.1917 79.7231 67.6247 79.292 68.161 79.292C68.6972 79.292 69.1303 79.7231 69.1303 80.2568V87.5846C69.1303 88.1182 68.6972 88.5493 68.161 88.5493ZM144.015 85.1214C143.478 85.1214 143.045 84.6904 143.045 84.1567V76.8289C143.045 76.2952 143.478 75.8642 144.015 75.8642C144.551 75.8642 144.984 76.2952 144.984 76.8289V84.1567C144.963 84.6904 144.551 85.1214 144.015 85.1214ZM68.161 73.8937C67.6247 73.8937 67.1917 73.4626 67.1917 72.929V65.6012C67.1917 65.0675 67.6247 64.6364 68.161 64.6364C68.6972 64.6364 69.1303 65.0675 69.1303 65.6012V72.929C69.1303 73.4626 68.6972 73.8937 68.161 73.8937ZM144.015 70.4658C143.478 70.4658 143.045 70.0348 143.045 69.5011V63.0559C143.045 62.8507 143.025 62.6454 142.963 62.4607C142.818 61.9475 143.107 61.4139 143.602 61.2702C144.118 61.1265 144.654 61.4139 144.798 61.9065C144.901 62.276 144.963 62.6659 144.963 63.0559V69.5011C144.963 70.0348 144.551 70.4658 144.015 70.4658ZM137.497 60.9623H130.135C129.599 60.9623 129.166 60.5312 129.166 59.9976C129.166 59.4639 129.599 59.0328 130.135 59.0328H137.497C138.034 59.0328 138.467 59.4639 138.467 59.9976C138.467 60.5312 138.034 60.9623 137.497 60.9623ZM122.772 60.9623H115.41C114.873 60.9623 114.44 60.5312 114.44 59.9976C114.44 59.4639 114.873 59.0328 115.41 59.0328H122.772C123.308 59.0328 123.742 59.4639 123.742 59.9976C123.742 60.5312 123.308 60.9623 122.772 60.9623ZM108.047 60.9623H100.684C100.148 60.9623 99.7151 60.5312 99.7151 59.9976C99.7151 59.4639 100.148 59.0328 100.684 59.0328H108.047C108.583 59.0328 109.016 59.4639 109.016 59.9976C109.016 60.5312 108.583 60.9623 108.047 60.9623ZM93.3217 60.9623H85.9591C85.4229 60.9623 84.9898 60.5312 84.9898 59.9976C84.9898 59.4639 85.4229 59.0328 85.9591 59.0328H93.3217C93.858 59.0328 94.2911 59.4639 94.2911 59.9976C94.2911 60.5312 93.858 60.9623 93.3217 60.9623ZM78.5965 60.9623H71.2339C70.6977 60.9623 70.2646 60.5312 70.2646 59.9976C70.2646 59.4639 70.6977 59.0328 71.2133 59.0328H78.5759C79.1121 59.0328 79.5452 59.4639 79.5452 59.9976C79.5452 60.5312 79.1327 60.9623 78.5965 60.9623Z" fill="#060534"/>
<path d="M300.032 176.36H293.164C292.504 176.36 291.989 175.826 291.989 175.19V169.237C291.989 168.58 292.525 168.067 293.164 168.067C293.824 168.067 294.34 168.601 294.34 169.237V173.999H300.032C300.692 173.999 301.207 174.533 301.207 175.169C301.228 175.826 300.692 176.36 300.032 176.36Z" fill="white"/>
<path d="M323.481 176.36H316.655C315.995 176.36 315.479 175.826 315.479 175.19C315.479 174.533 316.015 174.02 316.655 174.02H322.305V169.258C322.305 168.601 322.842 168.088 323.481 168.088C324.12 168.088 324.657 168.621 324.657 169.258V175.21C324.657 175.826 324.141 176.36 323.481 176.36Z" fill="white"/>
<path d="M323.481 154.212C322.821 154.212 322.305 153.678 322.305 153.042V148.711H316.655C315.995 148.711 315.479 148.177 315.479 147.541C315.479 146.884 316.015 146.371 316.655 146.371H323.481C324.141 146.371 324.657 146.905 324.657 147.541V153.063C324.657 153.678 324.141 154.212 323.481 154.212Z" fill="white"/>
<path d="M293.164 154.212C292.504 154.212 291.989 153.678 291.989 153.042V147.521C291.989 146.864 292.525 146.351 293.164 146.351H300.032C300.692 146.351 301.208 146.884 301.208 147.521C301.208 148.177 300.671 148.691 300.032 148.691H294.34V153.022C294.36 153.678 293.824 154.212 293.164 154.212Z" fill="white"/>
<path d="M307.25 159.487C309.498 158.317 312.262 159.2 313.437 161.437C314.613 163.675 313.726 166.425 311.478 167.595C309.23 168.765 306.467 167.882 305.291 165.645C304.136 163.408 305.023 160.657 307.25 159.487Z" fill="#0B0754"/>
<path d="M298.609 158.81C299.743 158.235 301.125 158.666 301.723 159.795C302.301 160.924 301.868 162.299 300.733 162.895C299.599 163.469 298.217 163.038 297.619 161.909C297.021 160.78 297.475 159.385 298.609 158.81Z" fill="#0B0754"/>
<path d="M310.406 149.019C311.623 148.649 312.901 149.347 313.272 150.558C313.644 151.769 312.942 153.042 311.726 153.412C310.509 153.781 309.23 153.083 308.859 151.872C308.488 150.661 309.189 149.388 310.406 149.019Z" fill="#0B0754"/>
<path d="M302.321 168.519C303.187 168.252 304.116 168.744 304.363 169.627C304.631 170.489 304.136 171.413 303.249 171.659C302.383 171.926 301.455 171.433 301.208 170.551C300.939 169.709 301.434 168.785 302.321 168.519Z" fill="#0B0754"/>
<path d="M303.93 150.846C304.693 151.256 304.982 152.2 304.569 152.96C304.157 153.719 303.208 154.007 302.445 153.596C301.682 153.186 301.393 152.241 301.806 151.482C302.218 150.723 303.167 150.456 303.93 150.846Z" fill="#0B0754"/>
<path d="M317.603 161.622C318.738 161.54 319.728 162.381 319.81 163.51C319.893 164.639 319.047 165.624 317.913 165.707C316.778 165.789 315.788 164.947 315.706 163.818C315.624 162.689 316.469 161.725 317.603 161.622Z" fill="#0B0754"/>
<path d="M314.345 168.868C315.479 168.293 316.861 168.724 317.459 169.853C318.036 170.982 317.603 172.357 316.469 172.952C315.335 173.527 313.953 173.096 313.355 171.967C312.777 170.838 313.21 169.442 314.345 168.868Z" fill="#0B0754"/>
<path d="M317.768 163.675C317.748 163.921 317.541 164.126 317.273 164.106L309.601 163.633C309.354 163.613 309.148 163.408 309.168 163.141C309.189 162.895 309.395 162.689 309.663 162.71L317.335 163.182C317.583 163.202 317.789 163.428 317.768 163.675Z" fill="#0B0754"/>
<path d="M308.797 164.147C308.694 164.413 308.385 164.557 308.117 164.454L300.073 161.396C299.805 161.293 299.661 160.986 299.764 160.719C299.867 160.452 300.176 160.308 300.445 160.411L308.488 163.469C308.756 163.592 308.9 163.88 308.797 164.147Z" fill="#0B0754"/>
<path d="M311.148 152.467C311.437 152.488 311.643 152.755 311.622 153.022L310.839 161.56C310.818 161.848 310.55 162.053 310.282 162.033C309.993 162.012 309.787 161.745 309.808 161.478L310.591 152.939C310.612 152.652 310.859 152.447 311.148 152.467Z" fill="#0B0754"/>
<path d="M310.653 162.566C310.901 162.422 311.21 162.504 311.375 162.751L315.788 170.12C315.933 170.366 315.85 170.674 315.603 170.838C315.355 170.982 315.046 170.9 314.881 170.653L310.468 163.284C310.323 163.038 310.406 162.73 310.653 162.566Z" fill="#0B0754"/>
<path d="M346.084 136.539H316.263C313.107 136.539 310.529 133.994 310.529 130.833V122.356C310.529 119.215 313.087 116.649 316.263 116.649H346.084C349.24 116.649 351.818 119.195 351.818 122.356V130.833C351.818 133.973 349.24 136.539 346.084 136.539Z" fill="#FD7166"/>
<path d="M326.286 132.639L319.521 142.307C319.15 142.841 318.304 142.635 318.222 141.979L317.273 134.24L326.286 132.639Z" fill="#FD7166"/>
<path d="M344.599 125.086H316.015C314.716 125.086 313.664 124.039 313.664 122.746V122.561C313.664 121.268 314.716 120.221 316.015 120.221H344.599C345.899 120.221 346.951 121.268 346.951 122.561V122.746C346.951 124.039 345.899 125.086 344.599 125.086Z" fill="#92B5F8"/>
<path d="M335.649 132.167H316.015C314.716 132.167 313.664 131.12 313.664 129.827V129.642C313.664 128.349 314.716 127.302 316.015 127.302H335.649C336.948 127.302 338 128.349 338 129.642V129.827C338 131.12 336.948 132.167 335.649 132.167Z" fill="#92B5F8"/>
<path d="M262.848 132.27L271.675 128.411C272.417 129.355 282.605 132.085 286.977 152.816C287.885 157.147 280.543 168.929 276.006 172.521C271.468 176.113 268.993 168.272 268.993 168.272L275.366 153.576L262.848 132.27Z" fill="#D4DEFF"/>
<path d="M254.763 250.253C250.35 256.432 239.522 252.634 239.894 260.988C256.351 260.886 263.198 260.988 263.198 260.988C263.178 259.08 262.848 254.523 262.476 252.737L254.763 250.253Z" fill="black"/>
<path d="M280.295 250.253C275.882 256.432 265.054 252.634 265.426 260.988C281.883 260.886 288.73 260.988 288.73 260.988C288.71 259.08 288.38 254.523 288.008 252.737L280.295 250.253Z" fill="black"/>
<path d="M263.838 128.534L254.743 127.795L253.856 118.887L261.878 114.638L263.838 128.534Z" fill="#F37A50"/>
<path d="M254.371 100.578C249.545 100.578 245.854 104.991 244.988 109.712C243.42 118.25 248.514 123.772 249.834 124.244C252.371 125.106 257.836 122.376 257.836 122.376C257.836 122.376 264.147 116.67 264.147 113.098C264.168 108.295 259.197 100.578 254.371 100.578Z" fill="#F37A50"/>
<path d="M269.22 108.767C271.489 105.299 269.839 103.041 266.766 101.871C263.693 100.701 263.343 99.2023 262.064 97.1702C260.868 95.2613 255.279 93.2087 252.722 96.185C248.906 100.619 248.122 96.965 244.802 100.27C241.791 103.266 242.534 106.879 243.833 108.562C245.091 110.184 248.122 107.269 247.916 109.424C247.751 111.087 250.226 111.128 251.03 112.832C251.649 114.125 252.701 114.658 252.536 115.479C252.206 117.06 250.989 119.4 254.227 121.637C256.063 122.91 257.114 121.063 259.177 122.274C263.095 124.593 264.477 121.801 266.601 119.503C268.746 117.204 271.489 117.347 269.262 113.488C269.179 113.365 267.55 111.333 269.22 108.767Z" fill="#0B0754"/>
<path d="M250.267 111.97C249.422 113.201 249.545 114.761 250.556 115.459C251.567 116.157 253.072 115.726 253.938 114.494C254.784 113.263 254.66 111.703 253.65 111.005C252.639 110.307 251.133 110.758 250.267 111.97Z" fill="#F37A50"/>
<path d="M251.855 114.761C251.814 114.761 251.752 114.741 251.711 114.699C251.092 114.268 250.845 113.632 251.051 112.996C251.257 112.36 251.876 111.908 252.536 111.908C252.722 111.908 252.866 112.052 252.866 112.236C252.866 112.421 252.722 112.565 252.536 112.565C252.185 112.565 251.814 112.832 251.69 113.201C251.567 113.55 251.732 113.878 252.103 114.166C252.247 114.268 252.288 114.474 252.185 114.617C252.103 114.741 251.979 114.782 251.855 114.761Z" fill="#DE623C"/>
<path d="M273.861 181.389C273.861 181.389 278.109 202.571 280.831 217.596C283.636 222.297 289.349 245.922 289.287 253.291L276.995 252.409C276.995 252.409 269.509 230.528 267.674 223.549C265.384 214.866 260.146 202.695 257.836 185.206L257.279 180.321L273.861 181.389Z" fill="#060534"/>
<path d="M248.184 186.931L263.363 187.546L261.672 218.561C263.363 223.652 265.405 246.559 263.714 253.661L251.01 252.757C250.989 252.757 244.06 207.785 248.184 186.931Z" fill="#0B0754"/>
<path d="M248.7 126.769C248.7 126.769 269.612 126.338 272.231 128.801C281.966 137.935 274.624 166.671 283.966 210.269C281.161 209.304 271.613 202.489 259.878 207.6C252.082 211.007 246.72 212.383 239.811 209.94C236.635 182.784 245.544 146.535 245.544 146.535L248.7 126.769Z" fill="white"/>
<path d="M209.35 135.205C210.711 135.287 212.382 134.63 212.897 135.821L215.558 134.528L215.723 132.927C213.433 129.273 207.844 128.226 207.288 128.185C205.844 128.062 205.184 127.918 205.06 128.103C204.957 128.288 204.586 129.56 206.69 129.827C209.309 130.135 207.576 132.229 202.256 130.238C200.936 129.745 198.42 130.381 199.327 131.346C200.338 132.413 203.204 134.835 209.35 135.205Z" fill="#F37A50"/>
<path d="M211.866 135.841C212.444 139.864 218.858 158.174 224.22 160.514C227.293 158.235 228.159 153.104 227.293 149.512C225.643 142.779 215.723 132.927 215.723 132.927L211.866 135.841Z" fill="white"/>
<path d="M248.803 126.789C248.803 126.789 254.722 129.191 251.628 136.888C248.535 144.585 233.047 164.537 223.931 160.37C218.507 149.943 244.204 126.481 248.803 126.789Z" fill="white"/>
<path d="M251.958 126.912C253.547 125.66 258.599 123.526 264.353 124.1C265.013 125.352 264.993 127.343 264.993 127.343L251.958 126.912Z" fill="white"/>
<path d="M90.8914 34.8623L44.7949 59.8893L48.0838 65.8899L94.1803 40.8629L90.8914 34.8623Z" fill="white"/>
<path d="M94.5179 41.4832L48.4242 66.5044C48.0736 66.6891 47.6405 66.566 47.4549 66.217L44.1757 60.2234C43.9901 59.8745 44.1139 59.4434 44.4645 59.2587L90.5376 34.2375C90.8882 34.0527 91.3213 34.1759 91.5069 34.5248L94.786 40.5184C94.9923 40.8674 94.8685 41.2984 94.5179 41.4832ZM48.3623 64.9239L93.198 40.58L90.5994 35.818L45.7638 60.1618L48.3623 64.9239Z" fill="#504A8F"/>
<path d="M85.1356 32.9668L52.582 50.641L60.108 64.3721L92.6616 46.6979L85.1356 32.9668Z" fill="white"/>
<path d="M49.8472 72.149C48.8573 72.6826 47.6405 72.3132 47.1042 71.3485L39.6591 57.7602C39.1229 56.775 39.4941 55.564 40.4635 55.0303C41.4534 54.4966 42.6702 54.8661 43.2064 55.8308L50.6515 69.419C51.1877 70.3837 50.8165 71.6153 49.8472 72.149Z" fill="#504A8F"/>
<path d="M92.3936 37.9321L112.089 27.238L92.3936 37.9321Z" fill="#504A8F"/>
<path d="M111.743 26.6171L92.0442 37.312L92.7257 38.5554L112.424 27.8604L111.743 26.6171Z" fill="#504A8F"/>
<path d="M67.5834 60.367C67.006 60.6749 66.2635 60.4696 65.9542 59.8949L63.9124 56.1591C63.6031 55.5844 63.8093 54.8455 64.3868 54.5376C64.9642 54.2297 65.7067 54.435 66.016 55.0097L68.0578 58.7454C68.3877 59.3407 68.1815 60.0591 67.5834 60.367Z" fill="#504A8F"/>
<path d="M84.9199 32.8698L62.4148 45.0884L69.8914 58.7294L92.3965 46.5108L84.9199 32.8698Z" fill="#92B5F8"/>
<path d="M74.1418 56.8161C73.5643 57.124 72.8219 56.9187 72.5125 56.344L70.4708 52.6082C70.1614 52.0335 70.3676 51.2946 70.9451 50.9867C71.5226 50.6788 72.265 50.8841 72.5744 51.4588L74.6161 55.1945C74.9255 55.7898 74.7192 56.5082 74.1418 56.8161Z" fill="#504A8F"/>
<path d="M80.6794 53.2651C80.1019 53.5729 79.3594 53.3677 79.0501 52.793L77.0084 49.0572C76.699 48.4825 76.9053 47.7436 77.4827 47.4357C78.0602 47.1278 78.8026 47.333 79.112 47.9078L81.1537 51.6435C81.4837 52.2388 81.2568 52.9572 80.6794 53.2651Z" fill="#504A8F"/>
<path d="M87.2172 49.714C86.6397 50.0219 85.8973 49.8166 85.5879 49.2419L83.5462 45.5062C83.2369 44.9315 83.4431 44.1925 84.0205 43.8846C84.598 43.5768 85.3405 43.782 85.6498 44.3567L87.6915 48.0925C88.0215 48.6672 87.8153 49.4061 87.2172 49.714Z" fill="#504A8F"/>
<path d="M93.033 47.3331L60.4683 65.006C60.1177 65.1907 59.664 65.0676 59.4577 64.7186L51.9301 50.9867C51.7445 50.6378 51.8683 50.1862 52.2189 49.9809L84.7835 32.308C85.1341 32.1233 85.5878 32.2464 85.7941 32.5954L93.3217 46.3273C93.5073 46.6968 93.3836 47.1483 93.033 47.3331ZM60.4064 63.3639L91.6718 46.3889L84.8454 33.9501L53.58 50.9251L60.4064 63.3639Z" fill="#504A8F"/>
<path d="M148.572 256.781C157.234 257.704 165.36 253.763 172.949 244.958C161.297 245.491 153.171 249.432 148.572 256.781Z" fill="#7C9AF2"/>
<path d="M158.08 242.946C166.02 242.597 172.784 237.917 178.394 228.947C167.959 231.021 161.194 235.68 158.08 242.946Z" fill="#7C9AF2"/>
<path d="M167.092 228.578C174.496 227.141 180.209 221.825 184.21 212.609C174.702 215.975 168.99 221.312 167.092 228.578Z" fill="#7C9AF2"/>
<path d="M185.097 197.542C177.837 202.017 174.063 207.436 173.754 213.779C179.652 211.254 183.426 205.856 185.097 197.542Z" fill="#7C9AF2"/>
<path d="M182.003 186.417C176.682 191.18 174.372 196.188 175.074 201.443C179.549 198.528 181.859 193.52 182.003 186.417Z" fill="#7C9AF2"/>
<path d="M171.815 196.927C174.929 192.616 175.3 187.115 172.887 180.424C169.629 186.746 169.278 192.267 171.815 196.927Z" fill="#7C9AF2"/>
<path d="M145.376 255.857C145.169 256.493 144.922 257.109 144.654 257.725H142.983C138.178 251.198 138.281 242.33 141.87 232.006C146.572 240.955 147.747 248.899 145.376 255.857Z" fill="#7C9AF2"/>
<path d="M161.73 230.589C162.699 223.508 159.627 216.734 152.491 210.289C152.656 219.854 155.729 226.628 161.73 230.589Z" fill="#7C9AF2"/>
<path d="M158.492 201.956C158.637 210.289 161.318 216.18 166.535 219.608C167.381 213.45 164.7 207.58 158.492 201.956Z" fill="#7C9AF2"/>
<path d="M169.175 207.703C170.021 201.545 167.34 195.654 161.132 190.051C161.297 198.384 163.958 204.275 169.175 207.703Z" fill="#7C9AF2"/>
<path d="M154.223 243.562C148.613 237.979 146.778 230.015 148.717 219.629C154.986 228.147 156.822 236.111 154.223 243.562Z" fill="#7C9AF2"/>
<path d="M169.01 217.227C167.072 223.508 164.452 229.543 161.215 235.269C159.585 238.04 157.791 240.832 155.791 243.623C150.861 250.561 149.975 252.675 145.541 257.745H143.746C144.344 257.068 144.881 256.452 145.376 255.877C148.737 251.895 149.768 249.74 154.202 243.562L154.697 242.864C156.595 240.196 158.348 237.445 159.956 234.592C163.215 228.968 165.855 222.995 167.814 216.796C170.145 209.714 171.485 204.152 170.928 200.231C170.866 199.862 170.639 198.897 171.547 198.856C172.021 198.836 172.104 199.821 172.124 200.19C172.351 204.254 171.423 209.92 169.01 217.227Z" fill="#7C9AF2"/>
<path d="M198.44 27.7717C198.44 27.7717 206.256 18.6992 206.731 18.6992C206.731 18.6992 213.867 18.6787 216.321 18.6787L221.559 27.6896L215.702 37.7884C215.62 37.9321 215.62 38.0963 215.702 38.2195L221.93 48.9341C222.013 49.0778 222.157 49.1599 222.322 49.1599H233.995L239.584 58.7866C239.667 58.9302 239.811 59.0124 239.976 59.0124H252.412C252.577 59.0124 252.721 58.9302 252.804 58.7866L258.393 49.1599H269.922C270.087 49.1599 270.231 49.0778 270.313 48.9341L276.521 38.2195C276.604 38.0758 276.604 37.9116 276.521 37.7884L270.911 28.1207L278.068 19.2534C278.439 18.7813 278.377 18.0835 277.903 17.714C277.697 17.5498 277.47 17.4677 277.202 17.4677C276.872 17.4677 276.562 17.6114 276.335 17.8782L269.097 26.8481H257.465C257.3 26.8481 257.156 26.9302 257.073 27.0739L251.484 36.7006H240.718L235.129 27.0739C235.047 26.9302 234.903 26.8481 234.738 26.8481H223.601L217.929 17.0777C217.744 16.7287 217.373 16.4824 216.96 16.4824L205.947 16.5029L196.77 26.3554C196.522 26.6428 196.44 27.0739 196.584 27.4433C196.646 27.6281 196.77 27.7923 196.914 27.9154C197.368 28.3054 198.069 28.2438 198.44 27.7717ZM268.87 47.0046H258.599L253.32 37.9116L258.455 29.0649H268.849L274.046 38.0348L268.87 47.0046ZM235.769 47.8872L240.966 38.9174H251.237L256.516 48.0104L251.381 56.8571H240.987L235.769 47.8872ZM218.115 38.0348L223.312 29.0649H233.706L238.904 38.0348L233.706 47.0046H223.312L218.115 38.0348Z" fill="#92B5F8"/>
<path d="M234.284 36.1669C234.49 35.8385 234.841 35.6127 235.232 35.6127C235.439 35.6127 235.624 35.6742 235.789 35.7564C236.305 36.0642 236.491 36.7416 236.181 37.2548L231.479 45.3215C231.273 45.6499 230.922 45.8757 230.53 45.8757C230.345 45.8757 230.138 45.8141 229.973 45.732C229.458 45.4241 229.272 44.7468 229.582 44.2336L234.284 36.1669Z" fill="#92B5F8"/>
<path d="M265.59 44.0694L270.231 36.0437C270.437 35.7153 270.788 35.4895 271.179 35.4895C271.365 35.4895 271.571 35.5306 271.736 35.6332C272.252 35.9411 272.437 36.5979 272.149 37.1316L267.488 45.1573C267.282 45.4857 266.931 45.7115 266.539 45.7115C266.354 45.7115 266.147 45.6704 265.982 45.5678C265.467 45.2599 265.281 44.5825 265.59 44.0694Z" fill="#92B5F8"/>
<path d="M183.797 31.4254V27.1765C183.797 26.6838 184.21 26.2938 184.684 26.2938C185.179 26.2938 185.571 26.7044 185.571 27.1765V33.9295C185.571 34.5453 185.22 34.8532 184.643 34.8532C184.313 34.8532 183.942 34.6069 183.591 34.1553L180.085 29.7422V33.9501C180.085 34.4427 179.673 34.8327 179.198 34.8327C178.703 34.8327 178.312 34.4221 178.312 33.9501V27.197C178.312 26.6838 178.642 26.2733 179.198 26.2733C179.611 26.2733 179.858 26.4375 180.271 26.9507L183.797 31.4254Z" fill="#92B5F8"/>
<path d="M192.686 27.1764C192.686 26.6838 193.099 26.2938 193.635 26.2938C194.171 26.2938 194.584 26.7043 194.584 27.1764V33.95C194.584 34.4427 194.171 34.8326 193.635 34.8326C193.099 34.8326 192.686 34.4221 192.686 33.95V31.3638H189.634V33.95C189.634 34.4427 189.221 34.8326 188.685 34.8326C188.149 34.8326 187.737 34.4221 187.737 33.95V27.1764C187.737 26.6838 188.149 26.2938 188.685 26.2938C189.221 26.2938 189.634 26.7043 189.634 27.1764V29.578H192.686V27.1764Z" fill="#92B5F8"/>
<path d="M199.492 34.4017C200.461 34.6275 200.998 35.3459 200.998 36.3311C200.998 37.0701 200.75 37.6653 200.234 38.0964C199.719 38.5479 199.059 38.7532 198.275 38.7532C197.368 38.7532 196.667 38.5274 196.172 38.0964C195.8 37.7679 195.718 37.2343 196.007 36.8853C196.316 36.4748 196.832 36.4748 197.182 36.7211C197.512 36.9469 197.842 37.0495 198.151 37.0495C198.811 37.0495 199.162 36.7211 199.162 36.2695C199.162 35.6743 198.811 35.3664 198.09 35.3664C197.533 35.3664 197.141 35.079 197.141 34.5248C197.141 33.9706 197.533 33.6833 198.048 33.6833C198.502 33.6833 198.873 33.3754 198.873 32.8622C198.873 32.4928 198.646 32.1849 198.131 32.1849C197.821 32.1849 197.553 32.2464 197.306 32.3901C196.893 32.6364 196.378 32.5543 196.151 32.1643C195.986 31.918 195.904 31.3638 196.398 31.0149C196.873 30.6659 197.512 30.4812 198.296 30.4812C199.018 30.4812 199.595 30.6659 200.049 31.0354C200.503 31.4049 200.709 31.8975 200.709 32.5338C200.688 33.437 200.317 34.0322 199.492 34.4017Z" fill="#92B5F8"/>
<path d="M372.215 15.333V56.0977C372.215 58.9098 369.925 61.1881 367.1 61.1881H281.43C278.604 61.1881 276.315 58.9098 276.315 56.0977V15.333C276.315 12.5209 278.604 10.2426 281.43 10.2426H367.1C369.925 10.2426 372.215 12.5209 372.215 15.333Z" fill="#9CC2FF"/>
<path d="M372.215 15.333V22.8661H276.315V15.333C276.315 12.5209 278.604 10.2426 281.43 10.2426H367.1C369.925 10.2426 372.215 12.5209 372.215 15.333Z" fill="#78A5FF"/>
<path d="M289.328 16.934C289.328 19.1919 287.493 21.0187 285.224 21.0187C282.956 21.0187 281.12 19.1919 281.12 16.934C281.12 14.6762 282.956 12.8494 285.224 12.8494C287.493 12.8494 289.328 14.6762 289.328 16.934Z" fill="#FD7166"/>
<path d="M300.96 16.934C300.96 19.1919 299.125 21.0187 296.856 21.0187C294.587 21.0187 292.752 19.1919 292.752 16.934C292.752 14.6762 294.587 12.8494 296.856 12.8494C299.125 12.8494 300.96 14.6762 300.96 16.934Z" fill="#9CC2FF"/>
<path d="M312.613 16.934C312.613 19.1919 310.777 21.0187 308.508 21.0187C306.24 21.0187 304.404 19.1919 304.404 16.934C304.404 14.6762 306.24 12.8494 308.508 12.8494C310.777 12.8494 312.613 14.6762 312.613 16.934Z" fill="#9CC2FF"/>
<path d="M299.867 49.8373H286.977C285.142 49.8373 283.657 48.3594 283.657 46.5326V33.7039C283.657 31.877 285.142 30.3992 286.977 30.3992H299.867C301.703 30.3992 303.187 31.877 303.187 33.7039V46.5326C303.208 48.3594 301.703 49.8373 299.867 49.8373Z" fill="white"/>
<path d="M329.957 49.8373H317.067C315.232 49.8373 313.747 48.3594 313.747 46.5326V33.7039C313.747 31.877 315.232 30.3992 317.067 30.3992H329.957C331.793 30.3992 333.277 31.877 333.277 33.7039V46.5326C333.298 48.3594 331.813 49.8373 329.957 49.8373Z" fill="white"/>
<path d="M360.067 49.8373H347.178C345.342 49.8373 343.857 48.3594 343.857 46.5326V33.7039C343.857 31.877 345.342 30.3992 347.178 30.3992H360.067C361.903 30.3992 363.388 31.877 363.388 33.7039V46.5326C363.388 48.3594 361.903 49.8373 360.067 49.8373Z" fill="white"/>
<path d="M363.656 206.328C364.336 208.134 363.408 210.166 361.594 210.843C359.779 211.521 357.737 210.597 357.056 208.791C356.376 206.984 357.304 204.952 359.119 204.275C360.934 203.598 362.955 204.521 363.656 206.328Z" fill="#92B5F8"/>
<path d="M361.387 192.555C362.501 192.698 363.285 193.725 363.14 194.833C362.996 195.941 361.965 196.721 360.851 196.578C359.737 196.434 358.954 195.408 359.098 194.299C359.242 193.191 360.274 192.411 361.387 192.555Z" fill="#92B5F8"/>
<path d="M369.76 191.262C370.317 190.83 371.142 190.933 371.575 191.487C372.008 192.042 371.905 192.863 371.348 193.294C370.792 193.725 369.967 193.622 369.534 193.068C369.08 192.514 369.183 191.693 369.76 191.262Z" fill="#92B5F8"/>
<path d="M63.7061 218.561C65.6241 218.171 67.4802 219.403 67.872 221.312C68.2639 223.221 67.0265 225.068 65.1085 225.458C63.1905 225.848 61.3343 224.616 60.9425 222.707C60.5713 220.799 61.8087 218.951 63.7061 218.561Z" fill="#92B5F8"/>
<path d="M49.6822 218.602C49.9916 217.535 51.1259 216.919 52.2189 217.227C53.2913 217.535 53.9101 218.664 53.6007 219.752C53.2913 220.819 52.1571 221.435 51.064 221.127C49.9916 220.819 49.3729 219.69 49.6822 218.602Z" fill="#92B5F8"/>
<path d="M49.7234 210.187C49.3728 209.571 49.6203 208.77 50.239 208.442C50.8577 208.093 51.662 208.339 51.992 208.955C52.3426 209.571 52.0951 210.371 51.4764 210.7C50.8577 211.028 50.074 210.802 49.7234 210.187Z" fill="#92B5F8"/>
<path d="M175.857 116.26C174.909 117.388 174.166 118.743 172.186 118.723C172.186 118.723 170.495 123.156 168.722 126.605L166.721 120.324C167.587 118.989 168.99 116.383 169.443 114.741C169.567 114.31 169.67 113.878 169.773 113.468C170.042 112.421 170.207 111.333 171.3 110.41C173.094 108.87 175.115 105.935 175.527 105.853C176.249 105.689 176.002 107.823 174.888 108.891C173.114 110.594 173.733 111.354 173.733 111.354C173.733 111.354 175.61 111.805 175.961 112.667C176.146 113.037 176.971 114.925 175.857 116.26Z" fill="#F37A50"/>
<path d="M145.829 213.635L135.786 214.004C135.786 214.004 133.909 221.866 133.373 228.598C132.94 234.14 134.816 243.254 134.816 250.5C134.816 251.834 133.888 253.948 133.723 254.954C133.146 258.607 143.767 256.74 143.767 256.74C143.107 256.411 140.282 252.675 140.199 251.403C139.89 247.195 141.663 237.219 143.375 228.598C144.881 220.942 145.829 213.635 145.829 213.635Z" fill="#F37A50"/>
<path d="M117.162 209.407C117.162 209.407 115.121 221.825 114.585 228.557C114.151 234.099 115.389 242.269 115.389 249.494C115.389 250.828 114.461 252.942 114.296 253.948C113.718 257.602 115.884 254.933 116.894 255.939C117.905 256.945 119.369 256.329 119.369 256.329L124.855 256.452C124.855 256.452 124.649 256.165 123.473 255.713C122.916 255.405 120.792 251.67 120.751 250.397C120.339 235.228 133.599 210.802 133.599 210.802L117.162 209.407Z" fill="#F37A50"/>
<path d="M120.339 255.816C118.256 256.001 116.874 254.646 115.224 253.579C115.306 254.81 115.203 255.323 115.224 256.555C116.09 257.13 116.688 257.827 116.998 258.259C117.183 258.505 117.451 258.649 117.761 258.69L122.525 259.059C122.504 259.059 120.999 255.754 120.339 255.816Z" fill="#18161A"/>
<path d="M123.391 255.652C123.391 255.652 123.267 255.857 122.896 255.754C121.741 255.405 120.318 254.256 118.812 253.189C117.658 252.388 116.131 251.136 115.121 251.239C114.399 251.321 113.223 253.065 113.43 254.728C113.512 255.426 113.718 255.96 114.42 256.781C115.121 257.602 115.533 260.352 115.533 260.352L116.358 260.332C116.358 260.332 116.358 255.487 118.916 256.596C120.772 257.396 121.184 259.428 122.834 259.038C124.175 258.607 125.783 257.766 125.515 256.801C125.329 256.247 124.793 256.062 123.391 255.652Z" fill="#FD7166"/>
<path d="M139.725 256.801C137.642 256.986 136.26 255.631 134.61 254.564C134.693 255.795 134.59 256.309 134.61 257.54C135.476 258.115 136.074 258.813 136.404 259.244C136.59 259.49 136.858 259.634 137.168 259.675L142.365 259.983C142.323 259.983 140.385 256.74 139.725 256.801Z" fill="#18161A"/>
<path d="M144.819 257.109C143.911 256.801 143.705 256.698 143.705 256.698C142.426 257.13 139.972 255.405 138.178 254.153C137.023 253.353 135.456 252.06 134.445 252.183C133.723 252.265 132.692 254.584 132.527 255.652C132.424 256.35 132.671 257.068 133.084 258.053C133.682 259.511 134.383 261.378 134.383 261.378L135.208 261.358C135.208 261.358 135.208 256.514 137.765 257.622C139.622 258.423 139.848 259.983 142.179 260.003C144.654 260.044 148.572 258.361 144.819 257.109Z" fill="#FD7166"/>
<path d="M136.219 111.272C134.878 108.624 132.96 107.598 132.96 107.598L132.63 107.495L118.524 110.574C118.524 110.574 123.886 121.35 124.175 121.637C124.443 121.904 132.651 129.704 132.651 129.704C132.651 129.704 136.734 130.71 138.281 127.302C141.086 121.063 137.559 113.92 136.219 111.272Z" fill="#F37A50"/>
<path d="M124.278 143.785L114.853 145.14C114.523 145.961 110.439 159.959 111.429 163.038C112.399 166.117 119.184 173.076 123.102 174.718C127.021 176.339 127.186 170.346 127.186 170.346L119.761 161.273L124.278 143.785Z" fill="#D4DEFF"/>
<path d="M154.636 179.295C152.78 167.903 149.748 162.422 149.748 162.422C148.882 156.552 148.407 146.063 146.716 142.43L135.868 131.921L119.493 133.748C119.493 133.748 123.453 168.95 123.515 169.011C117.74 178.946 115.389 188.963 113.265 194.936C110.089 203.926 102.623 212.629 102.623 212.629C109.903 209.735 119.864 219.218 128.176 220.244C136.487 221.271 142.674 219.813 145.994 219.321C151.254 218.541 154.801 222.359 154.801 222.359C155.234 221.62 157.379 196.126 154.636 179.295Z" fill="white"/>
<path d="M167.546 115.685L156.471 133.912C156.471 133.912 144.448 131.757 141.024 131.531C136.342 131.202 135.394 132.229 135.394 132.229C135.394 132.229 136.342 146.002 143.849 146.351C143.313 145.181 157.935 144.503 162.184 141.753C166.432 139.002 172.702 121.596 172.64 121.329C168.227 118.476 167.546 115.685 167.546 115.685Z" fill="white"/>
<path d="M130.712 104.539C126.67 105.299 121.122 100.824 115.492 105.483C108.109 111.58 114.007 119.051 108.707 123.526C104.149 127.364 87.0934 134.63 97.6114 143.6C93.5279 144.873 91.0737 155.998 102.664 155.875C101.695 159.179 108.253 166.548 118.544 158.215C124.01 166.322 133.352 154.582 133.146 146.782C133.063 144.093 132.073 140.685 130.898 137.709C138.735 141.876 136.487 125.004 134.198 116.978C136.446 116.67 143.004 102.261 130.712 104.539Z" fill="#060534"/>
<path d="M416.081 117.101C416.081 120.344 413.441 122.971 410.183 122.971C406.924 122.971 404.284 120.344 404.284 117.101C404.284 113.858 406.924 111.231 410.183 111.231C413.441 111.231 416.081 113.858 416.081 117.101Z" fill="#E3EAFF"/>
<path d="M417.669 125.948C419.174 125.948 420.391 127.159 420.391 128.657C420.391 130.156 419.174 131.367 417.669 131.367C416.163 131.367 414.947 130.156 414.947 128.657C414.947 127.159 416.184 125.948 417.669 125.948ZM417.669 124.347C415.277 124.347 413.338 126.276 413.338 128.657C413.338 131.038 415.277 132.968 417.669 132.968C420.061 132.968 422 131.038 422 128.657C422 126.276 420.061 124.347 417.669 124.347Z" fill="#E3EAFF"/>
<path d="M14.5396 167.821C16.0658 164.886 19.6955 163.757 22.6447 165.276C25.5939 166.794 26.7282 170.407 25.202 173.342C23.6759 176.277 20.0461 177.406 17.097 175.888C14.1478 174.348 13.0135 170.735 14.5396 167.821Z" fill="white"/>
<path d="M26.8725 104.847C28.3986 101.912 32.0284 100.783 34.9775 102.302C37.9267 103.821 39.061 107.433 37.5349 110.368C36.0087 113.304 32.379 114.433 29.4298 112.914C26.4806 111.374 25.3257 107.762 26.8725 104.847Z" fill="#E3EAFF"/>
<path d="M390.281 232.765C392.137 229.194 396.55 227.818 400.139 229.666C403.727 231.513 405.109 235.906 403.253 239.477C401.397 243.049 396.984 244.424 393.395 242.577C389.827 240.709 388.425 236.316 390.281 232.765Z" fill="#E3EAFF"/>
<path d="M28.6049 91.0124C26.8312 91.5666 24.9339 90.5813 24.377 88.8366C23.8202 87.0714 24.8101 85.183 26.5631 84.6288C28.3368 84.0746 30.2341 85.0598 30.791 86.8045C31.3684 88.5698 30.3785 90.4582 28.6049 91.0124ZM29.2236 92.9008C32.049 92.0181 33.6164 89.0213 32.709 86.2093C31.8221 83.3972 28.8111 81.8372 25.9857 82.7404C23.1602 83.623 21.5928 86.6198 22.5003 89.4319C23.3871 92.2234 26.3981 93.7834 29.2236 92.9008Z" fill="#E3EAFF"/>
<path d="M357.304 162.525C355.53 163.079 353.633 162.094 353.076 160.349C352.519 158.584 353.509 156.696 355.262 156.141C357.036 155.587 358.933 156.573 359.49 158.317C360.047 160.062 359.077 161.95 357.304 162.525ZM357.902 164.414C360.727 163.531 362.295 160.534 361.387 157.722C360.5 154.91 357.489 153.35 354.664 154.253C351.838 155.136 350.271 158.133 351.179 160.945C352.065 163.736 355.076 165.296 357.902 164.414Z" fill="white"/>
<path d="M170.516 14.1014C168.742 14.6556 166.845 13.6703 166.288 11.9256C165.731 10.1604 166.721 8.27198 168.474 7.71777C170.248 7.16357 172.145 8.14882 172.702 9.89353C173.259 11.6588 172.269 13.5472 170.516 14.1014ZM171.114 15.9898C173.939 15.1071 175.507 12.1103 174.599 9.29828C173.712 6.48621 170.701 4.92624 167.876 5.82938C165.051 6.712 163.483 9.7088 164.37 12.5209C165.277 15.3329 168.288 16.8929 171.114 15.9898Z" fill="#E3EAFF"/>
</g>
<defs>
<clipPath id="clip0">
<rect width="422" height="263" fill="white"/>
</clipPath>
</defs>
</svg>
