<svg width="27" height="27" viewBox="0 0 27 27" fill="none" xmlns="http://www.w3.org/2000/svg">
<circle cx="13.5" cy="13.5" r="13" stroke="#FF4178"/>
<path d="M10.8328 15.6974H10.8335C10.8341 15.6974 10.8347 15.6973 10.8352 15.6973H18.8027C18.9989 15.6973 19.1713 15.5671 19.2253 15.3785L20.9831 9.2262C21.0209 9.09357 20.9944 8.95097 20.9114 8.84088C20.8283 8.73079 20.6984 8.66602 20.5605 8.66602H9.81935L9.50521 7.25233C9.46046 7.05125 9.28217 6.9082 9.07617 6.9082H6.43945C6.19672 6.9082 6 7.10493 6 7.34766C6 7.59039 6.19672 7.78711 6.43945 7.78711H8.72369C8.77931 8.03762 10.227 14.5523 10.3103 14.9271C9.84327 15.1301 9.51562 15.5958 9.51562 16.1367C9.51562 16.8636 10.1071 17.4551 10.834 17.4551H18.8027C19.0455 17.4551 19.2422 17.2584 19.2422 17.0156C19.2422 16.7729 19.0455 16.5762 18.8027 16.5762H10.834C10.5917 16.5762 10.3945 16.379 10.3945 16.1367C10.3945 15.8948 10.591 15.698 10.8328 15.6974ZM19.9779 9.54492L18.4712 14.8184H11.1865L10.0146 9.54492H19.9779Z" fill="#FF4178"/>
<path d="M10.3945 18.7734C10.3945 19.5004 10.986 20.0918 11.7129 20.0918C12.4398 20.0918 13.0312 19.5004 13.0312 18.7734C13.0312 18.0465 12.4398 17.4551 11.7129 17.4551C10.986 17.4551 10.3945 18.0465 10.3945 18.7734ZM11.7129 18.334C11.9552 18.334 12.1523 18.5312 12.1523 18.7734C12.1523 19.0157 11.9552 19.2129 11.7129 19.2129C11.4706 19.2129 11.2734 19.0157 11.2734 18.7734C11.2734 18.5312 11.4706 18.334 11.7129 18.334Z" fill="#FF4178"/>
<path d="M16.6055 18.7734C16.6055 19.5004 17.1969 20.0918 17.9238 20.0918C18.6508 20.0918 19.2422 19.5004 19.2422 18.7734C19.2422 18.0465 18.6508 17.4551 17.9238 17.4551C17.1969 17.4551 16.6055 18.0465 16.6055 18.7734ZM17.9238 18.334C18.1661 18.334 18.3633 18.5312 18.3633 18.7734C18.3633 19.0157 18.1661 19.2129 17.9238 19.2129C17.6816 19.2129 17.4844 19.0157 17.4844 18.7734C17.4844 18.5312 17.6816 18.334 17.9238 18.334Z" fill="#FF4178"/>
</svg>
