<svg width="14" height="14" viewBox="0 0 14 14" fill="none" xmlns="http://www.w3.org/2000/svg">
<g clip-path="url(#clip0)">
<path d="M7.77295 7.00077L13.8393 0.934351C14.0529 0.720769 14.0529 0.374488 13.8393 0.160934C13.6258 -0.0526204 13.2795 -0.0526478 13.0659 0.160934L6.99951 6.22736L0.933115 0.160934C0.719533 -0.0526478 0.373252 -0.0526478 0.159698 0.160934C-0.0538564 0.374516 -0.0538837 0.720797 0.159698 0.934351L6.22609 7.00075L0.159698 13.0672C-0.0538837 13.2807 -0.0538837 13.627 0.159698 13.8406C0.266475 13.9474 0.406448 14.0007 0.54642 14.0007C0.686392 14.0007 0.826338 13.9474 0.933142 13.8406L6.99951 7.77419L13.0659 13.8406C13.1727 13.9474 13.3126 14.0007 13.4526 14.0007C13.5926 14.0007 13.7325 13.9474 13.8393 13.8406C14.0529 13.627 14.0529 13.2807 13.8393 13.0672L7.77295 7.00077Z" fill="black"/>
</g>
<defs>
<clipPath id="clip0">
<rect width="14" height="14" fill="white"/>
</clipPath>
</defs>
</svg>
