<svg width="33" height="33" viewBox="0 0 33 33" fill="none" xmlns="http://www.w3.org/2000/svg">
<path d="M31.9167 17.75H8.08333C7.48533 17.75 7 17.134 7 16.375C7 15.616 7.48533 15 8.08333 15H31.9167C32.5147 15 33 15.616 33 16.375C33 17.134 32.5147 17.75 31.9167 17.75Z" fill="#FF4178"/>
<path d="M31.625 7.30469H1.375C0.615997 7.30469 0 6.68869 0 5.92969C0 5.17068 0.615997 4.55469 1.375 4.55469H31.625C32.384 4.55469 33 5.17068 33 5.92969C33 6.68869 32.384 7.30469 31.625 7.30469Z" fill="black"/>
<path d="M31.625 28.3877H1.375C0.615997 28.3877 0 27.7717 0 27.0127C0 26.2537 0.615997 25.6377 1.375 25.6377H31.625C32.384 25.6377 33 26.2537 33 27.0127C33 27.7717 32.384 28.3877 31.625 28.3877Z" fill="black"/>
</svg>
